<?xml version="1.0" standalone="no"?>
<!DOCTYPE svg PUBLIC "-//W3C//DTD SVG 20010904//EN"
 "http://www.w3.org/TR/2001/REC-SVG-20010904/DTD/svg10.dtd">
<svg version="1.0" xmlns="http://www.w3.org/2000/svg"
 width="1024.000000pt" height="1536.000000pt" viewBox="0 0 1024.000000 1536.000000"
 preserveAspectRatio="xMidYMid meet">

<g transform="translate(0.000000,1536.000000) scale(0.100000,-0.100000)"
fill="#eadadaff" stroke="none">
<path d="M5013 12231 c-214 -55 -313 -347 -182 -538 104 -150 325 -178 468
-57 110 92 152 275 93 407 -28 64 -103 141 -161 166 -54 23 -169 35 -218 22z
m142 -92 c61 -15 127 -75 155 -141 69 -160 -52 -348 -222 -348 -79 0 -164 53
-200 124 -32 63 -36 159 -9 222 30 69 87 123 148 140 61 16 74 16 128 3z"/>
<path d="M4989 11325 c-191 -52 -328 -232 -329 -432 -1 -239 166 -426 404
-453 99 -12 161 -2 244 36 68 32 167 129 199 195 94 191 55 415 -96 557 -99
93 -284 136 -422 97z m237 -96 c59 -18 77 -30 134 -88 89 -89 114 -150 108
-271 -6 -108 -37 -181 -107 -249 -87 -85 -212 -117 -331 -87 -184 47 -289 189
-278 375 7 107 35 167 114 241 103 96 221 122 360 79z"/>
<path d="M3925 10546 c-62 -28 -128 -101 -149 -163 -20 -60 -20 -166 0 -226
37 -108 143 -181 264 -180 114 1 200 55 250 157 63 128 37 274 -66 365 -83 73
-203 92 -299 47z m188 -79 c50 -22 102 -87 117 -146 10 -44 10 -59 -5 -104
-24 -72 -47 -101 -107 -131 -57 -29 -88 -32 -139 -14 -130 45 -178 207 -96
329 44 67 153 98 230 66z"/>
<path d="M6100 10553 c-61 -22 -140 -103 -163 -168 -24 -68 -23 -187 2 -242
65 -142 246 -207 386 -138 137 66 194 232 135 390 -53 142 -209 211 -360 158z
m214 -106 c51 -39 78 -97 78 -167 0 -102 -47 -175 -131 -205 -55 -19 -82 -19
-129 0 -80 34 -122 101 -122 195 0 90 36 151 115 194 48 26 143 17 189 -17z"/>
<path d="M5079 10083 c-153 -159 -363 -419 -444 -548 -173 -275 -194 -584 -78
-1150 9 -44 19 -83 22 -87 4 -4 37 44 75 107 37 62 92 149 122 192 66 94 347
462 354 462 3 1 73 -90 156 -202 145 -194 232 -325 325 -489 24 -43 47 -78 52
-78 4 0 7 11 7 24 0 14 7 53 15 88 53 229 79 569 56 729 -23 160 -95 340 -194
489 -102 152 -394 510 -416 510 -4 0 -27 -21 -52 -47z m171 -213 c326 -393
412 -584 414 -925 1 -149 -29 -435 -44 -418 -4 4 -51 73 -105 153 -94 139
-319 440 -365 488 l-22 23 -34 -40 c-94 -110 -363 -466 -429 -568 -22 -34 -43
-62 -46 -63 -7 0 -9 12 -33 205 -20 157 -20 351 0 455 39 209 121 343 417 687
67 78 125 141 129 140 3 -1 57 -63 118 -137z"/>
<path d="M6962 9754 c-323 -190 -528 -341 -707 -519 -129 -128 -183 -196 -254
-320 -99 -173 -131 -289 -138 -511 -8 -235 15 -390 102 -669 115 -372 120
-739 15 -1067 -15 -49 -24 -88 -20 -88 23 0 236 290 403 550 44 67 147 212
229 322 83 110 183 248 223 307 229 333 352 671 386 1058 15 167 5 489 -20
663 -22 152 -59 342 -69 352 -4 4 -72 -31 -150 -78z m98 -56 c0 -2 7 -37 15
-79 36 -190 49 -345 49 -574 0 -251 -11 -353 -64 -565 -36 -144 -65 -221 -144
-385 -75 -155 -151 -271 -356 -545 -158 -210 -272 -375 -375 -538 -32 -51 -59
-91 -60 -90 -1 2 1 28 6 58 18 130 6 398 -27 557 -8 39 -34 136 -58 215 -101
334 -127 559 -91 788 20 123 37 174 96 290 63 122 130 211 254 335 160 160
338 296 580 442 135 81 175 102 175 91z"/>
<path d="M3120 9805 c-19 -51 -60 -298 -76 -467 -46 -483 27 -915 222 -1307
88 -178 140 -261 343 -551 87 -124 210 -304 274 -400 148 -223 254 -371 316
-437 27 -29 51 -53 54 -53 3 0 -8 42 -24 93 -47 152 -62 284 -56 497 7 242 29
367 113 638 60 194 85 322 91 483 9 231 -22 382 -115 563 -115 223 -360 476
-667 688 -85 59 -352 221 -423 257 l-42 22 -10 -26z m232 -202 c220 -132 416
-280 569 -433 239 -238 341 -429 370 -697 19 -177 -7 -372 -81 -618 -100 -335
-115 -423 -115 -708 0 -223 0 -228 -18 -205 -10 13 -81 118 -158 233 -77 116
-198 291 -269 390 -304 423 -439 712 -500 1072 -25 147 -43 414 -35 528 18
266 53 535 70 535 3 0 78 -44 167 -97z"/>
<path d="M1530 8792 c0 -5 33 -73 73 -153 81 -160 156 -372 212 -599 62 -253
124 -399 248 -588 85 -129 299 -348 452 -464 359 -269 782 -497 1310 -708 250
-99 836 -278 881 -268 8 2 -34 32 -93 68 -365 220 -661 533 -1040 1100 -141
210 -222 352 -383 671 -110 216 -140 268 -198 335 -207 239 -591 455 -982 553
-180 44 -480 78 -480 53z m370 -119 c343 -69 686 -230 917 -432 126 -110 173
-175 280 -386 180 -357 254 -486 428 -750 244 -369 540 -722 735 -878 20 -16
26 -25 15 -21 -11 3 -54 19 -95 34 -41 15 -151 56 -245 90 -510 187 -940 412
-1335 699 -249 181 -447 402 -563 630 -66 129 -91 199 -136 382 -61 250 -131
453 -203 592 -18 34 -35 66 -37 70 -5 12 91 0 239 -30z"/>
<path d="M8540 8789 c-458 -63 -883 -236 -1185 -484 -135 -110 -182 -177 -318
-455 -224 -455 -464 -819 -798 -1210 -195 -229 -373 -388 -619 -555 -106 -72
-112 -78 -75 -72 60 10 330 89 547 161 636 210 1255 526 1678 857 269 210 439
412 550 654 51 109 81 208 134 425 61 253 128 436 222 602 24 43 44 80 44 83
0 7 -105 4 -180 -6z m-7 -177 c-60 -125 -118 -299 -169 -512 -75 -311 -140
-458 -284 -647 -264 -349 -810 -712 -1536 -1021 -192 -82 -592 -227 -601 -218
-2 2 18 21 44 42 141 115 444 463 614 704 227 322 306 453 482 800 76 151 157
299 180 329 160 208 519 422 891 532 133 39 316 77 376 78 l46 1 -43 -88z"/>
<path d="M5082 8662 c-399 -476 -571 -776 -639 -1110 -27 -130 -24 -422 5
-557 53 -248 139 -436 345 -760 112 -175 307 -455 318 -455 9 0 260 364 353
513 144 231 256 471 299 644 126 497 -8 943 -468 1558 -78 105 -149 196 -157
203 -13 11 -22 5 -56 -36z m149 -217 c143 -192 240 -348 324 -520 133 -272
172 -432 162 -680 -6 -162 -19 -236 -68 -389 -38 -118 -162 -370 -254 -515
-86 -137 -276 -411 -285 -411 -4 0 -47 57 -97 128 -307 434 -444 718 -493
1024 -20 125 -8 410 23 528 49 189 128 355 265 555 71 105 309 415 318 415 2
0 49 -61 105 -135z"/>
<path d="M1268 7205 c-165 -23 -395 -92 -514 -153 l-34 -18 49 -37 c76 -58
279 -273 357 -378 39 -52 110 -150 160 -218 153 -211 293 -336 478 -426 456
-222 1278 -296 2066 -185 174 24 630 111 630 120 0 4 -26 13 -57 20 -213 47
-616 173 -853 267 -366 145 -599 277 -1085 618 -257 180 -421 272 -599 334
-171 60 -413 83 -598 56z m382 -90 c231 -35 484 -158 787 -381 364 -269 779
-502 1133 -637 148 -57 488 -167 514 -167 8 0 17 -4 20 -9 9 -14 -348 -63
-621 -86 -417 -35 -882 -8 -1243 71 -274 60 -488 152 -647 278 -96 77 -150
139 -288 331 -135 189 -234 311 -339 420 l-83 85 91 29 c238 76 468 98 676 66z"/>
<path d="M8640 7205 c-179 -29 -376 -101 -555 -202 -55 -31 -221 -138 -370
-238 -609 -410 -882 -544 -1485 -729 -118 -36 -266 -78 -327 -93 -103 -25
-142 -43 -94 -43 11 0 120 -20 243 -45 223 -45 271 -53 468 -79 303 -41 899
-47 1190 -12 368 45 639 117 819 217 175 99 355 276 503 498 95 142 252 336
360 445 59 60 108 113 108 118 0 10 -88 50 -199 89 -200 70 -489 103 -661 74z
m355 -90 c91 -13 265 -57 339 -85 l29 -11 -60 -62 c-96 -100 -200 -230 -333
-416 -241 -336 -404 -474 -666 -564 -439 -152 -1128 -197 -1769 -117 -284 36
-395 54 -387 62 5 5 49 19 98 33 127 34 426 138 552 191 285 122 546 271 989
567 371 247 531 330 738 382 144 36 312 43 470 20z"/>
<path d="M5550 5803 c0 -9 198 -198 335 -319 360 -320 705 -506 1107 -596 91
-20 130 -23 328 -23 175 0 245 4 315 18 282 56 610 181 920 352 157 87 516
318 512 329 -5 16 -165 93 -249 121 -234 77 -393 75 -773 -8 -402 -88 -611
-116 -925 -124 -445 -11 -733 35 -1465 232 -82 22 -105 26 -105 18z m3155
-173 c101 -26 205 -63 205 -74 0 -9 -237 -160 -357 -228 -131 -74 -345 -175
-491 -232 -312 -122 -640 -173 -902 -141 -235 29 -439 89 -641 190 -190 96
-301 171 -520 351 -167 137 -201 168 -174 159 59 -20 428 -109 541 -130 435
-80 875 -82 1319 -4 33 6 190 37 348 70 418 86 473 89 672 39z"/>
<path d="M4505 5764 c-432 -134 -907 -214 -1265 -214 -277 0 -487 27 -940 121
-266 55 -310 61 -450 66 -180 6 -299 -13 -453 -73 -95 -36 -227 -102 -226
-113 0 -3 42 -33 92 -65 375 -242 734 -422 1047 -524 246 -81 419 -107 665
-99 161 5 194 9 315 40 242 61 451 158 690 319 80 53 183 129 230 168 87 73
450 401 450 407 0 9 -57 -3 -155 -33z m-2605 -108 c63 -8 248 -42 411 -75 371
-75 531 -98 756 -112 246 -14 459 -2 728 42 127 21 437 88 520 113 27 8 51 14
52 12 2 -2 -15 -19 -39 -37 -24 -19 -97 -79 -163 -134 -382 -319 -727 -476
-1135 -516 -364 -36 -873 112 -1401 408 -166 93 -302 184 -292 194 24 24 214
82 343 104 99 17 89 17 220 1z"/>
<path d="M4975 5633 c-133 -48 -226 -154 -270 -308 -28 -94 -17 -233 26 -321
149 -313 601 -311 756 4 36 71 38 83 41 182 3 87 0 117 -18 169 -40 120 -105
195 -216 251 -61 32 -76 35 -168 38 -78 2 -113 -2 -151 -15z m241 -89 c242
-81 310 -399 125 -585 -77 -76 -146 -103 -256 -97 -126 7 -219 67 -272 176
-25 52 -28 67 -28 167 0 106 1 112 34 173 81 150 242 217 397 166z"/>
</g>
</svg>
