<svg 
id="svg" version="1.1" xmlns="http://www.w3.org/2000/svg" xmlns:xlink="http://www.w3.org/1999/xlink" width="400" height="400" viewBox="0, 0, 400,400">
<g id="svgg"><path id="path0" d="M194.727 66.414 C 192.582 67.114,192.258 67.130,190.910 66.597 C 185.986 64.652,180.737 69.962,184.589 72.992 C 185.876 74.004,187.488 79.636,187.495 83.143 C 187.501 86.033,188.283 87.679,189.921 88.250 C 190.523 88.460,191.016 88.782,191.016 88.967 C 191.016 89.151,192.201 90.171,193.649 91.233 C 197.393 93.978,197.656 94.299,197.656 96.119 C 197.656 100.110,202.020 103.416,204.196 101.074 C 204.920 100.295,206.901 94.569,207.224 92.318 C 207.291 91.853,207.552 91.150,207.804 90.756 C 208.208 90.124,208.237 90.120,208.050 90.723 C 207.669 91.947,208.168 91.444,209.020 89.746 C 209.921 87.947,213.953 82.221,215.469 80.585 C 215.984 80.029,216.406 79.432,216.406 79.260 C 216.406 78.739,220.370 74.146,220.612 74.388 C 220.735 74.511,220.411 75.095,219.891 75.685 L 218.945 76.758 220.021 75.810 C 220.612 75.288,221.075 74.673,221.049 74.442 C 220.945 73.524,221.112 73.012,221.448 73.220 C 221.898 73.498,221.508 71.854,220.959 71.154 C 220.590 70.685,218.025 69.305,216.268 68.631 C 215.825 68.461,215.091 68.844,214.037 69.796 L 212.466 71.215 207.250 68.574 C 201.114 65.466,198.835 65.073,194.727 66.414 M203.199 68.877 C 204.555 69.592,207.026 71.013,208.691 72.035 L 211.718 73.893 209.277 77.020 C 205.708 81.592,204.771 83.015,203.029 86.506 C 199.438 93.705,200.174 93.095,197.497 91.083 C 196.403 90.260,194.314 88.752,192.855 87.731 C 190.839 86.321,190.255 85.707,190.423 85.176 C 190.545 84.792,190.442 83.972,190.195 83.352 C 189.948 82.733,189.723 81.216,189.697 79.980 L 189.648 77.734 191.113 77.734 C 191.919 77.734,192.578 77.592,192.578 77.418 C 192.578 77.245,193.193 76.081,193.945 74.832 C 195.332 72.529,195.629 71.335,194.922 70.898 C 194.029 70.347,194.663 69.572,196.777 68.630 C 199.724 67.317,200.280 67.339,203.199 68.877 M188.457 68.835 C 188.610 68.682,188.609 69.083,188.454 69.727 C 187.904 72.021,186.575 72.843,185.880 71.320 C 185.263 69.964,186.373 68.147,187.462 68.730 C 187.856 68.941,188.304 68.988,188.457 68.835 M71.484 69.815 C 68.224 70.409,68.408 71.433,73.384 80.422 C 87.741 106.353,100.297 128.689,119.524 162.500 C 126.878 175.433,138.376 195.655,144.731 206.836 C 149.927 215.976,154.414 223.930,159.278 232.617 C 167.811 247.860,171.410 250.164,186.387 249.973 C 194.180 249.874,194.396 249.193,189.449 240.356 C 186.400 234.909,161.093 190.011,157.015 182.813 C 153.155 176.000,143.050 158.024,136.813 146.875 C 133.267 140.537,124.969 125.771,118.373 114.063 C 111.777 102.354,104.550 89.452,102.311 85.393 C 96.598 75.031,93.331 71.769,86.965 70.074 C 85.045 69.563,73.896 69.377,71.484 69.815 M118.009 70.027 C 115.133 71.069,114.149 68.916,131.169 98.828 C 142.444 118.643,146.034 125.056,160.254 150.777 C 181.605 189.396,180.707 187.891,182.396 187.891 C 183.933 187.891,185.049 186.906,186.303 184.444 C 186.925 183.225,189.118 179.334,191.178 175.799 C 196.160 167.246,196.319 168.743,189.069 156.055 C 183.024 145.477,161.748 107.454,152.346 90.430 C 143.614 74.617,143.134 73.993,137.522 71.183 L 134.615 69.727 126.975 69.636 C 121.695 69.574,118.926 69.694,118.009 70.027 M191.937 70.117 C 193.638 70.924,194.251 71.965,193.573 72.893 C 193.070 73.580,193.002 73.579,191.615 72.838 C 189.738 71.836,189.475 71.468,189.876 70.410 C 190.271 69.369,190.340 69.359,191.937 70.117 M280.875 69.988 C 274.773 70.859,269.620 73.428,266.790 77.008 C 264.513 79.889,264.397 79.738,274.367 86.897 L 283.305 93.315 287.288 87.185 C 289.479 83.813,292.967 78.462,295.038 75.293 L 298.805 69.531 291.101 69.579 C 286.865 69.606,282.263 69.790,280.875 69.988 M217.741 71.721 C 218.944 72.183,216.626 75.731,215.095 75.772 C 214.911 75.777,214.853 76.024,214.967 76.320 C 215.081 76.618,214.566 77.446,213.812 78.175 C 211.911 80.013,206.715 87.948,205.548 90.796 C 205.015 92.099,204.356 93.691,204.084 94.336 C 203.812 94.980,203.377 96.299,203.117 97.266 C 202.284 100.370,202.388 100.211,201.660 99.484 C 200.571 98.395,201.248 93.686,202.614 92.852 C 202.895 92.680,203.122 92.328,203.119 92.070 C 203.115 91.776,202.956 91.819,202.692 92.188 C 202.341 92.675,202.309 92.653,202.502 92.058 C 202.630 91.664,202.734 91.093,202.734 90.788 C 202.734 90.484,202.905 90.234,203.113 90.234 C 203.321 90.234,203.390 90.542,203.266 90.918 C 202.980 91.790,204.463 89.487,205.923 86.792 C 206.542 85.651,206.929 84.525,206.784 84.291 C 206.630 84.042,206.700 83.975,206.951 84.130 C 207.190 84.278,207.595 83.999,207.857 83.507 C 208.282 82.710,208.266 82.671,207.703 83.135 C 207.162 83.582,207.083 83.545,207.134 82.869 C 207.167 82.438,207.321 82.164,207.476 82.260 C 207.631 82.356,207.871 82.253,208.008 82.031 C 208.145 81.809,208.377 81.696,208.523 81.780 C 208.669 81.863,209.141 81.575,209.570 81.140 C 210.000 80.705,210.132 80.474,209.863 80.627 C 208.968 81.138,209.371 80.291,210.776 78.711 C 211.541 77.852,212.055 77.368,211.919 77.637 C 211.784 77.905,211.766 78.125,211.881 78.125 C 211.996 78.125,212.359 77.603,212.689 76.966 C 213.019 76.328,213.986 75.161,214.838 74.372 C 215.691 73.583,216.492 72.611,216.619 72.211 C 216.878 71.396,216.885 71.393,217.741 71.721 M190.206 73.288 C 191.575 74.096,192.384 75.351,191.868 75.866 C 190.950 76.785,187.470 74.219,188.292 73.229 C 188.883 72.517,188.903 72.518,190.206 73.288 M226.666 74.430 C 217.563 76.882,207.031 91.649,207.031 101.961 C 207.031 111.780,210.096 115.334,231.138 129.915 C 233.220 131.358,233.431 130.539,228.959 138.369 C 224.507 146.167,219.918 154.330,218.249 157.422 C 217.611 158.604,216.608 160.361,216.019 161.328 C 214.392 163.999,206.135 178.719,204.438 181.974 C 197.346 195.578,215.697 209.215,225.740 197.805 C 226.532 196.906,228.876 193.313,230.948 189.822 L 234.716 183.473 233.160 182.346 C 229.333 179.573,228.136 174.721,230.306 170.778 C 231.245 169.072,233.270 166.639,232.644 167.969 C 232.492 168.291,232.908 167.946,233.567 167.202 C 235.015 165.568,235.026 165.379,233.794 163.223 C 231.847 159.818,232.403 157.032,235.684 153.750 C 240.479 148.955,246.239 150.126,249.589 156.576 C 250.040 157.444,250.190 157.277,252.668 153.160 C 258.939 142.744,260.152 142.102,265.400 146.425 C 268.945 149.344,274.610 153.125,275.439 153.125 C 275.792 153.125,277.200 152.360,278.568 151.425 L 281.055 149.726 284.910 151.469 C 292.119 154.728,292.421 154.563,299.869 143.287 C 307.495 131.742,307.545 130.297,300.498 125.118 C 299.107 124.095,298.174 123.145,298.318 122.896 C 298.456 122.657,299.078 121.806,299.701 121.005 C 302.619 117.252,304.425 118.836,265.430 90.954 C 258.984 86.346,252.368 81.581,250.726 80.366 C 242.780 74.485,234.264 72.384,226.666 74.430 M218.142 106.728 C 219.280 108.353,218.211 111.616,216.821 110.757 C 216.593 110.616,216.406 110.668,216.406 110.873 C 216.406 111.706,215.081 111.711,214.197 110.880 C 213.087 109.838,213.013 108.984,214.031 108.984 C 214.551 108.984,214.863 108.616,215.045 107.786 C 215.199 107.086,215.658 106.447,216.150 106.249 C 217.380 105.753,217.475 105.776,218.142 106.728 M305.984 139.551 C 295.843 155.303,296.431 154.268,297.477 154.531 C 298.924 154.894,300.290 154.424,303.516 152.452 C 309.021 149.086,308.983 149.128,308.992 146.367 C 308.996 145.035,309.175 142.733,309.389 141.250 C 309.713 139.013,309.677 138.399,309.177 137.637 C 308.283 136.272,307.977 136.455,305.984 139.551 M320.508 144.299 C 300.916 150.521,304.745 179.220,325.195 179.436 C 345.352 179.649,349.825 151.124,330.669 144.533 C 328.027 143.624,322.998 143.508,320.508 144.299 M240.861 159.435 C 239.633 161.188,241.106 162.309,242.578 160.742 C 243.083 160.205,243.289 159.766,243.037 159.766 C 242.785 159.766,242.578 159.502,242.578 159.180 C 242.578 158.314,241.538 158.469,240.861 159.435 M247.434 165.415 C 246.990 165.898,246.404 166.368,246.133 166.458 C 245.739 166.590,245.737 166.835,246.125 167.686 C 246.731 169.015,247.752 169.054,248.438 167.773 C 248.725 167.236,249.194 166.797,249.480 166.797 C 250.139 166.797,250.128 166.022,249.456 165.137 C 248.799 164.271,248.439 164.321,247.434 165.415 M238.412 171.805 C 236.664 172.733,236.372 174.400,237.714 175.801 C 239.397 177.558,244.531 177.680,244.531 175.963 C 244.531 175.648,244.345 175.391,244.118 175.391 C 243.890 175.391,243.813 175.566,243.945 175.781 C 244.078 175.996,244.045 176.167,243.871 176.161 C 243.526 176.149,242.175 174.366,240.994 172.363 C 240.144 170.921,240.097 170.911,238.412 171.805 M96.483 268.687 C 96.484 268.807,103.570 285.087,104.721 287.613 C 105.576 289.489,109.756 289.206,110.714 287.207 C 111.998 284.526,118.750 269.187,118.750 268.949 C 118.750 268.820,117.597 268.766,116.187 268.830 L 113.624 268.945 110.866 275.195 C 109.350 278.633,107.987 281.580,107.838 281.744 C 107.689 281.908,106.283 279.065,104.714 275.427 L 101.862 268.811 99.172 268.683 C 97.693 268.612,96.483 268.614,96.483 268.687 M133.903 268.882 C 122.845 272.010,123.981 286.575,135.445 288.653 C 144.397 290.277,151.160 283.679,148.886 275.543 C 147.450 270.406,140.088 267.133,133.903 268.882 M160.645 268.671 L 158.203 268.787 158.203 278.730 L 158.203 288.672 165.820 288.672 L 173.438 288.672 173.438 286.719 L 173.438 284.766 168.367 284.766 L 163.297 284.766 163.191 276.660 L 163.086 268.555 160.645 268.671 M188.379 268.652 L 179.297 268.764 179.297 270.710 L 179.297 272.656 182.715 272.656 L 186.133 272.655 186.020 280.664 L 185.907 288.672 188.461 288.672 L 191.016 288.672 191.016 280.664 L 191.016 272.656 194.336 272.656 L 197.656 272.656 197.656 270.508 C 197.656 269.326,197.612 268.400,197.559 268.449 C 197.505 268.499,193.374 268.590,188.379 268.652 M209.883 271.589 C 209.196 273.143,207.144 277.622,205.324 281.543 L 202.015 288.672 204.667 288.672 L 207.318 288.672 208.129 286.719 L 208.941 284.766 213.963 284.766 L 218.986 284.766 219.811 286.719 L 220.636 288.672 223.232 288.672 C 224.659 288.672,225.762 288.540,225.682 288.379 C 225.602 288.218,223.536 283.735,221.092 278.418 L 216.648 268.750 213.890 268.757 L 211.133 268.765 209.883 271.589 M233.203 278.711 L 233.203 288.672 235.742 288.672 L 238.281 288.672 238.281 285.837 L 238.281 283.003 240.128 283.005 C 241.961 283.008,241.991 283.029,244.132 285.839 L 246.289 288.669 248.926 288.671 C 252.095 288.672,252.063 288.922,249.351 285.318 L 247.139 282.379 248.618 281.160 C 251.691 278.627,252.093 273.984,249.486 271.140 C 247.666 269.155,246.020 268.768,239.355 268.759 L 233.203 268.750 233.203 278.711 M260.547 278.711 L 260.547 288.672 268.555 288.672 L 276.563 288.672 276.563 286.719 L 276.563 284.766 271.094 284.766 L 265.625 284.766 265.625 282.617 L 265.625 280.469 270.508 280.469 L 275.391 280.469 275.391 278.516 L 275.391 276.563 270.508 276.563 L 265.625 276.563 265.625 274.620 L 265.625 272.678 270.996 272.570 L 276.367 272.461 276.486 270.605 L 276.605 268.750 268.576 268.750 L 260.547 268.750 260.547 278.711 M285.547 278.711 L 285.547 288.672 288.086 288.672 L 290.625 288.672 290.625 282.986 L 290.625 277.299 292.702 279.568 C 293.844 280.815,296.097 283.330,297.710 285.156 C 300.613 288.444,300.661 288.478,302.665 288.595 L 304.688 288.713 304.688 278.731 L 304.688 268.750 302.128 268.750 L 299.569 268.750 299.687 274.415 C 299.752 277.530,299.689 280.035,299.547 279.981 C 299.405 279.927,297.146 277.378,294.527 274.316 L 289.764 268.750 287.656 268.750 L 285.547 268.750 285.547 278.711 M139.903 272.666 C 142.979 273.520,145.025 277.184,144.180 280.323 C 142.302 287.298,131.250 285.948,131.250 278.743 C 131.250 274.171,135.238 271.370,139.903 272.666 M245.135 273.615 C 247.701 276.181,245.690 278.906,241.229 278.906 L 238.281 278.906 238.281 275.781 L 238.281 272.656 241.229 272.656 C 243.837 272.656,244.286 272.766,245.135 273.615 M215.647 277.439 L 217.105 280.664 214.169 280.779 C 210.512 280.922,210.652 281.200,212.375 277.219 C 213.175 275.369,213.911 273.937,214.009 274.035 C 214.108 274.134,214.845 275.666,215.647 277.439 M103.199 300.406 C 102.306 301.238,102.103 302.530,102.714 303.496 C 102.968 303.898,102.797 304.316,102.122 304.942 C 99.242 307.611,103.772 311.609,107.399 309.600 C 108.103 309.211,108.531 309.182,109.028 309.493 C 110.127 310.179,111.105 309.160,110.363 308.101 C 109.940 307.496,109.906 307.109,110.224 306.513 C 110.561 305.884,110.503 305.622,109.936 305.207 C 109.009 304.529,108.594 304.550,108.594 305.273 C 108.594 306.081,108.093 306.007,107.538 305.119 C 107.157 304.509,107.210 304.257,107.835 303.691 C 108.850 302.772,108.793 301.495,107.690 300.459 C 106.515 299.355,104.354 299.329,103.199 300.406 M106.567 302.056 C 106.723 302.864,105.595 303.408,105.000 302.813 C 104.405 302.217,104.949 301.090,105.756 301.245 C 106.130 301.317,106.495 301.682,106.567 302.056 M106.032 306.616 C 106.805 307.470,106.556 308.203,105.494 308.203 C 104.576 308.203,103.755 307.209,104.046 306.450 C 104.357 305.638,105.212 305.710,106.032 306.616 " stroke="none" fill="#0569a2" fill-rule="evenodd"></path><path id="path1" d="M0.000 200.000 L 0.000 400.000 200.000 400.000 L 400.000 400.000 400.000 200.000 L 400.000 0.000 200.000 0.000 L 0.000 0.000 0.000 200.000 M202.024 66.039 C 203.338 66.482,206.246 67.823,208.486 69.019 L 212.559 71.194 214.011 69.777 C 215.703 68.125,215.762 68.115,217.773 69.141 C 218.616 69.570,219.505 69.922,219.749 69.922 C 220.444 69.922,221.373 71.174,221.651 72.487 C 221.973 74.003,219.684 77.335,218.727 76.744 C 218.474 76.587,218.356 76.768,218.431 77.198 C 218.501 77.604,218.320 77.916,218.011 77.921 C 217.712 77.926,217.273 78.272,217.035 78.690 C 216.797 79.109,216.194 79.900,215.697 80.448 C 211.785 84.761,207.787 91.630,206.178 96.804 C 204.981 100.654,204.346 101.761,203.110 102.153 C 202.164 102.453,199.263 101.145,198.994 100.297 C 198.874 99.919,198.629 99.609,198.449 99.609 C 197.950 99.609,197.266 97.326,197.266 95.657 C 197.266 94.293,197.074 94.025,195.020 92.516 C 193.784 91.609,192.216 90.352,191.536 89.723 C 190.855 89.095,189.907 88.381,189.429 88.138 C 187.982 87.401,187.110 85.264,187.100 82.428 C 187.088 78.993,185.881 74.589,184.602 73.309 C 181.147 69.854,185.356 64.632,190.335 66.198 C 192.479 66.873,192.613 66.870,195.390 66.093 C 199.020 65.077,199.164 65.076,202.024 66.039 M196.556 68.943 L 194.480 69.910 195.153 71.050 C 195.814 72.168,195.805 72.224,194.691 73.947 C 194.066 74.913,193.251 76.256,192.880 76.930 C 192.339 77.914,191.990 78.135,191.122 78.044 L 190.039 77.930 190.127 80.273 C 190.321 85.486,190.442 85.771,193.304 87.771 C 194.731 88.768,196.679 90.173,197.633 90.893 C 199.833 92.555,199.523 92.791,202.357 87.305 C 203.689 84.727,205.022 82.422,205.319 82.183 C 205.616 81.945,205.859 81.571,205.859 81.353 C 205.859 81.136,207.088 79.421,208.590 77.544 C 211.765 73.575,211.838 74.074,207.730 71.650 C 201.112 67.745,199.808 67.429,196.556 68.943 M186.098 69.726 C 185.629 71.595,186.352 72.319,187.703 71.332 C 188.340 70.866,188.380 70.644,187.981 69.769 C 187.393 68.478,186.417 68.455,186.098 69.726 M85.156 69.551 C 93.529 70.887,95.543 72.995,105.481 90.820 C 109.194 97.480,114.071 106.182,116.320 110.156 C 118.569 114.131,125.985 127.314,132.801 139.453 C 148.387 167.214,171.600 208.432,178.997 221.484 C 196.428 252.240,195.996 250.224,185.156 250.168 C 170.295 250.090,167.789 248.196,157.019 228.906 C 152.921 221.567,145.989 209.331,129.801 180.859 C 89.859 110.615,69.043 73.303,69.043 71.958 C 69.043 69.525,77.279 68.295,85.156 69.551 M132.813 69.545 C 137.427 70.269,142.802 73.676,145.117 77.343 C 145.608 78.121,150.450 86.745,155.876 96.508 C 169.522 121.057,181.059 141.666,188.001 153.896 C 196.811 169.416,196.490 166.943,190.935 176.507 C 188.769 180.237,186.685 183.934,186.304 184.723 C 185.439 186.513,183.704 188.281,182.812 188.281 C 180.749 188.281,181.838 190.096,157.622 146.289 C 149.256 131.154,140.882 116.241,126.227 90.377 C 115.452 71.361,115.573 71.615,116.804 70.501 C 118.113 69.316,127.705 68.743,132.813 69.545 M190.077 69.819 C 189.362 70.534,189.964 71.745,191.459 72.599 C 193.080 73.525,193.726 73.355,193.744 71.999 C 193.755 71.185,190.592 69.304,190.077 69.819 M198.828 70.117 C 198.561 70.439,197.968 70.698,197.511 70.691 C 196.696 70.679,196.695 70.667,197.438 70.105 C 198.491 69.308,199.492 69.317,198.828 70.117 M298.587 70.020 C 297.924 71.148,283.836 92.803,283.561 93.116 C 283.272 93.445,267.609 82.536,265.656 80.647 L 264.711 79.732 265.770 78.131 C 268.778 73.585,272.568 71.515,281.055 69.781 C 283.232 69.337,298.864 69.549,298.587 70.020 M215.389 73.977 C 214.337 75.133,212.896 76.895,212.187 77.893 C 211.477 78.892,210.742 79.613,210.554 79.496 C 210.365 79.380,210.083 79.490,209.928 79.741 C 209.751 80.027,209.814 80.094,210.096 79.920 C 210.893 79.427,210.583 80.064,209.012 82.146 C 204.267 88.431,199.988 99.120,202.051 99.531 C 202.578 99.636,202.734 99.403,202.734 98.515 C 202.734 97.882,202.997 96.620,203.318 95.711 C 203.638 94.801,203.813 93.915,203.706 93.742 C 203.599 93.568,203.666 93.367,203.857 93.295 C 204.047 93.223,204.883 91.758,205.715 90.039 C 207.467 86.418,212.523 78.861,213.940 77.747 C 214.473 77.328,214.805 76.815,214.677 76.608 C 214.549 76.401,215.225 75.591,216.180 74.809 C 217.243 73.938,217.894 73.093,217.859 72.631 C 217.775 71.512,217.489 71.668,215.389 73.977 M188.542 73.307 C 188.061 73.788,188.274 74.107,189.767 75.142 C 191.541 76.371,191.797 76.406,191.797 75.419 C 191.797 74.163,189.303 72.546,188.542 73.307 M237.500 73.996 C 244.206 75.213,243.097 74.485,290.331 108.686 C 302.396 117.423,302.449 117.491,299.805 121.094 C 298.077 123.447,297.943 123.066,301.395 125.619 C 307.609 130.214,307.514 131.898,300.428 142.773 C 292.411 155.079,292.417 155.076,283.360 150.997 L 280.979 149.924 278.355 151.720 C 276.912 152.707,275.584 153.516,275.403 153.516 C 274.859 153.516,267.848 148.677,265.056 146.375 C 260.119 142.302,258.800 143.063,252.515 153.613 C 250.359 157.234,249.609 158.079,249.609 156.891 C 249.609 156.084,246.474 152.695,245.999 152.988 C 245.759 153.137,245.696 153.062,245.851 152.811 C 246.339 152.022,243.930 151.170,241.328 151.211 C 239.504 151.240,239.120 151.331,239.844 151.563 L 240.820 151.875 239.746 151.963 C 239.155 152.011,238.513 152.073,238.320 152.100 C 237.872 152.162,235.513 154.346,234.845 155.318 C 234.408 155.953,234.366 155.960,234.539 155.371 C 234.846 154.334,234.462 154.553,233.858 155.762 C 233.087 157.302,233.427 161.870,234.463 163.896 L 235.277 165.487 233.426 167.760 C 232.408 169.010,231.297 170.615,230.958 171.328 C 230.618 172.040,230.186 172.528,229.998 172.411 C 229.810 172.295,229.757 172.610,229.880 173.112 C 230.315 174.884,230.742 178.138,230.509 177.910 C 230.380 177.782,230.067 177.120,229.815 176.437 C 229.422 175.372,229.352 175.324,229.327 176.100 C 229.281 177.497,232.797 182.006,233.957 182.037 C 235.623 182.082,233.315 186.988,227.686 195.362 C 221.290 204.877,208.922 204.194,203.929 194.050 C 201.147 188.400,201.634 186.549,209.644 172.329 C 212.991 166.386,218.101 157.305,220.999 152.148 C 223.897 146.992,227.676 140.313,229.396 137.305 C 231.117 134.297,232.589 131.722,232.667 131.584 C 232.744 131.445,230.128 129.437,226.853 127.121 C 223.578 124.806,219.768 122.112,218.387 121.137 C 205.223 111.838,203.309 98.472,213.264 85.365 C 218.919 77.920,222.274 75.198,226.953 74.260 C 231.591 73.330,233.557 73.281,237.500 73.996 M216.032 106.817 C 215.626 107.305,215.381 108.021,215.264 109.054 C 215.248 109.200,214.959 109.594,214.624 109.930 C 213.915 110.639,214.194 111.328,215.189 111.328 C 215.900 111.328,217.142 110.166,217.904 108.789 C 218.215 108.226,218.339 108.175,218.347 108.604 C 218.354 108.933,218.086 109.592,217.751 110.069 C 217.417 110.547,217.237 110.938,217.352 110.938 C 217.466 110.938,217.844 110.505,218.190 109.976 C 219.477 108.012,217.473 105.079,216.032 106.817 M309.401 142.638 C 309.145 145.076,308.990 147.498,309.058 148.020 C 309.289 149.815,299.562 155.401,297.256 154.798 C 296.125 154.502,296.056 154.641,301.602 146.031 C 304.417 141.661,306.984 137.669,307.307 137.159 L 307.894 136.232 308.880 137.218 L 309.867 138.205 309.401 142.638 M331.170 144.539 C 343.276 148.794,347.106 164.148,338.460 173.764 C 328.950 184.341,311.625 180.034,308.021 166.197 C 304.408 152.327,317.768 139.828,331.170 144.539 M265.838 152.131 C 269.834 153.800,276.885 164.630,278.144 171.034 C 281.200 186.564,269.033 209.142,254.304 215.274 C 249.706 217.189,241.445 217.737,236.719 216.441 C 235.967 216.234,234.602 215.871,233.686 215.634 C 227.543 214.040,226.199 206.716,231.305 202.657 C 233.053 201.268,240.494 191.507,243.467 186.704 C 244.597 184.879,245.927 183.311,246.968 182.577 L 248.646 181.395 250.202 182.523 C 252.054 183.867,253.479 183.758,255.162 182.147 C 257.158 180.234,256.347 177.215,253.613 176.386 C 252.465 176.037,252.492 175.030,253.711 172.739 C 254.354 171.530,254.688 170.278,254.688 169.066 C 254.688 167.642,254.910 166.988,255.673 166.164 C 257.078 164.648,257.210 163.632,256.272 161.571 C 255.171 159.155,255.873 157.744,259.955 154.170 C 263.099 151.417,263.662 151.222,265.838 152.131 M241.170 158.270 C 240.982 158.574,241.098 158.646,241.518 158.484 C 241.865 158.351,242.523 158.545,242.979 158.914 L 243.809 159.586 242.970 160.652 C 241.552 162.454,239.686 162.069,240.253 160.092 C 240.528 159.134,240.484 158.955,240.022 159.132 C 239.287 159.414,239.301 159.192,240.067 158.426 C 240.781 157.713,241.585 157.598,241.170 158.270 M249.401 163.698 C 249.270 164.732,249.407 164.950,250.406 165.298 C 251.958 165.839,251.873 166.702,250.293 166.453 C 250.132 166.427,250.000 166.561,250.000 166.751 C 250.000 168.707,245.957 169.364,245.797 167.434 C 245.752 166.888,245.668 166.236,245.611 165.984 C 245.554 165.733,245.752 165.439,246.050 165.330 C 246.424 165.195,246.496 165.301,246.281 165.672 C 246.096 165.990,246.114 166.078,246.324 165.885 C 246.520 165.706,246.684 165.355,246.689 165.104 C 246.694 164.854,247.000 164.673,247.369 164.702 C 247.737 164.731,247.935 164.587,247.808 164.382 C 247.586 164.023,248.742 162.571,249.288 162.523 C 249.433 162.510,249.484 163.039,249.401 163.698 M240.301 170.959 C 240.694 171.315,241.016 171.771,241.016 171.973 C 241.016 172.586,242.616 174.632,242.939 174.432 C 243.281 174.221,244.922 175.636,244.922 176.143 C 244.922 177.945,238.682 178.245,237.071 176.521 C 235.572 174.916,236.024 171.875,237.762 171.875 C 237.944 171.875,238.313 171.523,238.581 171.094 C 239.174 170.145,239.384 170.129,240.301 170.959 M261.328 177.456 C 260.791 177.725,259.847 178.909,259.230 180.086 C 257.680 183.045,253.872 189.448,251.550 193.003 C 247.401 199.353,248.407 203.516,254.090 203.516 C 256.780 203.516,257.781 202.704,260.971 197.934 C 265.492 191.174,269.414 182.246,268.950 179.770 C 268.500 177.371,264.134 176.045,261.328 177.456 M104.729 275.182 L 107.667 282.005 110.655 275.280 L 113.642 268.555 116.430 268.439 C 118.099 268.370,119.163 268.474,119.081 268.700 C 119.007 268.906,117.012 273.485,114.648 278.874 L 110.352 288.673 107.650 288.575 L 104.949 288.477 100.920 279.297 C 98.703 274.248,96.715 269.722,96.500 269.238 C 96.116 268.372,96.150 268.359,98.951 268.359 L 101.791 268.359 104.729 275.182 M144.110 269.741 C 153.567 274.911,150.084 288.205,139.075 288.959 C 125.323 289.902,120.837 274.016,133.398 268.856 C 135.686 267.917,141.678 268.412,144.110 269.741 M163.582 276.453 L 163.688 284.352 168.660 284.461 L 173.633 284.570 173.633 286.638 L 173.633 288.706 165.918 288.787 L 158.203 288.867 158.203 278.595 L 158.203 268.324 160.840 268.439 L 163.477 268.555 163.582 276.453 M197.656 270.508 L 197.656 272.656 194.322 272.656 L 190.987 272.656 191.031 280.664 C 191.056 285.068,190.974 288.672,190.850 288.672 C 190.726 288.672,189.570 288.672,188.281 288.672 L 185.938 288.672 185.938 280.664 L 185.938 272.656 182.617 272.656 L 179.297 272.656 179.297 270.508 L 179.297 268.359 188.477 268.359 L 197.656 268.359 197.656 270.508 M221.219 278.293 C 226.608 290.028,226.403 288.897,223.113 288.740 L 220.443 288.613 219.630 286.689 L 218.817 284.766 213.953 284.766 L 209.089 284.766 208.277 286.719 L 207.465 288.672 204.709 288.672 C 203.193 288.672,201.953 288.619,201.953 288.555 C 201.953 288.491,203.551 285.019,205.504 280.840 C 207.456 276.661,209.555 272.144,210.167 270.801 L 211.279 268.359 213.968 268.359 L 216.658 268.359 221.219 278.293 M247.389 269.481 C 252.102 271.801,252.776 278.369,248.605 281.336 L 247.256 282.297 249.261 284.996 C 250.364 286.481,251.442 287.915,251.657 288.184 C 251.964 288.566,251.403 288.672,249.076 288.672 L 246.102 288.672 244.114 285.938 L 242.125 283.203 240.203 283.203 L 238.281 283.203 238.281 285.904 L 238.281 288.605 235.708 288.736 C 234.293 288.808,233.062 288.794,232.974 288.704 C 232.679 288.407,232.807 268.886,233.105 268.587 C 233.884 267.809,245.465 268.533,247.389 269.481 M276.563 270.508 L 276.563 272.656 271.094 272.656 L 265.625 272.656 265.625 274.609 L 265.625 276.563 270.508 276.563 L 275.391 276.563 275.391 278.613 L 275.391 280.664 270.508 280.578 L 265.625 280.493 265.625 282.629 L 265.625 284.766 271.094 284.766 L 276.563 284.766 276.563 286.816 L 276.563 288.867 268.457 288.786 L 260.352 288.705 260.247 279.027 C 260.189 273.705,260.228 269.127,260.332 268.855 C 260.477 268.477,262.426 268.359,268.542 268.359 L 276.563 268.359 276.563 270.508 M294.531 274.112 L 299.414 279.859 299.522 274.109 L 299.630 268.359 302.159 268.359 L 304.688 268.359 304.688 278.516 L 304.688 288.672 302.637 288.671 L 300.586 288.670 295.703 283.138 L 290.820 277.605 290.698 279.512 C 290.630 280.560,290.630 283.051,290.698 285.046 L 290.820 288.674 288.184 288.673 L 285.547 288.672 285.547 278.516 L 285.547 268.359 287.598 268.362 L 289.648 268.365 294.531 274.112 M133.916 273.622 C 129.117 276.883,131.309 284.187,137.235 284.678 C 143.923 285.233,146.954 276.875,141.312 273.435 C 139.394 272.266,135.778 272.357,133.916 273.622 M238.281 275.730 L 238.281 278.906 240.335 278.906 C 247.663 278.906,248.539 273.212,241.282 272.746 L 238.281 272.554 238.281 275.730 M212.446 277.445 L 211.056 280.664 213.778 280.780 C 217.185 280.925,217.092 281.083,215.612 277.672 C 213.931 273.799,214.018 273.805,212.446 277.445 M129.762 296.667 C 136.621 299.124,137.113 308.621,130.538 311.632 C 128.580 312.528,127.692 312.667,122.949 312.819 L 117.578 312.991 117.578 304.296 L 117.578 295.601 122.754 295.806 C 126.147 295.940,128.561 296.236,129.762 296.667 M157.248 296.440 C 163.987 299.500,163.990 308.824,157.254 311.961 C 147.926 316.304,139.249 306.877,145.218 298.884 C 147.394 295.970,153.488 294.732,157.248 296.440 M182.635 296.788 C 185.460 298.237,186.133 299.305,186.133 302.344 C 186.133 306.463,183.597 308.568,178.613 308.585 L 176.172 308.594 176.172 310.742 L 176.172 312.891 173.438 312.891 L 170.703 312.891 170.703 304.557 C 170.703 299.974,170.835 296.086,170.996 295.918 C 171.633 295.253,181.008 295.954,182.635 296.788 M209.020 304.272 C 211.149 308.877,212.891 312.701,212.891 312.768 C 212.891 312.835,211.687 312.891,210.216 312.891 L 207.541 312.891 206.836 311.328 L 206.131 309.766 202.539 309.766 L 198.947 309.766 198.242 311.328 L 197.538 312.891 194.821 312.891 C 192.798 312.891,192.156 312.766,192.309 312.402 C 192.807 311.216,199.240 297.743,199.778 296.759 C 200.345 295.722,200.500 295.671,202.763 295.782 L 205.149 295.898 209.020 304.272 M227.344 300.083 C 230.412 305.362,230.055 305.364,233.136 300.044 L 235.651 295.703 237.943 295.703 L 240.234 295.703 240.234 304.297 L 240.234 312.891 237.710 312.891 L 235.186 312.891 235.073 309.285 L 234.961 305.679 233.393 308.406 C 231.107 312.380,229.517 312.400,227.172 308.485 L 225.586 305.838 225.391 309.266 L 225.195 312.695 222.743 312.695 L 220.290 312.695 220.286 304.492 C 220.284 299.980,220.289 296.157,220.297 295.996 C 220.306 295.835,221.323 295.706,222.559 295.709 L 224.805 295.715 227.344 300.083 M254.988 304.395 L 255.093 312.891 252.351 312.891 L 249.609 312.891 249.609 304.557 C 249.609 295.060,249.419 295.634,252.523 295.784 L 254.883 295.898 254.988 304.395 M272.156 299.780 C 276.359 304.774,276.172 304.769,276.172 299.885 L 276.172 295.864 278.711 295.770 L 281.250 295.676 281.250 304.283 L 281.250 312.891 279.199 312.886 L 277.148 312.881 273.633 308.809 L 270.117 304.737 270.006 308.814 L 269.895 312.891 267.370 312.891 L 264.844 312.891 264.844 304.297 L 264.844 295.703 266.785 295.703 L 268.725 295.703 272.156 299.780 M304.220 297.949 L 304.338 300.000 300.216 300.000 L 296.094 300.000 296.094 301.172 L 296.094 302.344 299.826 302.344 L 303.558 302.344 303.439 304.199 L 303.320 306.055 299.749 306.166 L 296.178 306.278 296.008 307.436 L 295.838 308.594 300.263 308.594 L 304.688 308.594 304.688 310.742 L 304.688 312.891 297.911 312.891 L 291.134 312.891 290.880 308.728 C 290.546 303.274,290.554 296.295,290.895 295.954 C 291.043 295.806,294.075 295.733,297.633 295.792 L 304.102 295.898 304.220 297.949 M107.879 300.256 C 108.812 301.100,108.792 302.927,107.839 303.880 C 107.167 304.551,107.150 304.690,107.681 305.131 C 108.175 305.541,108.346 305.506,108.667 304.933 C 109.262 303.871,110.687 305.246,110.357 306.563 C 110.228 307.077,110.335 307.753,110.596 308.066 C 111.300 308.915,109.685 310.509,108.835 309.804 C 108.408 309.449,108.045 309.432,107.473 309.739 C 103.860 311.672,99.335 307.670,101.966 304.869 C 102.623 304.170,102.690 303.842,102.356 302.963 C 101.374 300.379,105.682 298.268,107.879 300.256 M122.866 302.637 C 122.281 308.547,122.531 309.132,125.471 308.742 C 131.610 307.927,130.954 300.007,124.747 300.001 L 123.126 300.000 122.866 302.637 M150.508 300.765 C 149.638 301.296,149.131 302.002,148.837 303.093 C 147.686 307.366,152.369 310.587,155.446 307.639 C 159.313 303.935,155.048 297.997,150.508 300.765 M176.172 302.169 L 176.172 304.338 178.210 304.220 C 182.389 303.978,181.920 300.000,177.713 300.000 L 176.172 300.000 176.172 302.169 M104.819 301.784 C 104.689 302.121,104.784 302.597,105.029 302.842 C 105.579 303.391,106.881 302.268,106.468 301.600 C 106.079 300.969,105.089 301.080,104.819 301.784 M201.758 303.406 C 201.328 304.419,200.918 305.385,200.846 305.553 C 200.775 305.722,201.534 305.859,202.533 305.859 C 204.540 305.859,204.532 305.891,203.269 302.866 C 202.592 301.247,202.689 301.212,201.758 303.406 M104.308 306.432 C 103.695 307.171,104.386 308.203,105.494 308.203 C 106.611 308.203,106.696 307.610,105.711 306.684 C 104.907 305.930,104.749 305.901,104.308 306.432 " stroke="none" fill="#fbfbfb" fill-rule="evenodd"></path><path id="path2" d="M259.447 154.980 C 255.938 158.352,255.339 159.614,256.384 161.435 C 257.374 163.160,257.202 164.741,255.859 166.271 C 254.900 167.364,254.688 167.950,254.688 169.513 C 254.688 170.768,254.354 172.085,253.711 173.364 C 252.523 175.729,252.497 176.172,253.546 176.172 C 253.992 176.172,254.892 176.707,255.547 177.362 C 258.828 180.643,253.621 185.604,250.049 182.599 L 248.867 181.604 247.239 182.681 C 246.142 183.407,244.797 185.013,243.113 187.607 C 239.473 193.216,235.045 198.997,231.812 202.358 C 224.346 210.122,228.913 216.352,242.515 216.959 C 253.409 217.444,262.507 212.194,269.885 201.165 C 281.347 184.029,281.211 168.491,269.484 155.334 C 265.575 150.947,263.713 150.882,259.447 154.980 M267.498 177.590 C 269.954 179.168,269.559 182.073,265.862 189.599 C 259.722 202.103,255.677 205.772,250.883 203.183 C 248.504 201.899,248.219 197.880,250.276 194.627 C 250.921 193.608,252.730 190.752,254.296 188.281 C 255.861 185.811,257.753 182.521,258.500 180.972 C 260.550 176.717,264.077 175.392,267.498 177.590 M149.295 296.419 C 141.313 299.272,141.429 310.000,149.467 312.337 C 155.889 314.204,162.109 310.251,162.109 304.304 C 162.109 298.050,155.724 294.122,149.295 296.419 M117.578 304.333 L 117.578 312.572 123.340 312.430 C 131.831 312.222,135.156 309.936,135.156 304.305 C 135.156 298.666,131.051 296.094,122.051 296.094 L 117.578 296.094 117.578 304.333 M171.094 304.259 L 171.094 312.500 173.438 312.500 L 175.781 312.500 175.781 310.603 L 175.781 308.707 178.725 308.484 C 183.872 308.095,186.664 305.590,186.231 301.749 C 185.776 297.712,183.376 296.367,176.270 296.164 L 171.094 296.017 171.094 304.259 M196.866 303.176 C 195.045 307.070,193.334 310.762,193.065 311.379 L 192.576 312.500 195.057 312.500 L 197.538 312.500 198.242 310.938 L 198.947 309.375 202.602 309.375 L 206.256 309.375 206.882 310.938 L 207.507 312.500 210.045 312.500 C 211.927 312.500,212.530 312.374,212.375 312.012 C 212.083 311.327,206.535 299.337,205.687 297.559 C 204.992 296.100,204.979 296.094,202.583 296.094 L 200.176 296.094 196.866 303.176 M220.313 304.297 L 220.313 312.500 222.642 312.500 L 224.972 312.500 225.084 308.705 L 225.195 304.911 227.148 308.119 C 229.856 312.571,230.766 312.613,233.181 308.392 C 235.440 304.445,235.547 304.462,235.547 308.766 L 235.547 312.500 237.891 312.500 L 240.234 312.500 240.234 304.297 L 240.234 296.094 237.912 296.094 L 235.589 296.094 233.127 300.447 C 230.132 305.740,230.444 305.740,227.344 300.444 L 224.805 296.106 222.559 296.100 L 220.313 296.094 220.313 304.297 M250.000 304.297 L 250.000 312.500 252.344 312.500 L 254.688 312.500 254.688 304.297 L 254.688 296.094 252.344 296.094 L 250.000 296.094 250.000 304.297 M264.844 304.297 L 264.844 312.500 267.285 312.500 L 269.727 312.500 269.698 308.594 C 269.662 303.816,269.539 303.816,273.690 308.594 L 277.085 312.500 279.167 312.500 L 281.250 312.500 281.250 304.297 L 281.250 296.094 278.711 296.094 L 276.172 296.094 276.172 300.195 C 276.172 305.171,276.343 305.171,272.266 300.189 L 268.945 296.132 266.895 296.113 L 264.844 296.094 264.844 304.297 M291.016 304.297 L 291.016 312.500 297.847 312.500 L 304.678 312.500 304.531 311.230 C 304.450 310.532,304.365 309.741,304.341 309.473 C 304.308 309.114,303.149 308.984,299.976 308.984 L 295.656 308.984 295.777 307.520 L 295.898 306.055 299.512 305.942 L 303.125 305.830 303.125 304.087 L 303.125 302.344 299.389 302.344 L 295.654 302.344 295.776 301.074 L 295.898 299.805 300.098 299.694 L 304.297 299.583 304.297 298.456 C 304.297 296.055,304.411 296.094,297.419 296.094 L 291.016 296.094 291.016 304.297 M180.371 300.632 C 182.652 302.079,180.900 304.688,177.647 304.688 L 175.781 304.688 175.781 302.409 C 175.781 301.156,175.907 300.004,176.062 299.850 C 176.461 299.450,179.329 299.971,180.371 300.632 M128.006 300.764 C 132.138 303.283,129.715 308.982,124.512 308.984 L 122.656 308.984 122.656 304.492 L 122.656 300.000 124.707 300.001 C 126.050 300.002,127.189 300.266,128.006 300.764 M155.389 300.707 C 156.624 301.658,157.421 304.110,156.987 305.623 C 156.069 308.823,151.999 309.989,149.716 307.706 C 146.037 304.027,151.287 297.551,155.389 300.707 M203.873 303.809 L 204.676 305.859 202.729 305.859 C 200.483 305.859,200.514 305.933,201.636 303.226 C 202.600 300.901,202.748 300.939,203.873 303.809 " stroke="none" fill="#f5d414" fill-rule="evenodd"></path><path id="path3" d="M198.861 67.717 C 199.293 68.087,201.579 68.312,201.364 67.963 C 201.233 67.751,200.580 67.578,199.912 67.578 C 199.244 67.578,198.771 67.641,198.861 67.717 M202.734 68.945 C 203.271 69.252,203.887 69.504,204.102 69.504 C 204.316 69.504,204.053 69.252,203.516 68.945 C 202.979 68.638,202.363 68.387,202.148 68.387 C 201.934 68.387,202.197 68.638,202.734 68.945 M77.051 69.429 C 78.286 69.507,80.308 69.507,81.543 69.429 C 82.778 69.352,81.768 69.288,79.297 69.288 C 76.826 69.288,75.815 69.352,77.051 69.429 M124.707 69.429 C 125.942 69.507,127.964 69.507,129.199 69.429 C 130.435 69.352,129.424 69.288,126.953 69.288 C 124.482 69.288,123.472 69.352,124.707 69.429 M198.222 69.889 C 198.343 70.085,198.222 70.335,197.952 70.444 C 197.646 70.567,197.627 70.653,197.901 70.672 C 198.144 70.689,198.561 70.439,198.828 70.117 C 199.228 69.636,199.197 69.531,198.658 69.531 C 198.296 69.531,198.100 69.692,198.222 69.889 M220.033 74.576 C 218.537 76.288,218.306 76.953,219.206 76.953 C 219.385 76.953,219.487 76.733,219.434 76.465 C 219.380 76.196,219.556 76.021,219.824 76.074 C 220.093 76.128,220.285 76.040,220.250 75.879 C 220.129 75.305,220.791 74.227,221.135 74.439 C 221.327 74.558,221.498 74.513,221.514 74.339 C 221.531 74.166,221.603 73.716,221.675 73.340 C 221.843 72.464,221.947 72.386,220.033 74.576 M231.941 73.721 C 232.643 73.808,233.697 73.806,234.284 73.717 C 234.871 73.627,234.297 73.556,233.008 73.559 C 231.719 73.561,231.238 73.634,231.941 73.721 M95.703 75.195 C 96.432 75.947,97.116 76.563,97.224 76.563 C 97.331 76.563,96.823 75.947,96.094 75.195 C 95.365 74.443,94.681 73.828,94.573 73.828 C 94.466 73.828,94.974 74.443,95.703 75.195 M217.348 77.823 C 216.937 78.304,216.865 78.496,217.188 78.249 C 217.510 78.003,217.905 77.786,218.066 77.768 C 218.398 77.730,218.507 77.361,218.259 77.113 C 218.168 77.023,217.758 77.342,217.348 77.823 M219.311 78.223 L 218.164 79.492 219.434 78.345 C 220.132 77.714,220.703 77.143,220.703 77.075 C 220.703 76.774,220.381 77.039,219.311 78.223 M211.035 78.384 C 210.767 78.492,210.547 78.821,210.547 79.115 C 210.547 79.408,210.241 79.820,209.867 80.029 C 209.492 80.239,209.278 80.502,209.390 80.614 C 209.651 80.875,210.124 80.524,211.299 79.196 C 212.199 78.178,212.123 77.945,211.035 78.384 M189.648 80.469 C 189.502 80.931,189.470 81.397,189.577 81.504 C 189.685 81.612,189.892 81.321,190.039 80.859 C 190.186 80.397,190.218 79.931,190.110 79.824 C 190.003 79.717,189.795 80.007,189.648 80.469 M187.238 82.617 C 187.239 84.121,187.310 84.688,187.394 83.878 C 187.479 83.068,187.478 81.837,187.391 81.144 C 187.305 80.450,187.236 81.113,187.238 82.617 M208.984 81.599 C 208.984 81.862,208.821 81.976,208.621 81.853 C 208.421 81.729,208.145 81.809,208.008 82.031 C 207.871 82.253,207.631 82.356,207.476 82.260 C 207.321 82.164,207.170 82.395,207.142 82.774 C 207.113 83.153,207.340 83.464,207.646 83.464 C 207.953 83.464,208.123 83.383,208.024 83.285 C 207.926 83.187,208.234 82.792,208.708 82.407 C 209.182 82.022,209.438 81.576,209.277 81.414 C 209.116 81.252,208.984 81.335,208.984 81.599 M201.354 89.160 L 200.734 90.430 201.530 89.453 C 202.297 88.513,202.547 87.891,202.158 87.891 C 202.057 87.891,201.694 88.462,201.354 89.160 M207.499 91.197 C 207.177 91.905,207.176 92.231,207.497 92.429 C 207.762 92.593,207.824 92.522,207.654 92.248 C 207.501 92.000,207.525 91.797,207.706 91.797 C 207.888 91.797,208.063 91.445,208.096 91.016 C 208.173 89.987,208.031 90.030,207.499 91.197 M202.539 91.797 C 202.406 92.012,202.406 92.363,202.539 92.578 C 202.672 92.793,202.630 92.969,202.445 92.969 C 202.005 92.969,201.170 95.303,201.178 96.512 C 201.182 97.241,201.267 97.329,201.543 96.894 C 201.740 96.582,201.814 96.185,201.707 96.012 C 201.600 95.839,201.788 95.422,202.124 95.086 C 202.694 94.515,202.924 93.481,202.755 92.246 C 202.715 91.956,202.870 91.834,203.099 91.976 C 203.328 92.118,203.516 92.047,203.516 91.820 C 203.516 91.296,202.858 91.280,202.539 91.797 M204.008 93.183 C 203.700 93.517,203.665 93.796,203.913 93.949 C 204.127 94.082,204.411 93.908,204.543 93.563 C 204.866 92.722,204.604 92.536,204.008 93.183 M197.372 96.094 C 197.372 97.061,197.448 97.456,197.541 96.973 C 197.634 96.489,197.634 95.698,197.541 95.215 C 197.448 94.731,197.372 95.127,197.372 96.094 M215.225 107.252 C 215.015 107.803,214.844 108.418,214.844 108.619 C 214.844 108.820,214.492 108.984,214.063 108.984 C 213.272 108.984,212.978 109.923,213.640 110.332 C 214.033 110.575,215.234 109.539,215.234 108.956 C 215.234 108.154,215.295 107.974,215.848 107.129 C 216.180 106.622,216.251 106.250,216.015 106.250 C 215.790 106.250,215.434 106.701,215.225 107.252 M302.734 126.685 C 302.734 126.752,303.306 127.323,304.004 127.954 L 305.273 129.102 304.126 127.832 C 303.057 126.649,302.734 126.383,302.734 126.685 M325.488 143.629 C 325.864 143.727,326.479 143.727,326.855 143.629 C 327.231 143.530,326.924 143.450,326.172 143.450 C 325.420 143.450,325.112 143.530,325.488 143.629 M337.695 148.828 C 338.534 149.688,339.309 150.391,339.416 150.391 C 339.524 150.391,338.925 149.688,338.086 148.828 C 337.247 147.969,336.472 147.266,336.365 147.266 C 336.257 147.266,336.856 147.969,337.695 148.828 M240.332 151.061 C 240.923 151.151,241.890 151.151,242.480 151.061 C 243.071 150.972,242.588 150.898,241.406 150.898 C 240.225 150.898,239.741 150.972,240.332 151.061 M293.530 152.051 L 292.383 153.320 293.652 152.173 C 294.351 151.542,294.922 150.971,294.922 150.903 C 294.922 150.602,294.600 150.867,293.530 152.051 M237.846 151.716 C 237.380 151.954,236.725 152.588,236.391 153.125 L 235.783 154.102 236.935 153.108 C 237.568 152.562,238.613 152.061,239.258 151.996 C 240.777 151.842,240.887 151.704,239.676 151.472 C 239.135 151.369,238.312 151.479,237.846 151.716 M245.833 152.539 C 245.833 152.861,245.923 153.036,246.032 152.926 C 246.142 152.817,246.684 153.124,247.237 153.608 C 248.053 154.324,248.027 154.251,247.095 153.221 C 245.762 151.748,245.833 151.786,245.833 152.539 M232.824 159.180 C 232.824 160.469,232.995 161.787,233.203 162.109 C 233.471 162.523,233.582 162.007,233.582 160.352 C 233.582 159.063,233.411 157.744,233.203 157.422 C 232.936 157.008,232.824 157.524,232.824 159.180 M240.625 158.226 C 240.625 158.454,240.468 158.543,240.275 158.424 C 240.083 158.305,239.828 158.461,239.709 158.771 C 239.564 159.149,239.681 159.263,240.063 159.116 C 240.478 158.957,240.571 159.096,240.405 159.624 C 240.204 160.261,240.238 160.254,240.678 159.570 C 241.311 158.587,241.444 157.813,240.981 157.813 C 240.785 157.813,240.625 157.999,240.625 158.226 M242.578 159.180 C 242.578 159.502,242.863 159.766,243.212 159.766 C 243.731 159.766,243.758 159.660,243.359 159.180 C 243.092 158.857,242.807 158.594,242.726 158.594 C 242.644 158.594,242.578 158.857,242.578 159.180 M343.067 161.523 C 343.072 162.383,343.152 162.688,343.245 162.202 C 343.338 161.717,343.335 161.013,343.237 160.640 C 343.139 160.267,343.063 160.664,343.067 161.523 M248.340 163.240 C 247.418 164.174,247.480 164.533,248.535 164.383 C 249.132 164.298,249.428 163.976,249.458 163.379 C 249.511 162.336,249.261 162.305,248.340 163.240 M246.826 164.648 C 246.799 164.756,246.755 165.005,246.729 165.202 C 246.649 165.782,246.094 166.190,246.094 165.667 C 246.094 165.404,245.903 165.306,245.669 165.451 C 245.376 165.632,245.370 165.839,245.649 166.118 C 246.142 166.611,248.196 165.401,247.841 164.827 C 247.599 164.435,246.910 164.314,246.826 164.648 M249.715 165.649 C 249.975 166.066,250.497 166.406,250.875 166.406 C 251.960 166.406,251.677 165.741,250.403 165.297 C 249.313 164.917,249.272 164.939,249.715 165.649 M248.514 167.601 C 248.052 168.340,248.075 168.372,248.789 167.990 C 249.785 167.456,250.196 166.797,249.531 166.797 C 249.248 166.797,248.790 167.159,248.514 167.601 M231.927 168.271 C 229.697 170.780,228.897 173.687,229.741 176.211 C 230.719 179.136,230.818 176.930,229.880 173.112 C 229.757 172.610,229.810 172.295,229.998 172.411 C 230.299 172.597,231.475 170.646,231.571 169.803 C 231.590 169.630,231.994 169.175,232.468 168.791 C 232.979 168.377,233.166 167.992,232.928 167.845 C 232.707 167.708,232.257 167.900,231.927 168.271 M238.581 171.094 C 238.313 171.523,237.843 171.875,237.536 171.875 C 237.230 171.875,237.097 171.992,237.240 172.136 C 237.598 172.493,239.477 171.449,239.221 171.035 C 238.871 170.468,239.548 170.670,240.399 171.387 C 241.210 172.070,241.210 172.069,240.467 171.191 C 239.551 170.110,239.207 170.092,238.581 171.094 M236.406 173.125 C 234.691 174.840,236.902 177.395,240.255 177.573 C 241.908 177.661,242.573 177.583,242.190 177.345 C 241.868 177.147,241.077 176.976,240.432 176.966 C 238.476 176.935,237.917 176.836,238.094 176.550 C 238.187 176.399,237.909 175.956,237.476 175.564 C 236.893 175.037,236.752 174.568,236.930 173.754 C 237.197 172.541,237.103 172.429,236.406 173.125 M311.719 173.560 C 311.719 173.627,312.290 174.198,312.988 174.829 L 314.258 175.977 313.111 174.707 C 312.041 173.524,311.719 173.258,311.719 173.560 M242.578 174.895 C 243.472 176.024,244.512 176.698,243.945 175.781 C 243.813 175.566,243.934 175.385,244.215 175.379 C 244.661 175.368,243.484 174.461,242.969 174.418 C 242.861 174.409,242.510 174.236,242.188 174.032 C 241.865 173.829,242.041 174.217,242.578 174.895 M230.860 180.079 C 231.800 181.399,234.020 183.203,234.705 183.203 C 235.440 183.203,235.219 182.494,234.404 182.236 C 233.990 182.104,232.956 181.301,232.106 180.452 C 230.271 178.616,229.696 178.445,230.860 180.079 M202.455 188.477 C 202.458 189.551,202.534 189.944,202.624 189.350 C 202.714 188.756,202.711 187.877,202.619 187.397 C 202.526 186.917,202.453 187.402,202.455 188.477 M205.078 196.216 C 205.078 196.283,205.649 196.854,206.348 197.486 L 207.617 198.633 206.470 197.363 C 205.400 196.180,205.078 195.914,205.078 196.216 M167.188 244.727 C 167.916 245.479,168.601 246.094,168.708 246.094 C 168.815 246.094,168.307 245.479,167.578 244.727 C 166.849 243.975,166.165 243.359,166.058 243.359 C 165.950 243.359,166.459 243.975,167.188 244.727 M184.675 250.283 C 185.377 250.370,186.432 250.368,187.019 250.279 C 187.606 250.190,187.031 250.119,185.742 250.121 C 184.453 250.123,183.973 250.196,184.675 250.283 M97.941 268.641 C 98.634 268.728,99.864 268.729,100.675 268.644 C 101.485 268.560,100.918 268.489,99.414 268.488 C 97.910 268.486,97.247 268.555,97.941 268.641 M113.537 268.652 C 113.437 268.813,114.657 268.945,116.248 268.945 C 117.839 268.945,119.141 268.813,119.141 268.652 C 119.141 268.491,117.921 268.359,116.429 268.359 C 114.938 268.359,113.637 268.491,113.537 268.652 M159.277 268.642 C 159.976 268.729,161.118 268.729,161.816 268.642 C 162.515 268.555,161.943 268.484,160.547 268.484 C 159.150 268.484,158.579 268.555,159.277 268.642 M183.691 268.651 C 186.216 268.719,190.347 268.719,192.871 268.651 C 195.396 268.583,193.330 268.527,188.281 268.527 C 183.232 268.527,181.167 268.583,183.691 268.651 M212.598 268.644 C 213.403 268.728,214.722 268.728,215.527 268.644 C 216.333 268.560,215.674 268.491,214.063 268.491 C 212.451 268.491,211.792 268.560,212.598 268.644 M233.073 268.620 C 232.712 268.981,232.743 288.583,233.105 288.807 C 233.267 288.907,233.349 284.440,233.288 278.880 L 233.178 268.771 238.952 268.652 L 244.727 268.532 239.030 268.446 C 235.897 268.398,233.216 268.477,233.073 268.620 M260.417 268.620 C 260.056 268.981,260.087 288.583,260.449 288.807 C 260.610 288.907,260.693 284.439,260.632 278.877 L 260.522 268.766 268.640 268.652 L 276.758 268.538 268.717 268.449 C 264.295 268.400,260.560 268.477,260.417 268.620 M287.488 268.650 C 288.663 268.731,289.894 269.006,290.223 269.262 C 290.746 269.669,290.753 269.641,290.284 269.043 C 289.872 268.518,289.238 268.376,287.550 268.432 L 285.352 268.504 287.488 268.650 M300.675 268.641 C 301.368 268.728,302.599 268.729,303.409 268.644 C 304.220 268.560,303.652 268.489,302.148 268.488 C 300.645 268.486,299.981 268.555,300.675 268.641 M163.370 276.660 L 163.281 284.766 168.396 284.766 L 173.510 284.766 173.376 286.896 C 173.302 288.067,173.385 288.883,173.559 288.708 C 173.733 288.533,173.821 287.531,173.754 286.480 L 173.633 284.570 168.660 284.461 L 163.688 284.352 163.574 276.453 L 163.459 268.555 163.370 276.660 M137.016 272.542 C 137.502 272.635,138.205 272.632,138.579 272.534 C 138.952 272.436,138.555 272.360,137.695 272.364 C 136.836 272.368,136.530 272.448,137.016 272.542 M144.231 278.516 C 144.231 279.268,144.312 279.575,144.410 279.199 C 144.508 278.823,144.508 278.208,144.410 277.832 C 144.312 277.456,144.231 277.764,144.231 278.516 M292.969 280.200 C 292.969 280.268,293.540 280.839,294.238 281.470 L 295.508 282.617 294.361 281.348 C 293.291 280.164,292.969 279.899,292.969 280.200 " stroke="none" fill="#9bc3d0" fill-rule="evenodd"></path><path id="path4" d="M257.791 156.152 L 256.445 157.617 257.910 156.271 C 259.274 155.018,259.555 154.688,259.256 154.688 C 259.191 154.688,258.532 155.347,257.791 156.152 M278.216 180.078 C 278.216 180.830,278.296 181.138,278.394 180.762 C 278.493 180.386,278.493 179.771,278.394 179.395 C 278.296 179.019,278.216 179.326,278.216 180.078 M257.302 202.551 C 256.700 203.082,256.361 203.516,256.551 203.516 C 256.740 203.516,257.308 203.076,257.813 202.539 C 258.980 201.296,258.722 201.303,257.302 202.551 M230.249 203.613 L 229.102 204.883 230.371 203.736 C 231.069 203.104,231.641 202.533,231.641 202.466 C 231.641 202.164,231.318 202.430,230.249 203.613 M263.843 208.691 L 262.695 209.961 263.965 208.814 C 265.148 207.744,265.414 207.422,265.112 207.422 C 265.045 207.422,264.474 207.993,263.843 208.691 M119.629 295.992 C 120.864 296.069,122.886 296.069,124.121 295.992 C 125.356 295.914,124.346 295.851,121.875 295.851 C 119.404 295.851,118.394 295.914,119.629 295.992 M170.964 295.964 C 170.820 296.107,170.703 299.974,170.703 304.557 L 170.703 312.891 173.438 312.891 L 176.172 312.891 176.100 310.645 L 176.027 308.398 175.884 310.449 L 175.740 312.500 173.417 312.500 L 171.094 312.500 171.094 304.311 L 171.094 296.121 175.098 295.994 L 179.102 295.868 175.163 295.786 C 172.996 295.740,171.107 295.820,170.964 295.964 M202.512 295.994 C 204.085 296.091,205.001 296.349,205.365 296.799 C 205.840 297.384,205.853 297.359,205.477 296.582 C 205.096 295.797,204.792 295.711,202.623 295.777 L 200.195 295.851 202.512 295.994 M220.182 295.964 C 220.039 296.107,219.925 296.414,219.928 296.647 C 219.932 296.915,220.043 296.899,220.230 296.604 C 220.393 296.348,221.577 296.073,222.861 295.994 L 225.195 295.851 222.819 295.777 C 221.512 295.736,220.326 295.820,220.182 295.964 M235.412 295.996 C 235.312 296.157,236.049 296.238,237.049 296.175 C 240.149 295.980,240.536 295.812,238.011 295.756 C 236.681 295.727,235.511 295.835,235.412 295.996 M249.886 295.947 C 249.734 296.099,249.609 299.974,249.609 304.557 L 249.609 312.891 252.351 312.891 L 255.093 312.891 254.988 304.395 L 254.883 295.898 252.523 295.784 C 251.225 295.721,250.039 295.795,249.886 295.947 M265.723 295.983 C 266.313 296.072,267.280 296.072,267.871 295.983 C 268.462 295.893,267.979 295.820,266.797 295.820 C 265.615 295.820,265.132 295.893,265.723 295.983 M278.619 295.983 C 279.212 296.073,280.091 296.071,280.572 295.978 C 281.052 295.885,280.566 295.812,279.492 295.815 C 278.418 295.818,278.025 295.894,278.619 295.983 M290.800 296.201 C 290.691 296.485,290.656 299.170,290.723 302.167 L 290.844 307.617 290.930 301.855 L 291.016 296.094 297.428 296.094 C 301.418 296.094,303.916 296.245,304.040 296.494 C 304.149 296.714,304.193 296.670,304.138 296.396 C 303.988 295.656,291.082 295.467,290.800 296.201 M254.688 304.297 L 254.688 312.500 252.344 312.500 L 250.000 312.500 250.000 304.297 L 250.000 296.094 252.344 296.094 L 254.688 296.094 254.688 304.297 M176.042 299.870 C 175.898 300.013,175.781 301.156,175.781 302.409 L 175.781 304.688 177.832 304.617 L 179.883 304.547 178.027 304.400 L 176.172 304.254 176.172 302.154 C 176.172 300.287,176.269 300.036,177.051 299.885 C 177.866 299.728,177.871 299.712,177.116 299.663 C 176.668 299.633,176.185 299.727,176.042 299.870 M295.855 300.167 C 295.738 300.474,295.719 301.133,295.814 301.632 C 295.947 302.330,296.000 302.249,296.041 301.283 L 296.094 300.026 300.293 299.901 L 304.492 299.775 300.281 299.692 C 296.937 299.626,296.025 299.724,295.855 300.167 M122.755 301.367 C 122.759 302.227,122.839 302.532,122.933 302.046 C 123.026 301.560,123.022 300.857,122.925 300.484 C 122.827 300.110,122.750 300.508,122.755 301.367 M303.191 303.989 L 303.125 305.830 299.512 305.942 L 295.898 306.055 295.842 307.227 C 295.788 308.340,295.794 308.345,295.965 307.324 L 296.146 306.250 299.648 306.250 C 303.546 306.250,303.671 306.163,303.412 303.654 C 303.263 302.212,303.254 302.227,303.191 303.989 M162.208 304.492 C 162.212 305.352,162.292 305.657,162.386 305.171 C 162.479 304.685,162.476 303.982,162.378 303.609 C 162.280 303.235,162.204 303.633,162.208 304.492 M230.846 303.931 C 230.477 304.621,230.319 304.663,229.758 304.224 C 229.170 303.764,229.157 303.782,229.634 304.390 C 229.927 304.764,230.322 304.974,230.511 304.857 C 230.929 304.599,231.747 303.125,231.473 303.125 C 231.365 303.125,231.083 303.488,230.846 303.931 M225.000 308.799 L 225.000 312.567 222.479 312.436 C 221.092 312.364,220.100 312.446,220.273 312.619 C 220.447 312.792,221.626 312.880,222.892 312.814 L 225.195 312.695 225.391 309.044 C 225.498 307.035,225.454 305.311,225.293 305.212 C 225.132 305.113,225.000 306.727,225.000 308.799 M234.766 305.677 C 234.429 306.093,234.387 306.275,234.668 306.107 C 235.044 305.881,235.156 306.625,235.156 309.352 L 235.156 312.891 237.793 312.815 L 240.430 312.740 238.002 312.602 L 235.575 312.463 235.463 308.709 C 235.362 305.301,235.297 305.021,234.766 305.677 M270.703 305.591 C 270.703 305.658,271.274 306.229,271.973 306.861 L 273.242 308.008 272.095 306.738 C 271.025 305.555,270.703 305.289,270.703 305.591 M148.828 306.507 C 148.828 306.721,149.312 307.321,149.902 307.842 L 150.977 308.789 150.000 307.617 C 149.463 306.973,148.979 306.372,148.926 306.283 C 148.872 306.193,148.828 306.294,148.828 306.507 M269.643 308.008 C 269.646 309.082,269.722 309.475,269.812 308.881 C 269.901 308.288,269.899 307.409,269.806 306.928 C 269.714 306.448,269.640 306.934,269.643 308.008 M299.876 308.885 C 303.613 308.991,304.270 309.107,304.421 309.681 C 304.549 310.170,304.609 310.114,304.642 309.473 C 304.687 308.604,304.634 308.595,300.098 308.677 L 295.508 308.761 299.876 308.885 M159.546 310.254 L 158.398 311.523 159.668 310.376 C 160.851 309.307,161.117 308.984,160.815 308.984 C 160.748 308.984,160.177 309.556,159.546 310.254 M202.330 309.660 C 204.632 309.745,206.155 309.976,206.364 310.270 C 206.603 310.606,206.654 310.573,206.541 310.156 C 206.414 309.688,205.606 309.565,202.507 309.546 L 198.633 309.522 202.330 309.660 M192.425 311.946 C 192.294 312.286,192.188 312.637,192.188 312.727 C 192.188 312.817,193.462 312.856,195.020 312.814 L 197.852 312.738 195.234 312.601 C 193.138 312.492,192.659 312.352,192.834 311.897 C 192.954 311.584,192.964 311.328,192.857 311.328 C 192.750 311.328,192.555 311.606,192.425 311.946 M276.513 312.207 C 276.924 312.732,277.559 312.874,279.247 312.818 L 281.445 312.746 279.309 312.600 C 278.134 312.519,276.903 312.244,276.574 311.988 C 276.051 311.581,276.043 311.609,276.513 312.207 M209.961 312.500 L 207.227 312.753 210.059 312.822 C 211.732 312.862,212.891 312.731,212.891 312.500 C 212.891 312.285,212.847 312.140,212.793 312.178 C 212.739 312.216,211.465 312.361,209.961 312.500 M119.840 312.790 C 121.191 312.866,123.300 312.865,124.527 312.788 C 125.754 312.711,124.648 312.648,122.070 312.649 C 119.492 312.650,118.488 312.713,119.840 312.790 M265.909 312.782 C 266.603 312.868,267.833 312.870,268.644 312.785 C 269.454 312.701,268.887 312.630,267.383 312.628 C 265.879 312.626,265.216 312.696,265.909 312.782 M294.219 312.791 C 296.088 312.862,299.252 312.862,301.250 312.791 C 303.248 312.720,301.719 312.662,297.852 312.661 C 293.984 312.661,292.350 312.719,294.219 312.791 " stroke="none" fill="#f5eb94" fill-rule="evenodd"></path>
</g></svg>