<?xml version="1.0" standalone="no"?>
<!DOCTYPE svg PUBLIC "-//W3C//DTD SVG 20010904//EN"
 "http://www.w3.org/TR/2001/REC-SVG-20010904/DTD/svg10.dtd">
<svg version="1.0" xmlns="http://www.w3.org/2000/svg"
 width="714.000000pt" height="1263.000000pt" viewBox="0 0 714.000000 1263.000000"
 preserveAspectRatio="xMidYMid meet">

<g transform="translate(0.000000,1263.000000) scale(0.100000,-0.100000)"
fill="#000000" stroke="none">
<path d="M4258 12065 c-7 -9 -19 -22 -25 -30 -10 -10 -13 -71 -13 -229 l0
-216 -210 0 c-133 0 -210 -4 -210 -10 0 -5 -7 -10 -15 -10 -8 0 -15 -4 -15 -9
0 -5 -9 -13 -20 -16 -11 -3 -20 -15 -20 -26 0 -10 -4 -19 -10 -19 -6 0 -10
-100 -10 -280 0 -180 4 -280 10 -280 6 0 10 -13 10 -30 0 -23 5 -31 25 -36 14
-3 25 -10 25 -15 0 -5 98 -9 220 -9 l220 0 0 -220 c0 -140 4 -220 10 -220 6 0
10 -8 10 -19 0 -11 9 -21 23 -25 12 -3 160 -6 329 -6 265 0 309 2 322 16 14
13 16 50 16 245 l0 229 220 0 c140 0 220 4 220 10 0 6 6 10 13 10 8 0 24 8 35
19 22 18 22 24 22 325 0 197 -4 306 -10 306 -5 0 -10 5 -10 11 0 17 -27 39
-49 39 -12 0 -21 5 -21 10 0 6 -77 10 -210 10 l-210 0 0 228 c0 125 -5 234
-10 242 -8 13 -58 15 -329 18 -282 3 -321 1 -333 -13z m502 -401 c0 -198 2
-228 17 -242 14 -15 47 -17 245 -20 l228 -3 0 -180 0 -179 -212 0 c-117 0
-223 -3 -235 -6 -14 -4 -23 -14 -23 -25 0 -11 -4 -19 -10 -19 -6 0 -10 -79
-10 -216 0 -173 -3 -218 -14 -230 -11 -11 -49 -14 -175 -14 l-161 0 0 220 c0
121 -4 220 -9 220 -5 0 -11 13 -14 29 -8 38 -26 41 -278 41 l-209 0 0 180 0
180 229 0 c245 0 261 3 261 51 0 10 5 19 10 19 6 0 10 77 10 210 l0 210 175 0
175 0 0 -226z"/>
<path d="M2828 12011 c-10 -10 -18 -30 -18 -44 0 -15 -4 -27 -10 -27 -6 0 -10
-53 -10 -140 0 -87 4 -140 10 -140 6 0 10 -11 10 -23 0 -43 31 -67 89 -67 49
0 52 1 58 30 3 17 9 30 14 30 5 0 9 81 9 180 0 167 -1 181 -20 200 -26 26
-107 27 -132 1z"/>
<path d="M2828 11341 c-10 -10 -18 -30 -18 -44 0 -15 -4 -27 -10 -27 -6 0 -10
-53 -10 -140 0 -87 4 -140 10 -140 6 0 10 -11 10 -23 0 -43 31 -67 88 -67 42
0 52 3 57 20 3 11 11 20 16 20 5 0 9 77 9 185 0 102 -4 185 -9 185 -5 0 -12
11 -15 25 -6 23 -11 25 -59 24 -36 0 -57 -6 -69 -18z"/>
<path d="M5930 11121 c0 -5 -9 -13 -20 -16 -11 -3 -20 -15 -20 -26 0 -10 -4
-19 -10 -19 -6 0 -10 -65 -10 -175 0 -110 4 -175 10 -175 6 0 10 -9 10 -20 0
-13 9 -22 25 -26 14 -3 25 -10 25 -15 0 -5 14 -9 30 -9 17 0 30 5 30 10 0 6 6
10 13 10 8 0 24 8 35 19 21 18 22 26 22 210 0 121 -4 191 -10 191 -5 0 -10 7
-10 15 0 8 -9 15 -20 15 -11 0 -20 5 -20 10 0 6 -18 10 -40 10 -22 0 -40 -4
-40 -9z"/>
<path d="M1517 11020 c-9 -11 -17 -27 -17 -35 0 -8 -4 -15 -10 -15 -6 0 -10
-77 -10 -210 l0 -210 -210 0 c-133 0 -210 -4 -210 -10 0 -5 -7 -10 -15 -10 -8
0 -15 -4 -15 -9 0 -5 -9 -13 -20 -16 -19 -6 -20 -15 -20 -322 0 -311 0 -316
22 -334 11 -11 27 -19 35 -19 7 0 13 -4 13 -10 0 -6 77 -10 210 -10 l210 0 0
-210 c0 -115 -4 -210 -9 -210 -4 0 -11 -19 -14 -42 -3 -24 -11 -44 -16 -46 -6
-2 -11 -19 -11 -38 0 -19 -4 -34 -10 -34 -5 0 -10 -15 -10 -34 0 -19 -6 -36
-12 -39 -10 -3 -13 -75 -13 -317 0 -242 3 -314 13 -318 7 -2 12 -21 12 -48 0
-24 5 -44 10 -44 6 0 10 -16 10 -35 0 -19 4 -35 9 -35 4 0 11 -27 15 -60 4
-33 11 -60 16 -60 6 0 10 -11 10 -25 0 -14 5 -25 10 -25 6 0 10 -13 10 -30 0
-16 4 -30 10 -30 5 0 13 -18 16 -40 4 -22 10 -40 15 -40 5 0 9 -9 9 -20 0 -11
5 -20 10 -20 6 0 10 -11 10 -25 0 -14 4 -25 9 -25 5 0 12 -16 15 -35 4 -19 11
-35 16 -35 6 0 10 -9 10 -20 0 -11 5 -20 10 -20 6 0 10 -7 10 -15 0 -8 4 -15
9 -15 5 0 12 -16 15 -35 4 -19 11 -35 16 -35 6 0 10 -9 10 -20 0 -11 5 -20 10
-20 6 0 10 -5 10 -11 0 -6 7 -17 15 -25 8 -9 15 -24 15 -35 0 -10 5 -19 10
-19 15 0 12 -70 -4 -86 -12 -11 -55 -14 -221 -14 l-206 0 -25 -25 -25 -25 0
-315 c0 -285 2 -317 17 -333 15 -15 46 -17 246 -20 l228 -3 0 -225 c0 -143 4
-224 10 -224 6 0 10 -5 10 -11 0 -20 29 -39 59 -39 17 0 31 -4 31 -10 0 -6 93
-10 260 -10 167 0 260 4 260 10 0 6 9 10 20 10 12 0 32 11 45 25 25 24 25 27
25 195 0 113 4 170 11 170 5 0 50 -40 99 -90 49 -49 93 -90 99 -90 11 0 48
-36 71 -69 8 -11 21 -21 30 -21 8 0 29 -16 45 -35 17 -19 35 -35 42 -35 7 0
23 -11 37 -25 14 -14 28 -25 31 -25 4 0 13 -6 20 -12 32 -29 45 -38 52 -38 5
0 15 -9 23 -20 8 -11 23 -20 33 -20 9 0 20 -7 23 -15 4 -8 14 -15 23 -15 9 0
23 -9 31 -20 8 -11 29 -23 47 -26 19 -4 35 -14 38 -25 4 -10 15 -19 26 -19 10
0 19 -4 19 -10 0 -5 7 -10 15 -10 8 0 15 -4 15 -10 0 -5 11 -12 25 -16 14 -3
25 -10 25 -15 0 -5 9 -9 20 -9 11 0 20 -4 20 -10 0 -5 11 -10 24 -10 13 0 26
-6 28 -12 4 -10 45 -13 163 -13 118 0 159 3 162 13 3 6 18 12 34 12 16 0 29 5
29 10 0 6 7 10 15 10 8 0 15 4 15 10 0 5 16 12 35 16 19 3 35 10 35 15 0 5 6
9 13 9 7 0 19 9 27 20 8 11 22 20 32 20 10 0 18 4 18 9 0 5 11 12 25 15 14 4
25 11 25 16 0 6 6 10 13 10 7 0 19 9 27 20 8 11 23 20 33 20 9 0 20 7 23 15 4
8 14 15 23 15 9 0 25 11 35 25 10 14 26 25 35 25 9 0 23 9 31 20 8 11 20 20
27 20 7 0 13 4 13 9 0 5 9 12 19 16 11 3 23 15 26 26 4 10 13 19 22 19 9 0 30
16 49 35 18 19 39 35 48 35 8 0 17 9 21 19 3 11 15 23 26 26 10 4 19 10 19 14
0 13 37 51 49 51 15 0 401 387 401 401 0 5 20 29 45 53 25 25 45 47 45 51 0 6
13 24 48 60 12 13 22 29 22 34 0 6 16 26 35 45 19 20 35 40 35 45 0 6 11 21
25 35 14 14 25 30 25 36 0 5 4 10 9 10 5 0 13 10 17 23 4 12 15 29 25 38 11 9
19 23 19 32 0 8 7 17 15 21 8 3 15 14 15 23 0 10 9 25 20 33 11 8 20 18 20 23
0 5 7 15 15 23 8 9 15 24 15 35 0 10 5 19 10 19 6 0 10 7 10 15 0 8 5 15 10
15 6 0 10 9 10 19 0 10 7 21 15 25 8 3 15 15 15 26 0 11 5 20 10 20 6 0 10 7
10 15 0 8 5 15 10 15 6 0 10 9 10 20 0 11 4 20 9 20 5 0 12 16 15 35 4 19 11
35 16 35 6 0 10 9 10 20 0 11 5 20 10 20 6 0 10 7 10 15 0 12 18 15 105 15 99
0 107 2 130 25 14 13 25 29 25 35 0 5 5 10 10 10 6 0 10 77 10 210 l0 210 210
0 c133 0 210 4 210 10 0 6 5 10 10 10 6 0 22 11 35 25 l25 24 0 306 0 306 -27
27 -27 27 -218 3 -218 3 0 215 c0 136 -4 214 -10 214 -5 0 -10 5 -10 10 0 6
-11 22 -25 35 -23 24 -30 25 -144 25 l-121 0 -112 115 c-62 62 -119 121 -126
130 -7 8 -21 15 -32 15 -10 0 -22 9 -25 20 -3 11 -15 20 -26 20 -10 0 -19 4
-19 9 0 5 -10 13 -22 17 -13 4 -30 15 -39 25 -9 11 -21 19 -28 19 -6 0 -11 4
-11 9 0 5 -16 12 -35 15 -19 4 -35 11 -35 16 0 6 -11 10 -25 10 -14 0 -25 5
-25 10 0 6 -9 10 -20 10 -11 0 -20 4 -20 9 0 5 -22 12 -50 16 -27 4 -50 11
-50 16 0 5 -16 9 -35 9 -19 0 -35 5 -35 10 0 6 -20 10 -45 10 -25 0 -45 5 -45
10 0 6 -77 10 -210 10 -133 0 -210 -4 -210 -10 0 -5 -20 -10 -45 -10 -25 0
-45 -4 -45 -10 0 -5 -16 -10 -35 -10 -19 0 -35 -4 -35 -9 0 -5 -22 -12 -50
-16 -27 -4 -50 -11 -50 -16 0 -5 -11 -9 -25 -9 -14 0 -25 -4 -25 -10 0 -5 -9
-10 -20 -10 -11 0 -20 -4 -20 -10 0 -5 -16 -12 -35 -16 -19 -3 -35 -10 -35
-15 0 -5 -6 -9 -13 -9 -7 0 -19 -9 -27 -20 -8 -10 -28 -22 -44 -26 -29 -6 -66
-37 -66 -56 0 -4 -9 -8 -20 -8 -10 0 -25 -7 -32 -16 -39 -46 -80 -84 -93 -84
-15 0 -49 32 -75 69 -8 11 -22 21 -31 21 -9 0 -25 11 -35 25 -10 14 -26 25
-35 25 -9 0 -19 7 -23 15 -3 8 -15 15 -26 15 -11 0 -20 5 -20 10 0 6 -7 10
-15 10 -8 0 -15 5 -15 10 0 6 -7 10 -16 10 -8 0 -22 7 -30 15 -9 8 -26 15 -40
15 -13 0 -24 5 -24 10 0 6 -7 10 -15 10 -8 0 -15 5 -15 10 0 6 -9 10 -20 10
-11 0 -20 4 -20 9 0 5 -22 12 -50 16 -27 4 -50 11 -50 16 0 5 -16 9 -35 9 -19
0 -35 5 -35 10 0 6 -20 10 -45 10 -25 0 -45 5 -45 10 0 6 -36 10 -89 10 -49 0
-96 3 -105 6 -14 5 -16 28 -16 145 0 126 -2 141 -20 159 -11 11 -27 20 -35 20
-8 0 -15 5 -15 10 0 6 -76 10 -209 10 l-210 0 -3 224 c-3 223 -3 225 -27 245
-23 20 -34 21 -335 21 -300 0 -312 -1 -329 -20z m503 -385 l0 -215 29 -30 28
-30 212 0 c171 0 215 -3 227 -14 20 -21 20 -311 0 -332 -12 -11 -56 -14 -227
-14 l-212 0 -28 -30 -29 -30 0 -211 c0 -169 -3 -213 -14 -225 -11 -11 -47 -14
-161 -14 -114 0 -150 3 -161 14 -11 12 -14 57 -14 230 l0 215 -25 26 -26 25
-210 0 c-183 0 -213 2 -227 17 -12 12 -13 18 -4 21 17 5 17 279 0 284 -10 4
-9 9 3 21 14 13 51 16 242 19 124 2 229 7 234 11 4 5 9 114 11 243 l3 234 175
0 174 0 0 -215z m770 -623 c0 -5 46 -12 102 -15 57 -4 104 -11 106 -17 2 -5
15 -10 28 -10 13 0 24 -4 24 -10 0 -5 11 -10 25 -10 14 0 25 -4 25 -9 0 -6 20
-13 45 -17 25 -3 45 -10 45 -15 0 -5 9 -9 19 -9 11 0 23 -9 26 -20 3 -11 15
-20 26 -20 10 0 19 -4 19 -9 0 -5 11 -12 25 -15 14 -4 25 -11 25 -16 0 -6 5
-10 10 -10 6 0 22 -11 36 -25 14 -14 29 -25 35 -25 5 0 46 -36 90 -80 76 -77
81 -80 125 -80 44 0 48 3 140 95 52 52 101 95 108 95 8 0 18 9 21 20 3 11 15
20 25 20 10 0 25 7 34 15 8 8 19 15 25 15 6 0 11 5 11 10 0 6 9 10 20 10 11 0
20 5 20 10 0 6 7 10 15 10 8 0 15 4 15 9 0 6 20 13 45 17 25 3 45 10 45 15 0
5 11 9 25 9 14 0 25 5 25 10 0 6 11 10 24 10 13 0 26 5 28 10 2 6 47 13 101
17 53 3 97 10 97 15 0 4 45 8 100 8 55 0 100 -4 100 -8 0 -5 44 -12 97 -15 54
-4 99 -11 101 -17 2 -5 15 -10 28 -10 13 0 24 -4 24 -10 0 -5 11 -10 25 -10
14 0 25 -4 25 -9 0 -5 20 -12 45 -15 25 -4 45 -11 45 -17 0 -5 7 -9 15 -9 8 0
15 -4 15 -10 0 -5 9 -10 20 -10 11 0 20 -4 20 -10 0 -5 7 -10 15 -10 8 0 15
-4 15 -9 0 -5 10 -13 22 -17 13 -4 35 -20 49 -35 15 -16 32 -29 37 -29 11 0
102 -85 102 -95 0 -3 -20 -5 -45 -5 -35 0 -52 -6 -70 -25 -14 -13 -25 -29 -25
-35 0 -5 -4 -10 -10 -10 -6 0 -10 -78 -10 -214 l0 -215 -219 -3 c-217 -3 -220
-3 -240 -27 -20 -23 -21 -34 -21 -336 0 -290 1 -313 19 -333 10 -12 26 -22 35
-22 9 0 16 -4 16 -10 0 -6 75 -10 205 -10 l205 0 0 -210 c0 -133 4 -210 10
-210 6 0 10 -5 10 -10 0 -6 11 -22 25 -35 22 -23 32 -25 115 -25 73 0 90 -3
90 -15 0 -8 -4 -15 -10 -15 -5 0 -10 -9 -10 -20 0 -11 -4 -20 -10 -20 -5 0
-12 -16 -16 -35 -3 -19 -10 -35 -15 -35 -5 0 -9 -9 -9 -19 0 -11 -9 -22 -19
-26 -11 -3 -21 -19 -25 -38 -3 -18 -15 -39 -26 -47 -11 -8 -20 -22 -20 -32 0
-10 -4 -18 -9 -18 -5 0 -12 -11 -15 -25 -4 -14 -11 -25 -16 -25 -6 0 -10 -5
-10 -10 0 -6 -11 -22 -25 -36 -14 -14 -25 -33 -25 -44 0 -10 -8 -21 -19 -25
-10 -3 -21 -18 -24 -34 -4 -18 -15 -32 -27 -36 -11 -3 -20 -13 -20 -22 0 -9
-11 -26 -25 -39 -14 -13 -25 -28 -25 -34 0 -6 -16 -26 -35 -44 -19 -19 -35
-40 -35 -49 0 -9 -9 -19 -20 -22 -11 -3 -20 -10 -20 -15 0 -5 -16 -25 -35 -44
-19 -20 -35 -40 -35 -45 0 -6 -11 -20 -25 -33 -13 -13 -29 -27 -34 -33 -6 -5
-22 -21 -35 -35 -14 -14 -30 -29 -35 -35 -6 -5 -22 -21 -35 -35 -14 -14 -30
-29 -35 -35 -6 -5 -22 -21 -35 -35 -14 -14 -30 -29 -36 -35 -5 -5 -23 -25 -39
-42 -16 -18 -34 -33 -40 -33 -5 0 -21 -12 -34 -26 -57 -61 -94 -94 -107 -94
-5 0 -10 -4 -10 -9 0 -5 -9 -12 -19 -16 -11 -3 -23 -15 -26 -26 -4 -10 -13
-19 -22 -19 -9 0 -26 -11 -39 -25 -13 -14 -28 -25 -35 -25 -13 0 -49 -38 -49
-52 0 -4 -9 -8 -19 -8 -11 0 -26 -7 -35 -15 -8 -8 -18 -15 -22 -15 -3 0 -14
-8 -23 -19 -9 -10 -26 -21 -38 -25 -13 -4 -23 -12 -23 -17 0 -5 -9 -9 -19 -9
-11 0 -22 -9 -26 -19 -3 -11 -19 -21 -38 -25 -18 -3 -39 -15 -47 -26 -8 -11
-20 -20 -27 -20 -7 0 -13 -4 -13 -9 0 -5 -16 -12 -35 -15 -19 -4 -35 -11 -35
-16 0 -6 -9 -10 -20 -10 -11 0 -20 -4 -20 -10 0 -6 -42 -10 -105 -10 -63 0
-105 4 -105 10 0 6 -11 10 -25 10 -14 0 -25 5 -25 10 0 6 -9 10 -20 10 -11 0
-23 7 -26 15 -4 8 -15 15 -25 15 -10 0 -19 5 -19 10 0 6 -7 10 -15 10 -8 0
-15 5 -15 10 0 6 -9 10 -19 10 -11 0 -26 7 -35 15 -8 8 -18 15 -22 15 -3 0
-14 8 -23 19 -9 10 -26 21 -38 25 -13 4 -23 12 -23 17 0 5 -6 9 -13 9 -7 0
-19 9 -27 20 -8 11 -22 20 -31 20 -9 0 -25 11 -35 25 -10 14 -26 25 -36 25 -9
0 -20 9 -23 20 -4 13 -18 23 -36 27 -16 3 -29 9 -29 13 0 13 -37 50 -50 50 -7
0 -34 23 -61 50 -27 28 -53 50 -59 50 -13 0 -120 108 -120 121 0 5 56 9 129 9
133 0 131 -1 169 44 15 19 18 616 2 616 -5 0 -10 9 -10 20 0 11 -7 20 -15 20
-8 0 -15 5 -15 10 0 6 -80 10 -219 10 -190 0 -220 2 -225 16 -3 9 -6 112 -6
230 0 136 -4 214 -10 214 -5 0 -10 7 -10 15 0 8 -9 15 -20 15 -11 0 -20 5 -20
10 0 6 -108 10 -304 10 -296 0 -305 -1 -311 -20 -3 -11 -15 -20 -26 -20 -12 0
-19 7 -19 20 0 11 -4 20 -9 20 -5 0 -12 20 -15 45 -4 25 -11 45 -17 45 -5 0
-9 7 -9 15 0 8 -4 15 -10 15 -5 0 -10 14 -10 30 0 17 -4 30 -9 30 -5 0 -12 23
-16 50 -4 28 -11 50 -16 50 -5 0 -9 11 -9 25 0 14 -4 25 -10 25 -5 0 -10 15
-10 34 0 19 -4 36 -10 38 -5 2 -13 42 -16 91 -4 48 -11 87 -15 87 -5 0 -9 32
-9 70 0 40 -4 70 -10 70 -6 0 -10 42 -10 105 0 63 4 105 10 105 6 0 10 28 10
65 0 36 4 65 9 65 5 0 12 32 16 70 4 39 11 70 16 70 5 0 9 9 9 20 0 12 11 32
25 45 l24 25 244 0 c233 0 245 1 268 21 24 20 24 22 27 245 l3 224 215 0 216
0 29 29 c26 26 29 36 29 91 0 34 5 67 13 75 13 15 77 21 77 7z m2936 -536 c11
-12 14 -56 14 -227 l0 -212 30 -28 30 -29 210 0 210 0 0 -175 0 -175 -210 0
-210 0 -30 -29 -30 -28 0 -221 c0 -221 0 -222 -22 -227 -13 -3 -90 -4 -173 -3
l-150 3 -3 228 c-1 132 -6 227 -12 227 -5 0 -20 11 -34 25 l-25 25 -221 0
-220 0 0 175 0 175 220 0 221 0 25 25 c14 14 29 25 34 25 6 0 10 85 10 214 0
118 3 221 6 230 5 14 29 16 161 16 120 0 158 -3 169 -14z m-3426 -1861 l0
-226 25 -24 24 -25 221 0 220 0 0 -175 0 -175 -219 0 c-209 0 -220 -1 -226
-19 -3 -11 -15 -23 -26 -26 -18 -6 -19 -17 -19 -221 0 -173 -3 -218 -14 -230
-11 -11 -49 -14 -175 -14 l-160 0 -3 228 c-3 198 -5 231 -20 245 -9 9 -24 17
-32 17 -9 0 -16 5 -16 10 0 6 -78 10 -215 10 l-215 0 0 175 0 175 220 0 220 0
30 29 30 28 0 222 0 221 175 0 175 0 0 -225z"/>
<path d="M5913 10385 c-13 -13 -23 -29 -23 -35 0 -5 -4 -10 -10 -10 -6 0 -10
-65 -10 -175 0 -110 4 -175 10 -175 6 0 10 -7 10 -16 0 -29 32 -49 80 -49 37
0 51 5 73 27 l27 27 0 191 c0 120 -4 190 -10 190 -5 0 -10 7 -10 15 0 8 -9 15
-20 15 -11 0 -20 5 -20 10 0 6 -17 10 -37 9 -27 0 -45 -7 -60 -24z"/>
<path d="M760 9350 c-8 -11 -22 -23 -32 -26 -16 -5 -18 -22 -18 -185 l0 -180
35 -34 c24 -25 43 -35 65 -35 16 0 30 5 30 10 0 6 5 10 11 10 17 0 39 27 39
49 0 12 5 21 10 21 6 0 10 57 10 150 0 93 -4 150 -10 150 -5 0 -10 9 -10 21 0
22 -22 49 -39 49 -6 0 -11 5 -11 10 0 19 -65 11 -80 -10z"/>
<path d="M780 8690 c0 -5 -7 -10 -15 -10 -8 0 -15 -4 -15 -9 0 -5 -9 -13 -20
-16 -19 -6 -20 -15 -20 -186 l0 -180 35 -34 c24 -25 43 -35 65 -35 16 0 30 5
30 10 0 6 5 10 11 10 17 0 39 27 39 49 0 12 5 21 10 21 6 0 10 57 10 150 0 93
-4 150 -10 150 -5 0 -10 9 -10 21 0 22 -22 49 -39 49 -6 0 -11 5 -11 10 0 6
-13 10 -30 10 -16 0 -30 -4 -30 -10z"/>
</g>
</svg>
