<?xml version="1.0" standalone="no"?>
<!DOCTYPE svg PUBLIC "-//W3C//DTD SVG 20010904//EN"
 "http://www.w3.org/TR/2001/REC-SVG-20010904/DTD/svg10.dtd">
<svg version="1.0" xmlns="http://www.w3.org/2000/svg"
 width="256.000000pt" height="256.000000pt" viewBox="0 0 256.000000 256.000000"
 preserveAspectRatio="xMidYMid meet">

<g transform="translate(0.000000,256.000000) scale(0.100000,-0.100000)"
fill="currentcolor"  stroke="currentcolor">
<path d="M110 2495 c-11 -13 -8 -25 15 -72 43 -84 40 -129 -20 -249 -71 -143
-73 -227 -8 -327 18 -28 30 -37 46 -35 31 4 32 31 3 90 -39 78 -35 126 19 236
62 125 72 173 52 243 -19 63 -55 122 -78 127 -9 2 -22 -4 -29 -13z"/>
<path d="M457 2503 c-12 -12 -7 -35 19 -90 36 -73 30 -123 -33 -245 -43 -84
-47 -99 -48 -163 0 -59 5 -79 30 -125 24 -44 35 -55 55 -55 34 0 37 28 9 79
-39 69 -33 132 24 248 53 109 65 166 48 235 -21 85 -75 145 -104 116z"/>
<path d="M800 2495 c-10 -12 -8 -26 14 -74 39 -88 35 -126 -26 -255 -64 -135
-68 -191 -22 -282 35 -70 56 -86 81 -62 16 16 15 21 -12 74 -42 83 -39 127 21
248 69 142 72 229 8 329 -26 40 -44 46 -64 22z"/>
<path d="M2057 2504 c-13 -13 -7 -42 15 -80 39 -66 32 -132 -25 -246 -71 -141
-74 -222 -10 -321 18 -28 30 -37 46 -35 32 4 32 31 1 93 -36 74 -30 121 33
250 42 88 48 107 48 165 0 53 -6 75 -30 120 -28 52 -59 73 -78 54z"/>
<path d="M2393 2494 c-3 -9 6 -41 20 -70 40 -81 36 -119 -25 -248 -45 -95 -52
-118 -52 -172 0 -82 45 -177 85 -182 39 -5 43 21 12 81 -41 81 -37 124 22 247
66 139 72 202 26 295 -27 54 -37 65 -57 65 -14 0 -27 -7 -31 -16z"/>
<path d="M1278 2060 c-155 -47 -210 -247 -100 -363 88 -93 244 -91 326 4 57
67 72 160 37 234 -47 100 -163 155 -263 125z m141 -87 c48 -37 66 -71 66 -128
0 -88 -61 -147 -151 -147 -112 0 -182 132 -122 230 41 67 146 90 207 45z"/>
<path d="M955 1586 c-187 -49 -219 -64 -341 -153 -69 -51 -129 -87 -164 -98
-138 -43 -262 -122 -295 -186 -22 -42 -22 -766 0 -808 67 -131 375 -239 794
-281 133 -13 529 -13 662 0 419 42 727 150 794 281 22 42 22 766 0 808 -37 73
-168 149 -339 198 l-100 29 -13 41 c-22 66 -46 80 -209 123 -152 40 -314 62
-549 74 -103 6 -119 4 -240 -28z m455 -57 c139 -11 432 -76 457 -102 17 -18
115 -284 111 -304 -5 -25 -35 -40 -55 -27 -10 6 -39 66 -65 134 -26 68 -51
127 -55 131 -5 3 -55 19 -113 33 -58 15 -112 29 -120 31 -37 11 -43 -10 -59
-197 l-16 -183 -207 -3 -208 -2 0 24 c0 14 7 103 16 198 19 210 21 207 -89
177 -198 -55 -196 -54 -352 -169 -82 -60 -156 -110 -165 -110 -27 0 -42 17
-38 41 2 18 45 56 158 141 167 126 155 120 420 192 58 16 121 15 380 -5z
m-380 -204 c0 -28 -5 -47 -12 -49 -19 -5 -273 -34 -275 -32 -2 2 18 18 44 37
39 29 185 84 231 88 8 1 12 -14 12 -44z m728 -32 c26 -35 15 -46 -35 -39 -27
4 -67 9 -90 13 -42 5 -43 6 -43 43 l0 38 78 -20 c42 -10 83 -27 90 -35z m340
-29 c160 -53 252 -122 252 -187 0 -116 -314 -234 -735 -278 -142 -14 -528 -14
-670 0 -332 34 -601 115 -697 209 -48 46 -51 87 -9 135 27 30 128 94 135 85 2
-1 6 -24 9 -50 5 -34 3 -49 -8 -58 -21 -17 -19 -66 4 -89 27 -27 217 -87 353
-110 177 -32 302 -41 548 -41 339 0 560 28 772 96 119 38 148 59 148 102 0 36
-30 63 -95 87 -27 10 -55 22 -62 27 -17 13 -44 98 -32 98 6 0 45 -12 87 -26z
m-1083 -136 c-3 -40 -8 -82 -10 -94 -3 -11 2 -29 9 -40 13 -18 32 -19 268 -22
212 -3 256 -1 266 11 7 8 16 58 21 112 6 53 12 99 14 101 5 5 166 -13 203 -22
14 -4 26 -21 38 -53 19 -52 46 -84 86 -99 23 -9 19 -11 -33 -22 -166 -34 -254
-42 -527 -47 -305 -6 -476 7 -665 48 -111 24 -245 68 -245 80 0 5 19 9 43 9
28 0 54 8 77 24 49 33 288 82 418 85 l43 1 -6 -72z m1088 -35 c30 -9 18 -21
-43 -42 l-61 -20 26 30 c14 17 25 35 25 41 0 6 7 7 18 3 9 -4 25 -10 35 -12z
m-1788 -215 c453 -227 1583 -212 1979 27 l56 34 0 -279 0 -279 -30 -34 c-77
-88 -316 -168 -625 -209 -136 -18 -694 -18 -830 0 -306 41 -549 122 -624 207
l-31 36 0 280 0 280 28 -19 c15 -11 50 -31 77 -44z"/>
</g>
</svg>
