<?xml version="1.0" standalone="no"?>
<!DOCTYPE svg PUBLIC "-//W3C//DTD SVG 20010904//EN"
 "http://www.w3.org/TR/2001/REC-SVG-20010904/DTD/svg10.dtd">
<svg version="1.0" xmlns="http://www.w3.org/2000/svg"
 width="714.000000pt" height="1263.000000pt" viewBox="0 0 714.000000 1263.000000"
 preserveAspectRatio="xMidYMid meet">

<g transform="translate(0.000000,1263.000000) scale(0.100000,-0.100000)"
fill="#000000" stroke="none">
<path d="M2840 11950 c0 -5 -22 -10 -50 -10 -27 0 -50 -4 -50 -9 0 -5 -25 -12
-55 -16 -30 -3 -55 -11 -55 -16 0 -5 -7 -9 -15 -9 -8 0 -15 -4 -15 -10 0 -5
-9 -10 -19 -10 -10 0 -21 -7 -25 -15 -3 -8 -14 -15 -23 -15 -10 0 -25 -10 -33
-21 -8 -12 -21 -27 -28 -33 -45 -38 -82 -82 -82 -96 0 -5 -4 -10 -10 -10 -5 0
-10 -9 -10 -19 0 -10 -7 -21 -15 -25 -9 -3 -15 -18 -15 -36 0 -16 -4 -30 -10
-30 -5 0 -10 -7 -10 -15 0 -8 -4 -15 -10 -15 -5 0 -10 -15 -10 -34 0 -19 -5
-36 -11 -38 -6 -2 -13 -52 -16 -126 -3 -67 -10 -122 -14 -122 -5 0 -9 -16 -9
-35 0 -19 4 -35 9 -35 4 0 11 -42 15 -92 3 -51 11 -94 16 -96 6 -2 10 -17 10
-33 0 -16 5 -29 10 -29 6 0 10 -11 10 -25 0 -14 4 -25 9 -25 5 0 12 -16 15
-35 4 -19 11 -35 16 -35 6 0 10 -9 10 -19 0 -11 9 -23 20 -26 11 -3 20 -15 20
-25 0 -10 7 -25 15 -34 8 -8 15 -18 15 -23 0 -5 9 -15 20 -23 11 -8 20 -20 20
-26 0 -7 18 -31 40 -54 22 -23 40 -46 40 -51 0 -11 95 -109 105 -109 7 0 24
-14 60 -47 13 -13 27 -23 30 -23 4 0 13 -6 20 -12 33 -30 45 -38 55 -38 5 0
10 -4 10 -10 0 -5 9 -10 19 -10 11 0 22 -9 26 -19 3 -12 19 -21 40 -25 19 -4
35 -11 35 -16 0 -6 14 -10 30 -10 17 0 30 -4 30 -10 0 -5 11 -10 25 -10 14 0
25 -4 25 -10 0 -6 43 -10 110 -10 67 0 110 4 110 10 0 6 7 10 15 10 8 0 37 22
65 50 38 37 51 59 56 90 4 22 10 40 15 40 13 0 11 39 -3 55 -7 8 -19 21 -26
30 -20 24 -113 20 -135 -5 -9 -11 -17 -27 -17 -36 0 -32 -27 -44 -99 -44 -39
0 -71 4 -71 9 0 5 -16 12 -35 15 -19 4 -35 11 -35 16 0 6 -9 10 -20 10 -11 0
-20 5 -20 10 0 6 -5 10 -11 10 -6 0 -17 7 -25 15 -9 8 -24 15 -35 15 -10 0
-19 4 -19 10 0 12 -48 60 -61 60 -14 0 -159 149 -159 163 0 7 -16 25 -35 42
-19 16 -35 37 -35 45 0 9 -9 22 -20 30 -11 8 -23 29 -26 47 -3 18 -10 33 -15
33 -5 0 -9 7 -9 15 0 8 -4 15 -10 15 -5 0 -10 9 -10 19 0 11 -5 21 -11 23 -5
2 -13 22 -16 46 -3 23 -10 42 -14 42 -5 0 -9 23 -9 50 0 28 -4 50 -10 50 -6 0
-10 27 -10 60 0 33 4 60 10 60 6 0 10 32 10 75 0 41 4 75 9 75 5 0 12 23 16
50 4 28 11 50 16 50 5 0 9 9 9 20 0 11 5 20 10 20 6 0 10 5 10 11 0 6 7 17 15
25 8 9 15 24 15 34 0 10 9 22 20 25 11 3 20 11 20 16 0 5 6 9 13 9 7 0 19 9
27 20 8 11 29 23 47 26 18 3 33 10 33 15 0 5 7 9 15 9 8 0 15 5 15 10 0 6 20
10 45 10 25 0 45 5 45 10 0 6 33 10 80 10 47 0 80 -4 80 -10 0 -5 20 -10 45
-10 25 0 45 -4 45 -10 0 -5 7 -10 15 -10 8 0 15 -4 15 -10 0 -5 11 -10 24 -10
14 0 31 -7 40 -15 8 -8 22 -15 30 -15 9 0 16 -4 16 -10 0 -5 5 -10 11 -10 16
0 159 -149 159 -165 0 -8 4 -15 9 -15 5 0 12 -11 15 -25 4 -14 11 -25 16 -25
6 0 10 -11 10 -25 0 -14 5 -25 10 -25 6 0 10 -9 10 -20 0 -11 4 -20 9 -20 5 0
11 -121 13 -277 2 -210 6 -277 16 -281 6 -2 12 -15 12 -28 0 -13 5 -24 10 -24
6 0 10 -13 10 -30 0 -16 4 -30 10 -30 5 0 12 -16 16 -35 4 -21 13 -37 25 -40
10 -4 19 -15 19 -26 0 -10 4 -19 9 -19 5 0 13 -10 16 -21 9 -29 99 -119 119
-119 8 0 18 -9 21 -20 3 -11 15 -20 25 -20 10 0 25 -7 34 -15 8 -8 19 -15 25
-15 6 0 11 -4 11 -10 0 -5 7 -10 15 -10 8 0 15 -4 15 -9 0 -5 32 -12 70 -16
39 -4 70 -11 70 -16 0 -5 9 -9 20 -9 11 0 20 -4 20 -10 0 -5 7 -10 15 -10 8 0
15 -4 15 -10 0 -5 9 -10 20 -10 11 0 20 -4 20 -9 0 -5 9 -13 21 -16 27 -9 189
-171 189 -189 0 -8 7 -16 15 -20 8 -3 15 -15 15 -26 0 -11 5 -20 10 -20 6 0
10 -7 10 -15 0 -8 5 -15 10 -15 6 0 10 -13 10 -29 0 -16 5 -31 11 -33 5 -2 13
-38 16 -81 3 -42 10 -77 14 -77 5 0 9 -126 9 -280 0 -180 4 -280 10 -280 6 0
10 -30 10 -70 0 -38 4 -70 9 -70 5 0 12 -40 16 -90 4 -49 11 -90 16 -90 5 0 9
-11 9 -25 0 -14 4 -25 9 -25 4 0 11 -24 14 -52 4 -29 11 -54 17 -56 5 -2 10
-15 10 -28 0 -13 5 -24 10 -24 6 0 10 -11 10 -25 0 -14 4 -25 9 -25 5 0 12
-16 15 -35 4 -19 11 -35 16 -35 6 0 10 -7 10 -16 0 -9 8 -24 19 -33 10 -9 21
-26 25 -38 4 -13 12 -23 17 -23 5 0 9 -5 9 -10 0 -6 11 -22 24 -37 25 -26 28
-30 67 -69 13 -13 30 -30 37 -39 7 -8 22 -15 32 -15 11 0 20 -4 20 -9 0 -13
177 -191 190 -191 6 0 26 -17 45 -37 39 -42 42 -46 78 -79 14 -12 27 -28 29
-34 2 -6 29 -14 61 -17 54 -6 59 -4 87 26 29 30 43 91 20 91 -5 0 -10 5 -10
11 0 6 -6 16 -12 23 -7 8 -20 23 -28 35 -8 11 -21 21 -28 21 -8 0 -52 38 -97
85 -46 47 -90 85 -99 85 -9 0 -16 4 -16 10 0 5 -12 20 -26 33 -27 26 -31 29
-70 68 -13 13 -29 29 -36 35 -7 6 -20 21 -28 33 -8 11 -21 21 -30 21 -18 0
-50 34 -50 54 0 8 -9 17 -19 21 -13 4 -22 19 -26 45 -4 22 -11 40 -16 40 -5 0
-9 7 -9 15 0 8 -4 15 -10 15 -5 0 -10 9 -10 20 0 11 -4 20 -10 20 -5 0 -13 18
-16 40 -4 22 -10 40 -15 40 -5 0 -9 14 -9 30 0 17 -4 30 -10 30 -5 0 -10 16
-10 35 0 19 -4 35 -9 35 -5 0 -13 36 -17 80 -3 44 -11 80 -15 80 -5 0 -9 23
-9 50 0 28 -4 50 -10 50 -6 0 -10 107 -10 300 0 165 -4 300 -9 300 -4 0 -11
35 -14 77 -3 43 -11 79 -16 81 -6 2 -11 15 -11 28 0 13 -4 24 -10 24 -5 0 -10
14 -10 30 0 17 -4 30 -10 30 -5 0 -12 16 -16 35 -3 19 -10 35 -15 35 -5 0 -9
7 -9 15 0 8 -4 15 -9 15 -5 0 -13 10 -17 22 -4 13 -20 35 -35 49 -16 15 -29
31 -29 37 0 15 -85 102 -100 102 -14 0 -50 37 -50 52 0 4 -9 8 -19 8 -11 0
-26 7 -35 15 -8 8 -19 15 -25 15 -6 0 -11 5 -11 10 0 6 -9 10 -20 10 -11 0
-20 4 -20 10 0 5 -18 13 -40 16 -22 4 -40 10 -40 15 0 5 -9 9 -20 9 -11 0 -20
5 -20 10 0 6 -16 10 -35 10 -19 0 -35 5 -35 10 0 6 -11 10 -24 10 -14 0 -31 7
-40 15 -8 8 -17 15 -21 15 -12 0 -135 132 -135 146 0 8 -4 14 -10 14 -5 0 -10
9 -10 20 0 11 -4 20 -10 20 -5 0 -10 6 -10 14 0 8 -5 16 -10 18 -6 2 -13 27
-17 56 -3 28 -10 52 -14 52 -5 0 -9 106 -9 235 0 150 -4 235 -10 235 -5 0 -10
16 -10 35 0 19 -4 35 -9 35 -4 0 -11 19 -14 42 -3 24 -11 44 -16 46 -6 2 -11
12 -11 23 0 10 -4 19 -10 19 -5 0 -10 5 -10 11 0 6 -7 17 -15 25 -8 9 -15 24
-15 35 0 10 -4 19 -10 19 -12 0 -60 48 -60 61 0 15 -26 39 -44 39 -8 0 -18 9
-21 20 -3 11 -10 20 -15 20 -5 0 -20 11 -34 25 -14 14 -30 25 -36 25 -5 0 -10
4 -10 10 0 5 -11 12 -25 16 -14 3 -25 10 -25 15 0 5 -9 9 -20 9 -11 0 -20 5
-20 10 0 6 -7 10 -15 10 -8 0 -15 4 -15 9 0 5 -25 13 -55 16 -30 4 -55 11 -55
16 0 5 -22 9 -50 9 -27 0 -50 5 -50 10 0 6 -33 10 -80 10 -47 0 -80 -4 -80
-10z"/>
<path d="M3550 10090 c-8 -11 -23 -23 -33 -26 -10 -3 -20 -19 -24 -35 -3 -16
-14 -31 -24 -34 -11 -4 -19 -15 -19 -26 0 -10 -4 -19 -10 -19 -5 0 -12 -11
-16 -25 -3 -14 -10 -25 -15 -25 -5 0 -9 -8 -9 -18 0 -10 -9 -24 -20 -32 -12
-8 -23 -31 -27 -52 -3 -21 -9 -38 -14 -38 -5 0 -9 -9 -9 -20 0 -11 -4 -20 -10
-20 -5 0 -10 -7 -10 -15 0 -8 -4 -15 -9 -15 -5 0 -12 -25 -16 -55 -3 -30 -11
-55 -16 -55 -5 0 -9 -11 -9 -25 0 -14 -4 -25 -9 -25 -5 0 -12 -31 -16 -70 -4
-38 -11 -70 -16 -70 -5 0 -9 -25 -9 -55 0 -30 -4 -55 -10 -55 -6 0 -10 -27
-10 -60 0 -33 -4 -60 -9 -60 -4 0 -11 -46 -13 -102 -3 -64 -9 -103 -17 -106
-6 -2 -11 -12 -11 -23 0 -10 -4 -19 -10 -19 -5 0 -10 -7 -10 -15 0 -8 -4 -15
-10 -15 -5 0 -10 -9 -10 -19 0 -11 -7 -26 -15 -35 -8 -8 -15 -17 -15 -21 0 -3
-11 -17 -24 -32 -25 -26 -28 -30 -67 -69 -13 -13 -30 -30 -37 -39 -7 -8 -22
-15 -32 -15 -11 0 -20 -4 -20 -10 0 -12 -48 -60 -61 -60 -5 0 -70 -62 -144
-137 -75 -76 -139 -142 -144 -147 -5 -4 -20 -19 -34 -33 -14 -14 -29 -30 -35
-35 -22 -22 -58 -59 -79 -80 -12 -13 -28 -28 -34 -34 -38 -38 -59 -64 -59 -74
0 -5 -4 -10 -9 -10 -5 0 -12 -9 -16 -19 -3 -11 -15 -23 -26 -26 -15 -5 -19
-16 -19 -57 0 -66 23 -88 91 -88 39 0 53 5 72 26 14 14 29 31 35 36 5 6 21 21
35 35 14 14 29 30 35 35 5 6 20 21 33 34 13 13 30 29 36 36 7 7 18 18 24 24
33 33 59 64 59 69 0 7 17 28 49 59 13 13 28 28 33 34 6 5 21 21 35 35 14 14
30 29 35 35 6 5 21 22 35 36 13 14 28 26 33 26 5 0 12 9 15 20 3 11 13 20 22
20 9 0 30 16 49 35 18 19 37 35 43 35 6 0 31 20 55 45 25 25 50 45 55 45 6 0
11 4 11 9 0 5 9 13 20 16 11 3 20 15 20 25 0 19 13 35 49 60 11 8 21 23 21 33
0 9 7 20 15 23 8 4 15 15 15 25 0 10 4 19 10 19 5 0 12 16 16 35 3 19 10 35
15 35 5 0 9 9 9 20 0 11 5 20 10 20 6 0 10 11 10 24 0 13 5 26 11 28 6 2 13
51 16 121 3 64 10 117 14 117 5 0 9 25 9 55 0 30 5 55 10 55 6 0 10 20 10 45
0 25 4 45 9 45 5 0 12 32 16 70 4 39 11 70 16 70 5 0 9 11 9 25 0 14 5 25 10
25 6 0 10 9 10 20 0 11 4 20 9 20 5 0 12 20 15 45 4 25 11 45 17 45 5 0 9 7 9
15 0 8 5 15 10 15 6 0 10 9 10 20 0 11 4 20 10 20 5 0 12 16 16 35 4 21 13 37
25 40 10 4 19 15 19 26 0 10 4 19 9 19 5 0 13 10 17 22 4 13 20 35 35 49 23
21 29 36 29 68 0 23 -4 41 -10 41 -5 0 -20 11 -34 25 -32 32 -85 34 -106 5z"/>
<path d="M3000 9940 c0 -5 -7 -10 -17 -10 -19 0 -103 -86 -103 -106 0 -8 -4
-14 -10 -14 -5 0 -10 -9 -10 -20 0 -11 -4 -20 -10 -20 -5 0 -10 -7 -10 -15 0
-8 -4 -15 -9 -15 -6 0 -13 -20 -17 -45 -3 -25 -10 -45 -15 -45 -5 0 -9 -16 -9
-35 0 -19 -4 -35 -10 -35 -5 0 -10 -15 -10 -34 0 -19 -4 -36 -9 -38 -6 -1 -13
-60 -17 -130 -4 -71 -11 -128 -15 -128 -5 0 -9 -18 -9 -40 0 -22 -4 -40 -10
-40 -5 0 -10 -11 -10 -25 0 -14 -4 -25 -9 -25 -5 0 -12 -11 -15 -25 -4 -14
-11 -25 -16 -25 -6 0 -10 -9 -10 -19 0 -11 -9 -22 -19 -26 -11 -3 -23 -15 -26
-26 -4 -10 -13 -19 -20 -19 -8 0 -28 -13 -45 -30 -25 -24 -30 -37 -30 -75 0
-65 18 -80 94 -80 37 1 61 5 64 13 2 7 8 12 13 12 15 0 139 130 139 146 0 8 5
14 10 14 6 0 10 9 10 20 0 11 5 20 10 20 6 0 10 6 10 14 0 8 5 16 10 18 6 2
13 27 17 56 3 28 10 52 14 52 5 0 9 20 9 45 0 25 5 45 10 45 6 0 10 32 10 75
0 41 4 75 9 75 4 0 12 36 15 80 4 44 12 80 17 80 5 0 9 14 9 30 0 17 5 30 10
30 6 0 10 11 10 25 0 14 4 25 9 25 5 0 12 11 15 25 4 14 11 25 16 25 6 0 10 9
10 19 0 11 9 22 19 26 11 3 23 15 26 26 4 10 11 19 16 19 5 0 9 16 9 35 0 19
-4 35 -9 35 -5 0 -11 10 -13 23 -2 14 -11 23 -25 25 -13 2 -23 8 -23 13 0 5
-11 9 -25 9 -14 0 -25 -4 -25 -10z"/>
<path d="M3891 9203 c-1 -7 -8 -13 -16 -13 -19 0 -55 -36 -55 -55 0 -8 -4 -15
-10 -15 -6 0 -10 -27 -10 -60 0 -33 -4 -60 -9 -60 -4 0 -11 -27 -15 -60 -4
-33 -11 -60 -16 -60 -6 0 -10 -9 -10 -20 0 -11 -4 -20 -10 -20 -5 0 -10 -11
-10 -25 0 -14 -4 -25 -10 -25 -5 0 -10 -9 -10 -19 0 -11 -7 -26 -15 -35 -8 -8
-15 -18 -15 -23 0 -5 -9 -15 -20 -23 -11 -8 -20 -20 -20 -27 0 -7 -11 -23 -25
-37 -14 -14 -25 -28 -25 -31 0 -14 -87 -105 -101 -105 -6 0 -24 -13 -39 -30
-15 -16 -33 -30 -39 -30 -12 0 -61 -47 -61 -59 0 -5 -13 -11 -29 -14 -18 -4
-32 -14 -36 -27 -3 -11 -13 -20 -21 -20 -8 0 -30 -16 -48 -35 -19 -19 -37 -35
-41 -35 -6 0 -24 -13 -60 -47 -13 -13 -27 -23 -30 -23 -3 0 -18 -12 -33 -27
-22 -22 -27 -36 -26 -74 1 -59 19 -78 84 -86 40 -5 51 -3 56 11 3 9 14 16 23
16 9 0 25 11 35 25 10 14 27 25 37 25 11 0 19 4 19 10 0 12 48 60 61 60 6 0
24 14 39 30 15 17 31 30 34 30 7 0 24 13 61 48 13 12 27 22 30 22 4 0 13 6 20
13 30 26 44 37 50 37 12 0 205 199 205 212 0 8 9 20 20 28 11 8 20 18 20 23 0
5 7 15 15 23 8 9 15 24 15 35 0 10 5 19 10 19 6 0 10 7 10 15 0 8 4 15 9 15 5
0 12 16 15 35 4 19 11 35 16 35 6 0 10 11 10 25 0 14 5 25 10 25 6 0 10 9 10
20 0 11 4 20 9 20 5 0 12 32 16 70 4 39 11 70 16 70 5 0 9 38 9 85 0 94 -16
125 -64 125 -13 0 -27 6 -29 13 -4 10 -6 10 -6 0z"/>
<path d="M2560 7810 c0 -5 -18 -10 -40 -10 -22 0 -40 -4 -40 -10 0 -5 -16 -10
-35 -10 -19 0 -35 -4 -35 -9 0 -4 -19 -11 -42 -14 -24 -3 -44 -11 -46 -16 -2
-6 -12 -11 -23 -11 -10 0 -19 -4 -19 -10 0 -5 -5 -10 -11 -10 -6 0 -17 -6 -24
-12 -30 -27 -44 -38 -50 -38 -8 0 -105 -97 -105 -105 0 -4 -7 -13 -15 -21 -8
-9 -15 -24 -15 -35 0 -10 -4 -19 -10 -19 -5 0 -10 -7 -10 -15 0 -8 -4 -15 -10
-15 -5 0 -10 -9 -10 -19 0 -11 -5 -21 -10 -23 -6 -2 -13 -33 -17 -71 -3 -37
-10 -67 -14 -67 -5 0 -9 -27 -9 -60 0 -33 4 -60 9 -60 4 0 11 -28 14 -62 3
-34 10 -64 16 -66 6 -2 11 -10 11 -18 0 -8 5 -14 10 -14 6 0 10 -7 10 -15 0
-18 105 -125 123 -125 7 0 19 -9 27 -20 8 -11 29 -23 47 -26 18 -3 33 -10 33
-15 0 -5 7 -9 15 -9 8 0 15 -4 15 -10 0 -5 9 -10 20 -10 11 0 20 -4 20 -10 0
-5 11 -10 25 -10 14 0 25 -4 25 -10 0 -5 16 -12 35 -16 75 -14 29 -24 -110
-24 l-146 0 -29 -30 c-23 -24 -30 -40 -30 -70 0 -22 5 -40 10 -40 6 0 10 -9
10 -20 0 -14 9 -21 33 -25 17 -3 210 -5 428 -3 452 3 429 -1 429 87 0 28 -4
51 -10 51 -5 0 -10 7 -10 15 0 8 -9 15 -20 15 -11 0 -20 5 -20 10 0 6 -7 10
-15 10 -8 0 -15 4 -15 9 0 6 -20 13 -45 17 -25 3 -45 10 -45 15 0 5 -7 9 -15
9 -8 0 -15 5 -15 10 0 6 -9 10 -20 10 -11 0 -20 5 -20 10 0 6 -7 10 -15 10 -8
0 -15 4 -15 9 0 4 -19 11 -42 14 -24 3 -44 11 -46 16 -2 6 -12 11 -23 11 -10
0 -19 5 -19 10 0 6 -7 10 -15 10 -8 0 -15 4 -15 9 0 5 -20 12 -45 15 -25 4
-45 11 -45 17 0 5 -7 9 -15 9 -8 0 -15 5 -15 10 0 6 -9 10 -20 10 -11 0 -20 4
-20 9 0 5 -18 11 -40 15 -22 3 -40 11 -40 16 0 6 -8 10 -18 10 -10 0 -24 9
-32 20 -8 11 -19 20 -26 20 -18 0 -54 36 -54 54 0 9 -7 19 -15 22 -10 4 -15
20 -15 45 0 21 -4 39 -10 39 -5 0 -10 23 -10 50 0 28 5 50 10 50 6 0 10 16 10
35 0 19 4 35 9 35 5 0 11 13 14 30 8 40 137 169 177 177 17 3 30 9 30 14 0 5
7 9 15 9 8 0 15 5 15 10 0 6 9 10 19 10 11 0 21 6 24 13 6 18 528 18 535 0 2
-7 19 -13 38 -13 19 0 34 -4 34 -10 0 -5 11 -10 25 -10 14 0 25 -4 25 -9 0 -5
23 -12 50 -16 28 -4 50 -11 50 -16 0 -5 9 -9 20 -9 11 0 20 -4 20 -10 0 -5 11
-10 25 -10 14 0 25 -4 25 -10 0 -5 7 -10 15 -10 8 0 15 -4 15 -9 0 -5 16 -12
35 -15 19 -4 35 -11 35 -16 0 -6 8 -10 18 -10 10 0 24 -9 32 -20 8 -11 29 -23
47 -26 18 -3 33 -10 33 -15 0 -5 7 -9 15 -9 8 0 15 -4 15 -10 0 -5 9 -10 20
-10 11 0 20 -4 20 -10 0 -5 16 -12 35 -16 19 -3 35 -10 35 -15 0 -5 7 -9 15
-9 8 0 15 -4 15 -10 0 -5 9 -10 20 -10 11 0 20 -4 20 -9 0 -5 18 -11 40 -15
22 -3 40 -11 40 -16 0 -6 11 -10 25 -10 14 0 25 -4 25 -10 0 -5 14 -10 30 -10
17 0 30 -4 30 -10 0 -5 27 -12 60 -16 33 -4 60 -11 60 -15 0 -5 20 -9 45 -9
25 0 45 -4 45 -10 0 -6 27 -10 60 -10 33 0 60 -4 60 -10 0 -6 62 -10 165 -10
103 0 165 4 165 10 0 6 27 10 60 10 33 0 60 4 60 10 0 6 16 10 35 10 19 0 35
4 35 9 0 5 25 13 55 16 30 4 55 11 55 16 0 5 11 9 25 9 14 0 25 5 25 10 0 6 7
10 15 10 8 0 15 4 15 9 0 5 16 12 35 15 19 4 35 11 35 16 0 6 9 10 20 10 11 0
20 5 20 10 0 6 7 10 15 10 8 0 15 4 15 9 0 5 10 13 22 17 13 4 35 20 49 35 15
16 32 29 38 29 5 0 21 11 35 25 14 14 30 25 36 25 5 0 10 4 10 9 0 5 16 12 35
15 19 4 35 11 35 16 0 6 9 10 20 10 11 0 20 5 20 10 0 6 7 10 15 10 8 0 15 5
15 10 0 6 13 10 29 10 16 0 31 6 34 13 3 9 45 12 167 12 122 0 164 -3 168 -12
2 -7 17 -13 33 -13 16 0 29 -4 29 -10 0 -5 16 -10 35 -10 19 0 35 -4 35 -10 0
-5 7 -10 15 -10 8 0 15 -4 15 -9 0 -5 20 -12 45 -15 25 -4 45 -11 45 -17 0 -5
7 -9 15 -9 8 0 15 -4 15 -10 0 -5 9 -10 20 -10 11 0 20 -4 20 -9 0 -5 15 -13
32 -17 18 -3 40 -15 49 -25 9 -11 21 -19 28 -19 6 0 11 -4 11 -9 0 -5 16 -12
35 -15 19 -4 35 -11 35 -16 0 -6 9 -10 20 -10 11 0 20 -4 20 -10 0 -5 7 -10
15 -10 8 0 15 -4 15 -9 0 -5 11 -12 25 -15 14 -4 25 -11 25 -16 0 -6 9 -10 20
-10 11 0 20 -4 20 -10 0 -5 7 -10 15 -10 8 0 15 -4 15 -9 0 -5 16 -12 35 -15
19 -4 35 -11 35 -16 0 -6 11 -10 25 -10 14 0 25 -4 25 -10 0 -5 9 -10 20 -10
11 0 20 -4 20 -10 0 -5 7 -10 15 -10 8 0 15 -4 15 -9 0 -5 16 -12 35 -15 19
-4 35 -11 35 -16 0 -6 9 -10 20 -10 11 0 20 -4 20 -10 0 -5 11 -10 25 -10 14
0 25 -4 25 -9 0 -5 16 -12 35 -15 19 -4 35 -11 35 -16 0 -14 59 -12 75 3 8 6
21 18 30 25 16 13 19 58 9 110 -5 25 -12 31 -40 37 -19 3 -34 10 -34 15 0 6
-9 10 -20 10 -11 0 -20 5 -20 10 0 6 -7 10 -15 10 -8 0 -15 4 -15 9 0 6 -20
13 -45 17 -25 3 -45 10 -45 15 0 5 -9 9 -20 9 -11 0 -20 5 -20 10 0 6 -7 10
-15 10 -8 0 -15 4 -15 9 0 5 -16 12 -35 15 -19 4 -35 11 -35 16 0 6 -9 10 -20
10 -11 0 -20 5 -20 10 0 6 -7 10 -15 10 -8 0 -15 4 -15 9 0 5 -16 12 -35 15
-19 4 -35 11 -35 16 0 6 -9 10 -20 10 -11 0 -20 5 -20 10 0 6 -7 10 -15 10 -8
0 -15 4 -15 9 0 5 -16 12 -35 15 -19 4 -35 11 -35 16 0 6 -6 10 -13 10 -7 0
-19 9 -27 20 -8 11 -22 20 -32 20 -10 0 -18 4 -18 10 0 5 -16 12 -35 16 -21 4
-37 13 -40 25 -4 10 -15 19 -25 19 -10 0 -20 5 -22 11 -2 5 -22 13 -46 16 -23
3 -42 10 -42 14 0 5 -7 9 -15 9 -8 0 -15 5 -15 10 0 6 -11 10 -25 10 -14 0
-25 4 -25 9 0 5 -25 12 -55 16 -30 3 -55 11 -55 16 0 5 -16 9 -35 9 -19 0 -35
5 -35 10 0 6 -22 10 -50 10 -27 0 -50 5 -50 10 0 6 -37 10 -90 10 -53 0 -90
-4 -90 -10 0 -5 -18 -10 -40 -10 -22 0 -40 -4 -40 -10 0 -5 -16 -10 -35 -10
-19 0 -35 -4 -35 -9 0 -5 -25 -12 -55 -16 -30 -3 -55 -11 -55 -16 0 -5 -7 -9
-15 -9 -8 0 -15 -4 -15 -10 0 -5 -9 -10 -20 -10 -11 0 -20 -4 -20 -10 0 -5
-11 -12 -25 -16 -14 -3 -25 -10 -25 -15 0 -5 -9 -9 -19 -9 -11 0 -23 -9 -26
-20 -3 -11 -14 -20 -24 -20 -10 0 -27 -11 -37 -25 -10 -14 -26 -25 -36 -25 -9
0 -20 -9 -23 -20 -3 -11 -15 -20 -25 -20 -10 0 -25 -7 -34 -15 -8 -8 -19 -15
-25 -15 -6 0 -11 -4 -11 -10 0 -5 -9 -10 -20 -10 -11 0 -20 -4 -20 -9 0 -5
-18 -11 -40 -15 -22 -3 -40 -11 -40 -16 0 -6 -13 -10 -30 -10 -16 0 -30 -4
-30 -10 0 -5 -18 -10 -39 -10 -23 0 -41 -5 -44 -12 -6 -19 -518 -19 -525 0 -2
7 -20 12 -43 12 -21 0 -39 5 -39 10 0 6 -13 10 -30 10 -16 0 -30 4 -30 9 0 5
-22 12 -50 16 -27 4 -50 11 -50 16 0 5 -11 9 -25 9 -14 0 -25 5 -25 10 0 6 -9
10 -20 10 -11 0 -20 4 -20 9 0 5 -18 11 -40 15 -22 3 -40 11 -40 16 0 6 -9 10
-20 10 -11 0 -20 5 -20 10 0 6 -7 10 -15 10 -8 0 -15 5 -15 10 0 6 -9 10 -20
10 -11 0 -20 4 -20 10 0 5 -11 12 -25 16 -14 3 -25 10 -25 15 0 5 -9 9 -20 9
-11 0 -20 5 -20 10 0 6 -7 10 -15 10 -8 0 -15 4 -15 9 0 5 -16 12 -35 15 -19
4 -35 11 -35 16 0 6 -9 10 -20 10 -11 0 -20 5 -20 10 0 6 -7 10 -15 10 -8 0
-15 4 -15 9 0 6 -20 13 -45 17 -25 3 -45 10 -45 15 0 5 -7 9 -15 9 -8 0 -15 5
-15 10 0 6 -11 10 -25 10 -14 0 -25 4 -25 9 0 5 -29 13 -65 16 -36 4 -65 11
-65 16 0 5 -18 9 -40 9 -22 0 -40 5 -40 10 0 6 -25 10 -55 10 -30 0 -55 5 -55
10 0 6 -65 10 -175 10 -110 0 -175 -4 -175 -10z"/>
<path d="M578 7683 c-21 -2 -38 -8 -38 -14 0 -5 -11 -9 -25 -9 -14 0 -25 -4
-25 -10 0 -5 -9 -10 -20 -10 -11 0 -20 -4 -20 -10 0 -5 -16 -12 -35 -16 -21
-4 -37 -13 -40 -25 -4 -10 -13 -19 -21 -19 -18 0 -194 -176 -194 -194 0 -6 -9
-18 -20 -26 -11 -8 -20 -20 -20 -27 0 -7 -4 -13 -9 -13 -5 0 -12 -16 -15 -35
-4 -19 -11 -35 -16 -35 -6 0 -10 -9 -10 -20 0 -11 -4 -20 -10 -20 -5 0 -10
-11 -10 -24 0 -13 -6 -26 -12 -28 -19 -7 -19 -399 0 -405 6 -3 12 -11 12 -19
0 -8 5 -14 10 -14 6 0 10 -9 10 -20 0 -11 4 -20 10 -20 5 0 12 -15 15 -33 4
-19 16 -40 27 -48 11 -8 26 -20 32 -27 14 -17 51 -54 68 -68 7 -6 20 -21 28
-33 8 -11 22 -21 31 -21 9 0 19 -7 23 -15 3 -8 15 -15 26 -15 11 0 20 -4 20
-10 0 -5 7 -10 15 -10 8 0 15 -4 15 -10 0 -5 14 -10 30 -10 17 0 30 -4 30 -10
0 -5 27 -12 60 -16 33 -4 60 -11 60 -15 0 -5 90 -9 200 -9 112 0 200 4 200 9
0 5 47 12 105 16 58 4 105 11 105 16 0 5 16 9 35 9 19 0 35 5 35 10 0 6 16 10
35 10 19 0 35 4 35 9 0 5 23 12 50 16 28 4 50 11 50 16 0 5 9 9 20 9 11 0 20
5 20 10 0 6 7 10 15 10 8 0 15 5 15 10 0 6 9 10 20 10 11 0 20 4 20 10 0 5 16
12 35 16 21 4 37 13 40 25 4 10 13 19 21 19 24 0 114 97 121 130 3 17 9 30 14
30 5 0 9 7 9 15 0 8 5 15 10 15 6 0 10 40 10 100 0 60 -4 100 -10 100 -5 0
-10 11 -10 25 0 14 -4 25 -10 25 -5 0 -12 16 -16 35 -3 19 -10 35 -15 35 -5 0
-9 5 -9 10 0 6 -11 22 -25 36 -14 14 -25 34 -25 44 0 11 -4 20 -10 20 -5 0
-20 12 -33 26 -14 14 -29 31 -35 36 -5 6 -20 21 -33 34 -13 13 -30 29 -37 36
-33 34 -62 58 -67 58 -4 0 -13 6 -20 13 -31 27 -44 37 -51 37 -4 0 -14 8 -23
19 -9 10 -26 21 -38 25 -13 4 -23 12 -23 17 0 5 -6 9 -13 9 -7 0 -19 9 -27 20
-8 11 -22 20 -32 20 -10 0 -18 4 -18 10 0 5 -16 12 -35 16 -19 3 -35 10 -35
15 0 5 -7 9 -15 9 -8 0 -15 5 -15 10 0 6 -9 10 -20 10 -11 0 -20 4 -20 10 0 5
-18 13 -40 16 -22 4 -40 10 -40 15 0 5 -13 9 -30 9 -16 0 -30 5 -30 10 0 6
-11 10 -24 10 -13 0 -26 5 -28 11 -4 12 -221 21 -290 12z m128 -240 c-4 -32
-11 -59 -16 -61 -6 -2 -10 -17 -10 -33 0 -16 -4 -29 -10 -29 -5 0 -12 -16 -16
-35 -4 -21 -13 -37 -25 -40 -10 -4 -19 -13 -19 -21 0 -15 -72 -94 -85 -94 -10
0 -55 -48 -55 -59 0 -5 -6 -11 -12 -14 -9 -2 -13 -32 -13 -102 0 -70 4 -100
13 -103 6 -2 12 -19 12 -38 0 -19 5 -34 10 -34 6 0 10 -40 10 -99 0 -79 -3
-100 -15 -105 -20 -7 -75 4 -75 15 0 5 -5 9 -10 9 -20 0 -130 110 -130 130 0
5 -4 10 -9 10 -6 0 -13 20 -17 45 -3 25 -10 45 -15 45 -5 0 -9 52 -9 115 0 64
4 115 9 115 5 0 13 25 16 55 4 30 11 55 16 55 5 0 9 7 9 15 0 8 5 15 10 15 6
0 10 9 10 19 0 10 7 21 15 25 8 3 15 14 15 23 0 10 10 25 21 33 12 8 27 21 33
28 36 42 82 82 93 82 5 0 15 9 23 20 8 11 29 23 47 26 18 3 33 10 33 15 0 5
16 9 35 9 19 0 35 5 35 10 0 6 19 10 41 10 l42 0 -7 -57z m234 -3 c0 -5 11
-10 25 -10 14 0 25 -4 25 -10 0 -5 9 -10 20 -10 11 0 20 -4 20 -9 0 -5 15 -13
32 -17 18 -3 40 -15 49 -25 9 -11 21 -19 28 -19 6 0 11 -4 11 -10 0 -5 9 -10
20 -10 11 0 23 -7 26 -15 4 -8 14 -15 23 -15 9 0 25 -11 35 -25 10 -14 27 -25
37 -25 11 0 19 -4 19 -10 0 -12 48 -60 61 -60 13 0 129 -118 129 -131 0 -5 11
-20 25 -33 14 -13 25 -31 25 -40 0 -9 5 -16 10 -16 6 0 10 -7 10 -15 0 -8 5
-15 10 -15 6 0 10 -29 10 -68 0 -56 -3 -70 -20 -82 -11 -8 -20 -22 -20 -32 0
-10 -7 -18 -15 -18 -8 0 -25 -11 -39 -25 -14 -14 -30 -25 -36 -25 -5 0 -10 -4
-10 -9 0 -5 -16 -12 -35 -15 -19 -4 -35 -11 -35 -16 0 -6 -13 -10 -30 -10 -16
0 -30 -4 -30 -10 0 -5 -11 -10 -25 -10 -14 0 -25 -4 -25 -10 0 -5 -27 -12 -60
-16 -33 -4 -60 -11 -60 -15 0 -5 -20 -9 -45 -9 -25 0 -45 -4 -45 -10 0 -5 -22
-10 -50 -10 -27 0 -50 -4 -50 -10 0 -6 -57 -10 -150 -10 l-150 0 0 30 c0 17 5
30 10 30 6 0 10 47 10 120 0 66 -4 120 -9 120 -4 0 -11 30 -14 67 -4 37 -12
70 -18 74 -12 7 -3 22 29 52 7 7 18 18 25 25 48 52 59 62 67 62 6 0 10 9 10
19 0 11 7 26 15 35 8 8 15 19 15 25 0 6 5 11 10 11 6 0 10 9 10 20 0 11 4 20
10 20 5 0 12 16 16 35 3 19 10 35 15 35 5 0 9 16 9 35 0 19 5 35 10 35 6 0 10
14 10 30 0 33 17 59 38 60 6 0 12 -4 12 -10z"/>
<path d="M3018 7244 c-10 -3 -18 -14 -18 -25 0 -10 -4 -19 -10 -19 -5 0 -10
-20 -10 -45 0 -25 5 -45 10 -45 6 0 10 -7 10 -15 0 -8 7 -15 15 -15 8 0 15 -4
15 -10 0 -5 14 -10 30 -10 17 0 30 -4 30 -10 0 -5 11 -10 24 -10 13 0 26 -5
28 -11 2 -5 22 -13 46 -16 23 -3 42 -10 42 -14 0 -5 7 -9 15 -9 8 0 15 -4 15
-10 0 -5 11 -10 25 -10 14 0 25 -4 25 -9 0 -5 16 -12 35 -15 19 -4 35 -11 35
-16 0 -6 9 -10 20 -10 11 0 20 -4 20 -10 0 -5 7 -10 15 -10 8 0 15 -4 15 -9 0
-5 16 -12 35 -15 19 -4 35 -11 35 -16 0 -6 9 -10 20 -10 11 0 20 -4 20 -10 0
-5 7 -10 15 -10 8 0 15 -4 15 -10 0 -5 9 -10 20 -10 11 0 23 -7 26 -15 4 -8
15 -15 25 -15 10 0 19 -4 19 -10 0 -5 5 -10 11 -10 7 0 19 -8 28 -19 9 -10 30
-21 47 -25 16 -4 36 -16 44 -26 8 -11 18 -20 23 -20 5 0 15 -6 22 -12 30 -27
44 -38 50 -38 13 0 175 -170 175 -185 0 -8 4 -15 9 -15 12 0 20 -36 14 -60 -3
-11 -14 -20 -24 -20 -11 0 -19 -4 -19 -10 0 -5 -7 -10 -15 -10 -8 0 -15 -4
-15 -10 0 -5 -16 -10 -35 -10 -19 0 -35 -4 -35 -10 0 -7 -309 -10 -908 -10
-897 0 -908 0 -925 -20 -24 -29 -23 -104 3 -130 11 -11 27 -20 35 -20 8 0 15
-4 15 -10 0 -7 303 -10 890 -10 587 0 890 3 890 10 0 6 18 10 40 10 22 0 40 4
40 9 0 4 19 11 42 14 24 3 44 11 46 16 2 6 12 11 23 11 10 0 19 5 19 10 0 6 5
10 11 10 10 0 18 6 51 37 23 22 38 42 38 53 0 5 5 10 10 10 6 0 10 16 10 35 0
19 5 35 10 35 6 0 10 14 10 30 0 17 -4 30 -10 30 -5 0 -10 16 -10 35 0 19 -4
35 -10 35 -5 0 -10 7 -10 15 0 8 -4 15 -9 15 -5 0 -11 13 -14 29 -4 18 -14 32
-27 36 -11 3 -20 13 -20 21 0 19 -104 124 -122 124 -7 0 -20 9 -28 21 -31 43
-48 59 -64 59 -9 0 -19 7 -22 15 -4 8 -13 15 -21 15 -9 0 -23 8 -32 19 -9 10
-26 21 -38 25 -13 4 -23 12 -23 17 0 5 -7 9 -15 9 -8 0 -15 5 -15 10 0 6 -9
10 -19 10 -10 0 -21 7 -25 15 -3 8 -15 15 -26 15 -11 0 -20 5 -20 10 0 6 -7
10 -15 10 -8 0 -15 5 -15 10 0 6 -9 10 -20 10 -11 0 -20 4 -20 9 0 5 -15 13
-32 17 -18 3 -40 15 -49 25 -9 11 -26 19 -38 19 -11 0 -21 4 -21 10 0 5 -16
12 -35 16 -19 3 -35 10 -35 15 0 5 -7 9 -15 9 -8 0 -15 5 -15 10 0 6 -9 10
-20 10 -11 0 -20 5 -20 10 0 6 -7 10 -15 10 -8 0 -15 4 -15 9 0 4 -19 11 -42
14 -24 3 -44 11 -46 16 -2 6 -15 11 -28 11 -13 0 -24 5 -24 10 0 6 -11 10 -24
10 -13 0 -26 4 -28 9 -3 11 -114 22 -140 15z"/>
</g>
</svg>
