<?xml version="1.0" standalone="no"?>
<!DOCTYPE svg PUBLIC "-//W3C//DTD SVG 20010904//EN"
 "http://www.w3.org/TR/2001/REC-SVG-20010904/DTD/svg10.dtd">
<svg version="1.0" xmlns="http://www.w3.org/2000/svg"
 width="714.000000pt" height="1263.000000pt" viewBox="0 0 714.000000 1263.000000"
 preserveAspectRatio="xMidYMid meet">

<g transform="translate(0.000000,1263.000000) scale(0.100000,-0.100000)"
fill="#000000" stroke="none">
<path d="M1080 12620 c0 -5 -18 -10 -40 -10 -22 0 -40 -4 -40 -9 0 -5 -25 -12
-55 -16 -30 -3 -55 -11 -55 -16 0 -5 -7 -9 -15 -9 -8 0 -15 -4 -15 -10 0 -5
-9 -10 -20 -10 -11 0 -20 -4 -20 -9 0 -5 -10 -13 -22 -17 -13 -4 -30 -15 -39
-25 -9 -11 -19 -19 -23 -19 -14 0 -86 -67 -86 -80 0 -5 -9 -12 -20 -15 -11 -3
-20 -13 -20 -21 0 -14 -7 -24 -37 -59 -7 -7 -13 -18 -13 -24 0 -6 -4 -11 -10
-11 -5 0 -10 -9 -10 -20 0 -11 -4 -20 -10 -20 -5 0 -12 -16 -16 -35 -3 -19
-10 -35 -15 -35 -5 0 -9 -11 -9 -25 0 -14 -4 -25 -10 -25 -5 0 -10 -16 -10
-35 0 -19 -4 -35 -10 -35 -7 0 -10 -142 -10 -405 0 -263 3 -405 10 -405 6 0
10 -9 10 -20 0 -13 7 -20 20 -20 11 0 20 -4 20 -10 0 -5 20 -10 45 -10 37 0
51 6 73 27 l27 27 3 388 c2 238 7 388 12 388 6 0 10 18 10 40 0 22 5 40 10 40
6 0 10 7 10 15 0 8 4 15 9 15 5 0 12 15 15 33 3 18 15 39 26 47 11 8 20 18 20
23 0 18 89 107 107 107 5 0 15 9 23 20 8 11 20 20 27 20 7 0 13 4 13 9 0 6 20
13 45 17 25 3 45 10 45 15 0 5 16 9 35 9 19 0 35 5 35 10 0 6 35 10 85 10 50
0 85 -4 85 -10 0 -5 16 -10 35 -10 19 0 35 -4 35 -9 0 -4 18 -11 41 -14 23 -3
48 -14 58 -26 10 -12 22 -21 27 -21 5 0 16 -9 24 -20 8 -11 21 -20 29 -20 13
0 71 -53 71 -65 0 -6 11 -20 38 -50 6 -7 12 -18 12 -24 0 -6 5 -11 10 -11 6 0
10 -9 10 -19 0 -11 5 -21 11 -23 6 -2 14 -27 17 -56 2 -29 8 -52 13 -52 5 0 9
-474 9 -1085 0 -717 3 -1085 10 -1085 6 0 10 -7 10 -15 0 -8 4 -15 9 -15 5 0
13 -9 16 -20 3 -11 13 -20 21 -20 19 0 194 -174 194 -192 0 -8 9 -20 20 -28
11 -8 20 -20 20 -27 0 -7 5 -13 10 -13 6 0 10 -9 10 -19 0 -11 7 -26 15 -35 8
-8 15 -19 15 -25 0 -6 4 -11 9 -11 5 0 12 -20 15 -45 4 -25 11 -45 17 -45 5 0
9 -11 9 -25 0 -14 5 -25 10 -25 6 0 10 -15 10 -34 0 -19 6 -36 12 -38 18 -6
18 -420 1 -425 -7 -3 -13 -20 -13 -39 0 -19 -4 -34 -10 -34 -5 0 -10 -11 -10
-25 0 -14 -4 -25 -9 -25 -5 0 -12 -20 -15 -45 -4 -25 -11 -45 -17 -45 -5 0 -9
-7 -9 -15 0 -8 -4 -15 -9 -15 -5 0 -12 -15 -15 -33 -3 -18 -15 -39 -26 -47
-11 -8 -20 -20 -20 -27 0 -8 -16 -29 -35 -47 -19 -19 -35 -37 -35 -41 0 -14
-87 -105 -101 -105 -6 0 -23 -13 -38 -29 -14 -15 -36 -31 -49 -35 -12 -4 -22
-12 -22 -17 0 -5 -7 -9 -15 -9 -8 0 -15 -4 -15 -10 0 -5 -9 -10 -20 -10 -11 0
-20 -4 -20 -10 0 -5 -16 -12 -35 -16 -19 -3 -35 -10 -35 -15 0 -5 -7 -9 -15
-9 -8 0 -15 -4 -15 -10 0 -5 -13 -10 -30 -10 -16 0 -30 -4 -30 -10 0 -5 -15
-10 -34 -10 -19 0 -36 -6 -39 -12 -3 -10 -56 -13 -222 -13 -166 0 -219 3 -223
13 -2 6 -19 12 -38 12 -19 0 -34 5 -34 10 0 6 -11 10 -25 10 -14 0 -25 5 -25
10 0 6 -9 10 -20 10 -11 0 -20 4 -20 10 0 5 -16 12 -35 16 -19 3 -35 10 -35
15 0 5 -7 9 -15 9 -8 0 -15 5 -15 10 0 6 -9 10 -19 10 -10 0 -21 7 -25 15 -3
8 -14 15 -23 15 -10 0 -25 10 -33 21 -8 12 -21 27 -28 33 -7 6 -24 21 -37 33
-13 13 -29 23 -35 23 -5 0 -10 9 -10 19 0 11 -9 23 -20 26 -11 3 -20 10 -20
15 0 5 -11 20 -25 34 -14 14 -25 30 -25 36 0 5 -4 10 -9 10 -5 0 -13 10 -17
23 -4 12 -15 29 -25 38 -11 9 -19 24 -19 33 0 9 -4 16 -10 16 -5 0 -12 16 -16
35 -3 19 -10 35 -15 35 -5 0 -9 11 -9 25 0 14 -4 25 -10 25 -5 0 -10 11 -10
24 0 13 -4 26 -10 28 -5 2 -13 42 -16 91 -4 48 -11 87 -15 87 -5 0 -9 47 -9
105 0 58 4 105 9 105 4 0 11 39 15 88 3 48 11 89 16 90 6 2 10 15 10 28 0 13
5 24 10 24 6 0 10 9 10 20 0 11 4 20 9 20 5 0 11 17 14 38 4 21 15 44 27 52
11 8 20 22 20 32 0 10 4 18 9 18 5 0 12 11 15 25 4 14 11 25 16 25 6 0 10 9
10 19 0 11 9 23 20 26 11 3 20 10 20 15 0 5 12 20 26 33 27 26 31 29 70 68 31
32 52 49 59 49 3 0 18 12 33 27 l27 27 0 451 c0 409 -2 453 -17 468 -9 9 -24
17 -32 17 -9 0 -16 5 -16 10 0 21 -71 10 -96 -15 -14 -14 -29 -25 -34 -25 -6
0 -10 -153 -10 -400 0 -348 -2 -401 -15 -412 -9 -7 -26 -24 -39 -37 -13 -13
-28 -28 -34 -33 -73 -73 -102 -106 -102 -113 0 -4 -6 -13 -12 -20 -29 -32 -38
-45 -38 -52 0 -5 -9 -15 -20 -23 -11 -8 -23 -29 -26 -47 -3 -18 -10 -33 -15
-33 -5 0 -9 -7 -9 -15 0 -8 -4 -15 -10 -15 -5 0 -10 -9 -10 -20 0 -11 -4 -20
-9 -20 -5 0 -12 -16 -15 -35 -4 -19 -11 -35 -16 -35 -6 0 -10 -11 -10 -25 0
-14 -4 -25 -10 -25 -5 0 -10 -13 -10 -29 0 -16 -4 -31 -10 -33 -5 -1 -13 -49
-16 -105 -4 -57 -11 -103 -16 -103 -4 0 -8 -52 -8 -115 0 -63 4 -115 9 -115 4
0 11 -42 15 -92 3 -51 11 -94 16 -96 6 -2 10 -15 10 -28 0 -13 5 -24 10 -24 6
0 10 -13 10 -30 0 -16 4 -30 9 -30 5 0 12 -20 15 -45 4 -25 11 -45 17 -45 5 0
9 -7 9 -15 0 -8 5 -15 10 -15 6 0 10 -9 10 -19 0 -10 7 -21 15 -25 8 -3 15
-15 15 -26 0 -11 5 -20 10 -20 6 0 10 -5 10 -11 0 -7 8 -19 18 -28 11 -9 22
-28 26 -43 3 -16 11 -28 16 -28 12 0 60 -48 60 -61 0 -11 45 -59 55 -59 12 0
73 -57 95 -89 8 -11 23 -21 33 -21 9 0 20 -7 23 -15 4 -8 14 -15 23 -15 9 0
23 -9 31 -20 8 -11 29 -23 47 -26 18 -3 33 -10 33 -15 0 -5 7 -9 15 -9 8 0 15
-4 15 -10 0 -5 9 -10 20 -10 11 0 20 -4 20 -9 0 -5 18 -11 40 -15 22 -3 40
-11 40 -16 0 -6 13 -10 29 -10 17 0 31 -6 35 -16 3 -9 6 -362 6 -785 l0 -769
-130 0 c-80 0 -130 -4 -130 -10 0 -5 -5 -10 -11 -10 -14 0 -39 -25 -39 -39 0
-6 -4 -11 -10 -11 -6 0 -10 -128 -10 -364 0 -356 0 -365 20 -371 11 -3 20 -11
20 -16 0 -5 7 -9 15 -9 8 0 15 -4 15 -10 0 -7 848 -10 2525 -10 1677 0 2525 3
2525 10 0 6 5 10 11 10 14 0 39 25 39 39 0 6 5 11 10 11 6 0 10 16 10 35 0 19
-4 35 -10 35 -5 0 -10 9 -10 20 0 13 -9 22 -25 26 -14 3 -25 10 -25 15 0 5
-1024 9 -2455 9 l-2455 0 0 215 0 215 3090 0 3090 0 0 -215 0 -215 -360 0
c-204 0 -360 -4 -360 -9 0 -5 -11 -12 -25 -15 -16 -4 -25 -13 -25 -26 0 -11
-4 -20 -10 -20 -5 0 -10 -16 -10 -35 0 -19 5 -35 10 -35 6 0 10 -5 10 -11 0
-14 25 -39 39 -39 6 0 11 -4 11 -10 0 -7 150 -10 430 -10 280 0 430 3 430 10
0 6 9 10 20 10 13 0 22 9 26 25 3 14 10 25 15 25 5 0 9 154 9 355 0 201 -4
355 -9 355 -5 0 -12 11 -15 25 -4 16 -13 25 -26 25 -11 0 -20 5 -20 10 0 6
-50 10 -130 10 l-130 0 0 2600 0 2600 130 0 c80 0 130 4 130 10 0 6 9 10 20
10 15 0 22 9 27 30 3 17 9 30 14 30 5 0 9 157 9 350 0 209 -4 350 -9 350 -5 0
-11 10 -13 23 -2 14 -11 23 -25 25 -13 2 -23 8 -23 13 0 5 -1019 9 -2641 9
-2784 0 -2669 -2 -2669 40 0 17 -106 120 -124 120 -8 0 -18 9 -21 20 -3 11
-15 20 -25 20 -10 0 -25 7 -34 15 -8 8 -19 15 -25 15 -6 0 -11 5 -11 10 0 6
-9 10 -20 10 -11 0 -20 4 -20 9 0 5 -22 12 -50 16 -27 4 -50 11 -50 16 0 5
-20 9 -45 9 -25 0 -45 5 -45 10 0 6 -42 10 -105 10 -63 0 -105 -4 -105 -10z
m5850 -730 l0 -210 -2505 0 -2505 0 0 165 c0 103 -4 165 -10 165 -5 0 -10 20
-10 45 l0 45 2515 0 2515 0 0 -210z m-4330 -735 l0 -295 -340 0 -340 0 0 295
0 295 340 0 340 0 0 -295z m1070 0 l0 -295 -430 0 -430 0 0 295 0 295 430 0
430 0 0 -295z m1040 10 l0 -285 -200 0 c-127 0 -200 -4 -200 -10 0 -5 -6 -10
-13 -10 -20 0 -57 -35 -57 -54 0 -9 -4 -16 -10 -16 -7 0 -10 -468 -10 -1385 0
-917 3 -1385 10 -1385 6 0 10 -5 10 -10 0 -14 46 -60 60 -60 5 0 10 -4 10 -10
0 -6 73 -10 200 -10 l200 0 0 -835 0 -835 -425 0 -425 0 0 896 0 897 -22 18
c-11 11 -27 19 -35 19 -7 0 -13 5 -13 10 0 6 -16 10 -35 10 -19 0 -35 -4 -35
-9 0 -5 -10 -11 -22 -13 -15 -2 -24 -11 -26 -25 -2 -13 -8 -23 -13 -23 -5 0
-9 -348 -9 -890 l0 -890 -840 0 -840 0 0 910 c0 571 4 910 10 910 12 0 80 72
80 85 0 6 13 23 36 48 6 7 21 19 33 27 11 8 21 22 21 31 0 10 7 24 15 33 8 8
15 19 15 25 0 6 5 11 10 11 6 0 10 9 10 19 0 10 7 21 15 25 8 3 15 15 15 26 0
11 5 20 10 20 6 0 10 7 10 15 0 8 5 15 10 15 6 0 10 13 10 29 0 16 5 31 11 33
5 2 13 22 16 46 3 23 10 42 14 42 5 0 9 11 9 25 0 14 5 25 10 25 6 0 10 20 10
44 0 27 5 46 13 49 9 3 12 57 12 227 0 170 -3 224 -12 228 -7 2 -13 19 -13 38
0 19 -4 34 -10 34 -5 0 -10 16 -10 35 0 19 -4 35 -9 35 -5 0 -11 18 -15 40 -3
22 -11 40 -16 40 -6 0 -10 9 -10 20 0 11 -4 20 -10 20 -5 0 -10 9 -10 20 0 11
-4 20 -10 20 -5 0 -12 16 -16 35 -3 19 -10 35 -15 35 -5 0 -9 6 -9 13 0 7 -9
19 -20 27 -11 8 -20 20 -20 27 0 7 -11 23 -25 37 -14 14 -25 28 -25 31 0 8
-17 29 -82 96 l-58 59 0 390 0 390 840 0 840 0 0 -1010 0 -1009 30 -31 c25
-25 37 -30 79 -30 40 0 51 4 56 19 3 11 15 23 26 26 19 6 19 28 19 1421 l0
1414 425 0 425 0 0 -285z m1070 0 l0 -285 -430 0 -430 0 0 285 0 285 430 0
430 0 0 -285z m820 0 l0 -285 -305 0 -305 0 0 285 0 285 305 0 305 0 0 -285z
m-40 -1755 l0 -1260 -1049 0 c-577 0 -1056 3 -1065 6 -14 6 -16 125 -16 1245
0 978 3 1243 13 1254 10 12 168 14 1065 15 l1052 0 0 -1260z m-780 -2309 c0
-747 -2 -829 -16 -835 -20 -8 -808 -8 -828 0 -14 6 -16 88 -16 835 l0 829 430
0 430 0 0 -829z m820 -6 l0 -835 -305 0 -305 0 0 835 0 835 305 0 305 0 0
-835z m-4842 -2 l-3 -828 -337 -3 -338 -2 0 758 0 759 172 5 c112 4 174 10
176 17 2 6 19 11 38 11 19 0 34 5 34 10 0 6 16 10 35 10 19 0 35 4 35 9 0 5
20 12 45 15 25 4 45 11 45 17 0 5 7 9 15 9 8 0 15 5 15 10 0 6 9 10 20 10 11
0 20 5 20 10 0 6 7 10 15 10 13 0 15 -96 13 -827z"/>
<path d="M1113 11965 c-7 -8 -13 -21 -13 -30 0 -8 -4 -15 -10 -15 -6 0 -10
-45 -10 -114 l0 -113 -66 -6 c-36 -2 -68 -7 -71 -10 -3 -3 -7 -34 -10 -69 -4
-53 -2 -67 15 -85 10 -13 27 -23 36 -23 9 0 16 -4 16 -10 0 -5 18 -10 40 -10
l40 0 0 -245 0 -245 -40 0 c-22 0 -40 -4 -40 -10 0 -5 -7 -10 -15 -10 -58 0
-78 -116 -30 -165 21 -20 36 -25 75 -25 l50 0 0 -250 0 -250 -35 0 c-19 0 -35
-4 -35 -10 0 -5 -11 -10 -24 -10 -40 0 -56 -25 -56 -89 0 -75 20 -101 79 -101
74 0 71 21 71 -450 0 -352 -2 -424 -14 -436 -8 -8 -17 -14 -21 -14 -12 0 -65
-61 -65 -75 0 -8 -4 -15 -10 -15 -5 0 -10 -7 -10 -15 0 -8 -4 -15 -10 -15 -6
0 -10 -37 -10 -90 0 -53 4 -90 10 -90 6 0 10 -9 10 -20 0 -11 5 -20 10 -20 6
0 10 -7 10 -15 0 -8 4 -15 9 -15 5 0 13 -9 16 -20 4 -11 15 -20 26 -20 11 0
22 -7 25 -15 4 -8 15 -15 25 -15 10 0 19 -4 19 -10 0 -6 33 -10 80 -10 47 0
80 4 80 10 0 6 11 10 25 10 14 0 25 4 25 9 0 5 10 13 22 17 32 10 68 50 74 84
4 16 10 30 15 30 5 0 9 41 9 90 0 50 -4 90 -10 90 -5 0 -12 16 -16 35 -3 19
-10 35 -15 35 -4 0 -19 11 -33 25 -14 14 -28 25 -31 25 -4 0 -13 6 -21 14 -12
12 -14 84 -14 436 0 470 -3 450 70 450 40 0 70 17 70 39 0 6 5 11 10 11 6 0
10 23 10 51 0 58 -24 89 -67 89 -12 0 -23 5 -23 10 0 6 -16 10 -35 10 l-35 0
0 250 0 250 48 0 c66 0 92 9 92 31 0 11 5 19 10 19 6 0 10 24 10 54 0 45 -3
56 -19 61 -11 3 -23 15 -26 26 -5 16 -16 19 -61 19 l-54 0 0 245 0 245 45 0
c25 0 45 5 45 10 0 6 5 10 10 10 6 0 22 11 35 25 19 18 25 35 25 70 0 25 -4
45 -10 45 -5 0 -10 8 -10 19 0 22 -26 31 -92 31 l-48 0 0 115 c0 63 -4 115 -9
115 -5 0 -11 14 -14 30 -6 30 -7 30 -74 30 -46 -1 -72 -5 -80 -15z"/>
</g>
</svg>
