<?xml version="1.0" standalone="no"?>
<!DOCTYPE svg PUBLIC "-//W3C//DTD SVG 20010904//EN"
 "http://www.w3.org/TR/2001/REC-SVG-20010904/DTD/svg10.dtd">
<svg version="1.0" xmlns="http://www.w3.org/2000/svg"
 width="714.000000pt" height="1263.000000pt" viewBox="0 0 714.000000 1263.000000"
 preserveAspectRatio="xMidYMid meet">

<g transform="translate(0.000000,1263.000000) scale(0.100000,-0.100000)"
fill="#000000" stroke="none">
<path d="M3320 12620 c0 -6 -60 -10 -160 -10 -88 0 -160 -4 -160 -9 0 -4 -57
-11 -127 -15 -71 -4 -129 -11 -131 -17 -2 -5 -24 -9 -48 -9 -24 0 -44 -4 -44
-10 0 -5 -16 -10 -35 -10 -19 0 -35 -4 -35 -9 0 -4 -27 -11 -60 -15 -33 -4
-60 -11 -60 -16 0 -6 -11 -10 -25 -10 -14 0 -25 -4 -25 -10 0 -5 -11 -10 -25
-10 -14 0 -25 -4 -25 -9 0 -6 -20 -13 -45 -17 -25 -3 -45 -10 -45 -15 0 -5 -9
-9 -20 -9 -11 0 -20 -4 -20 -10 0 -5 -7 -10 -15 -10 -8 0 -15 -4 -15 -9 0 -5
-16 -12 -35 -15 -19 -4 -35 -11 -35 -16 0 -6 -9 -10 -20 -10 -11 0 -20 -4 -20
-10 0 -5 -5 -10 -11 -10 -7 0 -19 -8 -28 -19 -9 -10 -26 -21 -38 -25 -13 -4
-23 -12 -23 -17 0 -5 -6 -9 -13 -9 -7 0 -19 -9 -27 -20 -8 -11 -23 -20 -33
-20 -9 0 -20 -7 -23 -15 -4 -8 -13 -15 -20 -15 -8 0 -36 -21 -61 -47 -28 -30
-48 -43 -51 -35 -2 7 -10 19 -18 26 -8 8 -14 19 -14 25 0 6 -4 11 -10 11 -5 0
-10 9 -10 20 0 11 -4 20 -10 20 -5 0 -12 16 -16 35 -4 21 -13 37 -25 40 -10 4
-19 15 -19 26 0 10 -4 19 -9 19 -5 0 -12 16 -15 35 -4 19 -11 35 -16 35 -6 0
-10 9 -10 20 0 11 -4 20 -10 20 -5 0 -10 7 -10 15 0 8 -4 15 -10 15 -5 0 -12
11 -16 25 -3 14 -10 25 -15 25 -5 0 -9 9 -9 20 0 11 -4 20 -10 20 -5 0 -10 5
-10 11 0 14 -25 39 -39 39 -6 0 -11 -7 -11 -15 0 -8 -4 -15 -10 -15 -5 0 -10
-9 -10 -20 0 -11 -4 -20 -10 -20 -5 0 -12 -16 -16 -35 -3 -19 -10 -35 -15 -35
-5 0 -9 -5 -9 -11 0 -7 -8 -19 -19 -28 -10 -9 -22 -31 -25 -49 -4 -17 -12 -32
-17 -32 -5 0 -9 -9 -9 -20 0 -11 -4 -20 -10 -20 -5 0 -10 -7 -10 -15 0 -8 -4
-15 -10 -15 -5 0 -10 -9 -10 -19 0 -11 -7 -26 -15 -35 -8 -8 -15 -19 -15 -25
0 -6 -4 -11 -10 -11 -5 0 -10 -9 -10 -20 0 -11 -4 -20 -10 -20 -5 0 -12 -16
-16 -35 -3 -19 -10 -35 -15 -35 -5 0 -9 -5 -9 -10 0 -14 -46 -60 -60 -60 -5 0
-10 -4 -10 -9 0 -5 -16 -12 -35 -15 -19 -4 -35 -11 -35 -16 0 -6 -5 -10 -11
-10 -7 0 -19 -8 -28 -19 -9 -10 -31 -22 -49 -25 -17 -4 -32 -12 -32 -17 0 -5
-9 -9 -20 -9 -11 0 -20 -4 -20 -10 0 -5 -7 -10 -15 -10 -8 0 -15 -4 -15 -10 0
-5 -9 -10 -20 -10 -11 0 -23 -7 -26 -15 -4 -8 -15 -15 -25 -15 -10 0 -19 -4
-19 -10 0 -5 -7 -10 -15 -10 -8 0 -15 -4 -15 -9 0 -5 -16 -12 -35 -15 -19 -4
-35 -11 -35 -16 0 -6 -8 -10 -18 -10 -10 0 -24 -9 -32 -20 -8 -11 -20 -20 -27
-20 -23 0 -14 -18 12 -24 14 -4 25 -11 25 -16 0 -6 9 -10 20 -10 11 0 20 -4
20 -10 0 -5 7 -10 15 -10 8 0 15 -4 15 -9 0 -5 15 -12 33 -15 18 -3 39 -15 47
-26 8 -11 20 -20 27 -20 7 0 13 -4 13 -9 0 -5 15 -12 33 -15 18 -3 39 -15 47
-26 8 -11 22 -20 32 -20 10 0 18 -4 18 -10 0 -5 7 -10 15 -10 8 0 15 -4 15
-10 0 -5 9 -10 20 -10 11 0 23 -7 26 -15 4 -8 15 -15 25 -15 10 0 19 -4 19
-10 0 -5 7 -10 15 -10 8 0 15 -4 15 -10 0 -5 9 -10 20 -10 11 0 23 -7 26 -15
4 -8 15 -15 25 -15 10 0 19 -4 19 -10 0 -5 -4 -10 -10 -10 -5 0 -10 -7 -10
-15 0 -8 -4 -15 -9 -15 -5 0 -12 -16 -15 -35 -4 -19 -11 -35 -16 -35 -6 0 -10
-13 -10 -30 0 -16 -4 -30 -10 -30 -5 0 -10 -7 -10 -15 0 -8 -4 -15 -9 -15 -5
0 -13 -29 -16 -65 -4 -36 -11 -65 -16 -65 -5 0 -9 -16 -9 -35 0 -19 -4 -35 -9
-35 -5 0 -12 -38 -16 -85 -4 -47 -11 -85 -16 -85 -5 0 -9 -31 -9 -70 0 -40 -4
-70 -10 -70 -6 0 -10 -37 -10 -90 0 -53 -4 -90 -10 -90 -7 0 -10 -265 -10
-775 0 -510 3 -775 10 -775 6 0 10 -28 10 -65 0 -37 4 -65 10 -65 6 0 10 -11
10 -25 0 -14 4 -25 9 -25 4 0 11 -24 14 -52 4 -29 11 -54 17 -56 5 -2 10 -10
10 -18 0 -8 4 -14 9 -14 5 0 12 -16 15 -35 4 -19 11 -35 16 -35 6 0 10 -9 10
-20 0 -11 5 -20 10 -20 6 0 10 -5 10 -11 0 -6 6 -17 12 -24 27 -30 38 -44 38
-50 0 -5 26 -36 58 -67 41 -41 60 -61 80 -83 12 -14 28 -25 35 -25 7 0 19 -9
27 -20 8 -11 22 -20 31 -20 21 0 29 -28 29 -102 0 -32 5 -58 10 -58 6 0 10
-22 10 -50 0 -27 5 -50 10 -50 6 0 10 -16 10 -35 0 -19 4 -35 9 -35 5 0 12
-34 16 -75 4 -41 11 -75 16 -75 5 0 9 -16 9 -35 0 -19 5 -35 10 -35 6 0 10
-11 10 -25 0 -14 4 -25 9 -25 5 0 12 -22 16 -50 4 -27 11 -50 16 -50 5 0 9 -9
9 -20 0 -11 5 -20 10 -20 6 0 10 -11 10 -25 0 -14 4 -25 9 -25 6 0 13 -20 17
-45 3 -25 10 -45 15 -45 5 0 9 -9 9 -20 0 -11 5 -20 10 -20 6 0 10 -7 10 -15
0 -8 4 -15 9 -15 5 0 12 -16 15 -35 4 -19 11 -35 16 -35 6 0 10 -9 10 -20 0
-11 5 -20 10 -20 6 0 10 -7 10 -15 0 -8 4 -15 9 -15 5 0 12 -15 15 -33 3 -18
15 -39 26 -47 11 -8 20 -22 20 -32 0 -10 4 -18 9 -18 5 0 12 -11 15 -25 4 -14
11 -25 16 -25 6 0 10 -5 10 -11 0 -7 8 -19 18 -28 11 -9 22 -28 26 -43 3 -16
11 -28 16 -28 6 0 10 -6 10 -13 0 -7 9 -19 20 -27 11 -8 20 -20 20 -27 0 -7
11 -23 25 -37 14 -14 25 -28 25 -31 0 -7 14 -24 48 -60 12 -13 22 -29 22 -34
0 -13 356 -371 369 -371 6 0 22 -11 36 -25 l25 -26 0 -369 0 -370 105 0 105 0
0 290 c0 187 4 290 10 290 6 0 10 -4 10 -9 0 -5 15 -12 33 -15 18 -3 39 -15
47 -26 8 -11 20 -20 27 -20 7 0 13 -4 13 -9 0 -5 16 -12 35 -15 19 -4 35 -11
35 -16 0 -6 9 -10 20 -10 11 0 20 -4 20 -10 0 -5 7 -10 15 -10 8 0 15 -4 15
-9 0 -5 16 -12 35 -15 19 -4 35 -11 35 -16 0 -6 9 -10 20 -10 11 0 20 -4 20
-10 0 -5 7 -10 15 -10 8 0 15 -4 15 -9 0 -5 20 -12 45 -15 25 -4 45 -11 45
-17 0 -5 11 -9 25 -9 14 0 25 -4 25 -10 0 -5 11 -10 25 -10 14 0 25 -4 25 -10
0 -5 14 -10 30 -10 17 0 30 -4 30 -10 0 -5 27 -12 60 -16 33 -4 60 -11 60 -15
0 -5 23 -9 50 -9 28 0 50 4 50 9 0 5 29 12 65 16 36 3 65 11 65 16 0 5 11 9
25 9 14 0 25 5 25 10 0 6 11 10 25 10 14 0 25 5 25 10 0 6 11 10 25 10 14 0
25 4 25 9 0 6 20 13 45 17 25 3 45 10 45 15 0 5 9 9 20 9 11 0 20 5 20 10 0 6
6 10 14 10 8 0 16 5 18 11 2 5 22 13 45 16 30 4 44 11 48 24 4 11 15 19 26 19
10 0 19 4 19 10 0 5 16 12 35 16 19 3 35 10 35 15 0 5 7 9 15 9 8 0 15 5 15
10 0 6 9 10 20 10 11 0 20 4 20 10 0 5 11 12 25 16 14 3 25 10 25 15 0 5 5 9
10 9 6 0 10 -103 10 -290 l0 -290 105 0 105 0 0 370 c0 222 4 370 9 370 5 0
13 9 16 20 4 13 18 23 36 27 16 3 29 9 29 14 0 7 24 33 62 65 7 6 20 21 28 33
8 11 20 21 27 21 15 0 123 106 123 121 0 6 7 18 16 26 13 14 17 14 25 2 5 -8
9 -22 9 -31 0 -10 5 -18 10 -18 6 0 10 -7 10 -15 0 -8 5 -15 10 -15 6 0 10 -9
10 -20 0 -11 4 -20 9 -20 5 0 12 -11 15 -25 4 -14 11 -25 16 -25 6 0 10 -9 10
-20 0 -11 4 -20 10 -20 5 0 12 -16 16 -35 3 -19 10 -35 15 -35 5 0 9 -6 9 -13
0 -7 9 -19 20 -27 11 -8 23 -29 26 -47 3 -18 10 -33 15 -33 5 0 9 -7 9 -15 0
-8 5 -15 10 -15 6 0 10 -9 10 -20 0 -11 7 -20 15 -20 8 0 15 9 15 19 0 11 9
23 20 26 11 3 20 15 20 26 0 10 4 19 10 19 5 0 12 16 16 35 3 19 10 35 15 35
5 0 9 7 9 15 0 8 5 15 10 15 6 0 10 9 10 20 0 11 4 20 10 20 5 0 12 11 16 25
3 14 10 25 15 25 5 0 9 9 9 20 0 11 5 20 10 20 6 0 10 7 10 15 0 8 4 15 9 15
5 0 12 15 15 33 3 18 15 39 26 47 11 8 20 22 20 32 0 10 4 18 10 18 5 0 12 16
16 35 3 19 10 35 15 35 5 0 9 7 9 15 0 8 9 15 19 15 11 0 23 9 26 20 3 11 15
20 26 20 10 0 19 4 19 10 0 5 16 12 35 16 19 3 35 10 35 15 0 5 7 9 15 9 8 0
15 5 15 10 0 6 9 10 20 10 11 0 20 4 20 10 0 5 11 12 25 16 14 3 25 10 25 15
0 5 9 9 20 9 11 0 20 5 20 10 0 6 7 10 15 10 8 0 15 4 15 9 0 5 15 12 33 15
18 3 39 15 47 26 8 11 20 20 27 20 7 0 13 5 13 10 0 6 9 10 20 10 11 0 20 4
20 10 0 5 15 12 34 16 35 6 49 23 40 48 -3 8 -21 17 -40 20 -19 4 -34 11 -34
16 0 6 -9 10 -19 10 -11 0 -22 9 -26 19 -3 12 -19 21 -40 25 -19 4 -35 11 -35
16 0 6 -9 10 -20 10 -11 0 -20 5 -20 10 0 6 -7 10 -15 10 -8 0 -15 5 -15 10 0
6 -9 10 -19 10 -11 0 -26 7 -35 15 -8 8 -19 15 -25 15 -6 0 -11 5 -11 10 0 6
-9 10 -20 10 -11 0 -20 5 -20 10 0 6 -7 10 -15 10 -8 0 -15 4 -15 9 0 5 -15
12 -33 15 -18 3 -39 15 -47 26 -8 11 -20 20 -27 20 -7 0 -13 5 -13 10 0 6 -9
10 -20 10 -11 0 -20 6 -20 14 0 8 -6 16 -12 18 -17 6 -16 130 0 136 7 2 12 12
12 23 0 10 5 19 10 19 6 0 10 11 10 25 0 14 4 25 9 25 5 0 13 25 16 55 4 30
11 55 16 55 5 0 9 16 9 35 0 19 5 35 10 35 6 0 10 16 10 35 0 19 4 35 9 35 5
0 12 32 16 70 4 39 11 70 16 70 5 0 9 23 9 50 0 28 5 50 10 50 6 0 10 25 10
55 0 30 5 55 10 55 6 0 10 11 10 23 0 26 30 67 49 67 6 0 27 16 45 35 19 19
37 35 41 35 8 0 55 47 55 55 0 4 6 13 13 20 6 8 17 20 23 27 6 7 21 20 33 28
11 8 21 23 21 33 0 9 7 20 15 23 8 4 15 15 15 25 0 10 5 19 10 19 6 0 10 7 10
15 0 8 4 15 9 15 5 0 12 18 16 40 4 22 11 40 16 40 5 0 9 7 9 15 0 8 4 15 10
15 5 0 12 27 16 60 4 33 11 60 15 60 5 0 9 20 9 45 0 25 5 45 10 45 7 0 10
295 10 865 0 570 -3 865 -10 865 -6 0 -10 30 -10 70 l0 70 -37 0 c-21 0 -68
-3 -105 -7 l-68 -6 0 -73 c0 -43 4 -74 10 -74 7 0 10 -195 10 -565 l0 -565
-105 0 -105 0 0 55 c0 30 -4 55 -8 55 -5 0 -12 82 -16 183 -4 102 -11 183 -16
185 -6 2 -10 28 -10 58 0 30 -4 54 -10 54 -5 0 -10 16 -10 35 0 19 -4 35 -9
35 -5 0 -12 32 -16 70 -4 39 -11 70 -16 70 -5 0 -9 11 -9 25 0 14 -4 25 -10
25 -5 0 -10 14 -10 30 0 17 -4 30 -9 30 -5 0 -12 23 -16 50 -4 28 -11 50 -16
50 -5 0 -9 9 -9 20 0 11 -4 20 -10 20 -5 0 -10 11 -10 25 0 14 -4 25 -10 25
-5 0 -12 16 -16 35 -3 19 -10 35 -15 35 -5 0 -9 9 -9 20 0 11 -4 20 -10 20 -5
0 -10 7 -10 15 0 8 -4 15 -9 15 -5 0 -12 15 -15 33 -3 18 -15 39 -26 47 -11 8
-20 20 -20 27 0 7 -4 13 -10 13 -5 0 -10 9 -10 19 0 11 -7 26 -15 35 -8 8 -15
18 -15 23 0 5 -9 15 -20 23 -11 8 -20 22 -20 31 0 9 -11 25 -25 35 -14 10 -25
24 -25 31 0 7 -20 33 -45 57 -25 25 -45 49 -45 55 0 6 -11 20 -25 33 -38 35
-43 41 -74 76 -16 17 -34 32 -40 32 -9 0 -20 10 -68 62 -18 20 -41 38 -48 38
-3 0 -17 11 -31 25 -14 14 -30 25 -37 25 -7 0 -19 9 -27 20 -8 11 -22 20 -31
20 -9 0 -19 7 -23 15 -3 8 -15 15 -26 15 -11 0 -20 5 -20 10 0 6 -7 10 -15 10
-8 0 -15 5 -15 10 0 6 -9 10 -20 10 -11 0 -20 5 -20 10 0 6 -7 10 -15 10 -8 0
-15 4 -15 9 0 5 -16 12 -35 15 -19 4 -35 11 -35 16 0 6 -9 10 -20 10 -11 0
-20 5 -20 10 0 6 -7 10 -15 10 -8 0 -15 4 -15 9 0 4 -19 11 -42 14 -24 3 -44
11 -46 16 -2 6 -15 11 -28 11 -13 0 -24 5 -24 10 0 6 -13 10 -30 10 -16 0 -30
4 -30 9 0 5 -31 12 -70 16 -38 4 -70 11 -70 16 0 5 -16 9 -35 9 -19 0 -35 5
-35 10 0 6 -18 10 -40 10 -22 0 -40 5 -40 10 0 6 -33 10 -80 10 -47 0 -80 4
-80 10 0 6 -93 10 -259 10 -217 0 -262 2 -275 15 -8 8 -21 15 -30 15 -8 0 -18
10 -22 22 -4 13 -20 35 -36 50 -20 19 -32 41 -35 68 -3 22 -10 40 -14 40 -5 0
-9 47 -9 105 0 58 4 105 9 105 5 0 12 20 15 44 5 32 13 47 27 51 10 4 19 15
19 26 0 10 4 19 9 19 5 0 13 9 16 20 4 13 18 23 36 27 16 3 29 9 29 14 0 5
193 9 435 9 239 0 435 -4 435 -9 0 -4 46 -11 103 -15 56 -4 104 -11 105 -17 2
-5 19 -9 38 -9 19 0 34 -4 34 -10 0 -5 11 -10 25 -10 14 0 25 -4 25 -10 0 -5
16 -10 35 -10 19 0 35 -4 35 -9 0 -5 20 -12 45 -15 25 -4 45 -11 45 -17 0 -5
11 -9 25 -9 14 0 25 -4 25 -10 0 -5 9 -10 20 -10 11 0 20 -4 20 -10 0 -5 16
-12 35 -16 19 -3 35 -10 35 -15 0 -5 7 -9 15 -9 8 0 15 -4 15 -10 0 -5 9 -10
20 -10 11 0 20 -4 20 -10 0 -5 16 -12 35 -16 21 -4 37 -13 40 -25 4 -10 15
-19 26 -19 10 0 19 -4 19 -9 0 -5 11 -12 25 -15 14 -4 25 -11 25 -16 0 -6 5
-10 11 -10 6 0 24 -13 39 -30 15 -16 33 -30 39 -30 6 0 26 -16 45 -35 20 -19
40 -35 45 -35 6 0 21 -12 34 -26 14 -14 29 -31 35 -36 5 -6 21 -21 35 -35 14
-14 29 -30 35 -35 81 -81 102 -106 102 -118 0 -5 4 -10 9 -10 5 0 12 -9 16
-19 3 -11 15 -23 26 -26 10 -4 19 -15 19 -26 0 -10 4 -19 9 -19 5 0 13 -10 17
-22 4 -13 15 -30 25 -39 11 -9 19 -23 19 -32 0 -8 7 -17 15 -21 8 -3 15 -15
15 -26 0 -11 5 -20 10 -20 6 0 10 -5 10 -11 0 -7 8 -19 19 -28 10 -9 22 -31
25 -49 7 -27 12 -32 37 -32 16 0 29 4 29 10 0 5 16 12 35 16 19 3 35 10 35 15
0 5 7 9 15 9 8 0 15 5 15 10 0 6 9 10 20 10 15 0 20 7 20 25 0 14 -4 25 -10
25 -5 0 -10 9 -10 19 0 11 -9 22 -19 26 -13 4 -22 19 -26 45 -4 22 -11 40 -16
40 -5 0 -9 6 -9 13 0 7 -9 19 -20 27 -11 8 -20 20 -20 27 0 7 -11 23 -25 37
-14 14 -25 28 -25 31 0 6 -11 20 -37 50 -7 7 -13 20 -13 29 0 8 -9 17 -19 21
-11 3 -23 15 -26 26 -4 10 -11 19 -16 19 -5 0 -9 5 -9 10 0 9 -21 35 -58 72
-5 6 -21 21 -35 35 -14 14 -29 30 -35 35 -5 6 -20 20 -33 33 -13 12 -31 32
-39 44 -8 11 -21 21 -30 21 -8 0 -29 16 -45 35 -17 19 -35 35 -42 35 -7 0 -23
11 -37 25 -14 14 -28 25 -31 25 -4 0 -13 7 -21 15 -9 8 -24 15 -34 15 -10 0
-22 9 -25 20 -3 11 -15 20 -26 20 -10 0 -19 4 -19 10 0 5 -11 12 -25 16 -14 3
-25 10 -25 15 0 5 -6 9 -13 9 -7 0 -19 9 -27 20 -8 11 -22 20 -32 20 -10 0
-18 4 -18 10 0 5 -16 12 -35 16 -19 3 -35 10 -35 15 0 5 -7 9 -15 9 -8 0 -15
5 -15 10 0 6 -9 10 -20 10 -11 0 -20 4 -20 9 0 5 -18 11 -40 15 -22 3 -40 11
-40 16 0 6 -13 10 -30 10 -16 0 -30 5 -30 10 0 6 -11 10 -25 10 -14 0 -25 4
-25 9 0 5 -22 12 -50 16 -27 4 -50 11 -50 16 0 5 -16 9 -35 9 -19 0 -35 5 -35
10 0 6 -15 10 -34 10 -19 0 -36 4 -38 9 -1 6 -49 13 -105 17 -57 4 -103 11
-103 15 0 5 -106 9 -235 9 -150 0 -235 4 -235 10 0 6 -77 10 -210 10 -133 0
-210 -4 -210 -10z m-300 -235 c0 -8 -4 -15 -9 -15 -5 0 -12 -18 -16 -40 -4
-22 -11 -40 -16 -40 -5 0 -9 -11 -9 -25 0 -14 -4 -25 -10 -25 -6 0 -10 -27
-10 -60 0 -33 -4 -60 -10 -60 -5 0 -10 -11 -10 -25 0 -14 5 -25 10 -25 6 0 10
-28 10 -65 0 -37 4 -65 10 -65 6 0 10 -11 10 -25 0 -14 4 -25 9 -25 5 0 12
-19 15 -43 4 -26 15 -49 26 -57 11 -8 20 -20 20 -27 0 -7 5 -13 10 -13 6 0 10
-9 10 -20 0 -17 -7 -20 -45 -20 -25 0 -45 -4 -45 -9 0 -5 -31 -12 -70 -16 -38
-4 -70 -11 -70 -16 0 -5 -11 -9 -25 -9 -14 0 -25 -4 -25 -10 0 -5 -13 -10 -30
-10 -16 0 -30 -4 -30 -9 0 -5 -18 -11 -40 -15 -22 -3 -40 -11 -40 -16 0 -6
-13 -10 -30 -10 -16 0 -30 -4 -30 -10 0 -5 -7 -10 -15 -10 -8 0 -15 -4 -15 -9
0 -5 -16 -12 -35 -15 -19 -4 -35 -11 -35 -16 0 -6 -9 -10 -20 -10 -11 0 -20
-4 -20 -10 0 -5 -5 -10 -11 -10 -7 0 -19 -8 -28 -19 -9 -10 -26 -21 -38 -25
-13 -4 -23 -12 -23 -17 0 -5 -9 -9 -19 -9 -11 0 -23 -9 -26 -20 -3 -11 -15
-20 -25 -20 -10 0 -25 -7 -34 -15 -8 -8 -18 -15 -21 -15 -4 0 -26 -20 -51 -45
-24 -25 -48 -45 -54 -45 -6 0 -26 -17 -45 -37 -40 -43 -68 -73 -87 -90 -19
-18 -38 -41 -38 -48 0 -3 -11 -17 -25 -31 -14 -14 -25 -29 -25 -34 0 -5 -9
-12 -20 -15 -11 -3 -20 -13 -20 -22 0 -9 -11 -26 -25 -39 -14 -13 -25 -28 -25
-35 0 -6 -8 -19 -19 -28 -10 -9 -21 -26 -25 -38 -4 -13 -12 -23 -17 -23 -5 0
-9 -9 -9 -20 0 -11 -4 -20 -10 -20 -5 0 -10 -7 -10 -15 0 -8 -4 -15 -10 -15
-5 0 -10 -9 -10 -20 0 -11 -7 -23 -15 -26 -8 -4 -15 -15 -15 -25 0 -10 -4 -19
-10 -19 -5 0 -10 -7 -10 -15 0 -8 -4 -15 -9 -15 -5 0 -12 -18 -16 -40 -4 -22
-11 -40 -16 -40 -5 0 -9 -11 -9 -25 0 -14 -4 -25 -10 -25 -5 0 -10 -7 -10 -15
0 -8 -4 -15 -9 -15 -4 0 -11 -19 -14 -42 -3 -24 -11 -44 -16 -46 -6 -2 -11
-15 -11 -28 0 -13 -4 -24 -10 -24 -5 0 -10 -13 -10 -30 0 -16 -4 -30 -10 -30
-5 0 -12 -27 -16 -60 -4 -33 -11 -60 -15 -60 -5 0 -9 -16 -9 -35 0 -19 -4 -35
-10 -35 -5 0 -10 -16 -10 -35 0 -19 -4 -35 -9 -35 -5 0 -12 -52 -16 -115 -4
-63 -11 -115 -16 -115 -5 0 -9 -40 -9 -90 0 -53 -4 -90 -10 -90 -6 0 -10 -37
-10 -90 l0 -90 -105 0 -105 0 0 530 c0 347 3 530 10 530 6 0 10 33 10 80 0 44
4 80 9 80 5 0 12 45 16 100 3 55 11 100 16 100 5 0 9 16 9 35 0 19 5 35 10 35
6 0 10 11 10 25 0 14 4 25 9 25 5 0 12 24 16 53 7 47 17 66 38 67 4 0 7 -7 7
-15 0 -8 5 -15 10 -15 6 0 10 -9 10 -20 0 -11 7 -23 15 -26 8 -4 15 -15 15
-25 0 -10 5 -19 10 -19 6 0 10 -7 10 -15 0 -8 4 -15 9 -15 5 0 12 -18 16 -40
4 -22 11 -40 16 -40 5 0 9 -7 9 -15 0 -8 5 -15 10 -15 6 0 10 -9 10 -20 0 -11
5 -20 11 -20 16 0 39 26 39 44 0 9 5 16 10 16 6 0 10 7 10 15 0 8 4 15 9 15 5
0 12 15 15 33 3 18 15 39 26 47 11 8 20 22 20 32 0 10 4 18 10 18 5 0 12 16
16 35 3 19 10 35 15 35 5 0 9 7 9 15 0 8 5 15 10 15 6 0 10 9 10 19 0 10 7 21
15 25 8 3 15 15 15 26 0 11 5 20 10 20 6 0 10 9 10 20 0 11 5 20 10 20 6 0 10
7 10 15 0 8 4 15 9 15 5 0 11 14 15 31 6 33 58 89 82 89 8 0 14 5 14 10 0 6 9
10 19 10 11 0 22 9 26 19 3 12 19 21 40 25 19 4 35 11 35 16 0 6 9 10 20 10
11 0 20 5 20 10 0 6 6 10 13 10 7 0 19 9 27 20 8 11 29 23 47 26 18 3 33 10
33 15 0 5 7 9 15 9 8 0 15 5 15 10 0 6 9 10 20 10 11 0 20 4 20 9 0 5 11 12
25 15 14 4 25 11 25 16 0 6 9 10 20 10 11 0 20 5 20 10 0 6 7 10 15 10 8 0 15
5 15 10 0 6 9 10 19 10 11 0 22 4 25 9 10 16 -5 41 -25 41 -10 0 -19 5 -19 10
0 6 -5 10 -11 10 -6 0 -17 7 -25 15 -9 8 -24 15 -35 15 -10 0 -19 5 -19 10 0
6 -7 10 -15 10 -8 0 -15 5 -15 10 0 6 -9 10 -20 10 -11 0 -20 4 -20 10 0 5
-16 12 -35 16 -21 4 -37 13 -40 25 -4 10 -15 19 -26 19 -10 0 -19 4 -19 10 0
5 -16 12 -35 16 -19 3 -35 10 -35 15 0 5 -7 9 -15 9 -8 0 -15 7 -15 15 0 18
35 55 51 55 12 0 49 38 49 50 0 4 15 11 33 14 18 3 39 15 47 26 8 11 20 20 27
20 7 0 13 5 13 10 0 6 9 10 19 10 11 0 26 7 35 15 8 8 19 15 25 15 6 0 11 5
11 10 0 6 9 10 20 10 11 0 20 4 20 10 0 5 18 13 40 16 22 4 40 10 40 15 0 5 9
9 20 9 11 0 20 5 20 10 0 6 7 10 15 10 8 0 15 4 15 9 0 5 25 12 55 16 30 3 55
11 55 16 0 5 11 9 25 9 14 0 25 5 25 10 0 6 16 10 35 10 19 0 35 5 35 10 0 6
15 10 34 10 19 0 36 4 38 9 2 6 49 13 106 17 56 4 102 11 102 15 0 5 16 9 35
9 24 0 35 -5 35 -15z m-1534 -229 c8 -8 14 -19 14 -25 0 -6 5 -11 10 -11 6 0
10 -9 10 -20 0 -11 4 -20 9 -20 5 0 12 -11 15 -25 4 -14 11 -25 16 -25 6 0 10
-9 10 -20 0 -11 5 -20 10 -20 6 0 10 -7 10 -15 0 -8 4 -15 9 -15 5 0 11 -14
15 -30 7 -39 47 -79 86 -86 16 -4 30 -10 30 -15 0 -5 7 -9 15 -9 8 0 15 -4 15
-10 0 -5 9 -10 20 -10 11 0 20 -4 20 -9 0 -5 11 -12 25 -15 14 -4 25 -11 25
-16 0 -6 9 -10 20 -10 11 0 20 -4 20 -10 0 -5 5 -10 11 -10 6 0 18 -7 26 -16
14 -13 14 -17 2 -25 -8 -5 -20 -9 -26 -9 -7 0 -13 -4 -13 -10 0 -5 -9 -10 -20
-10 -11 0 -20 -4 -20 -10 0 -5 -5 -10 -11 -10 -6 0 -17 -7 -25 -15 -9 -8 -24
-15 -35 -15 -10 0 -19 -4 -19 -10 0 -5 -7 -10 -15 -10 -8 0 -15 -4 -15 -10 0
-5 -9 -10 -20 -10 -11 0 -20 -4 -20 -10 0 -5 -6 -10 -13 -10 -24 0 -54 -34
-61 -68 -4 -17 -12 -32 -17 -32 -5 0 -9 -8 -9 -18 0 -10 -9 -24 -20 -32 -11
-8 -23 -29 -26 -47 -3 -18 -10 -33 -15 -33 -5 0 -9 -7 -9 -15 0 -8 -4 -15 -10
-15 -5 0 -10 -9 -10 -19 0 -17 -18 -31 -41 -31 -5 0 -9 7 -9 15 0 8 -4 15 -10
15 -5 0 -10 9 -10 20 0 11 -4 20 -10 20 -5 0 -12 16 -16 35 -3 19 -10 35 -15
35 -5 0 -9 7 -9 15 0 8 -4 15 -10 15 -5 0 -10 9 -10 19 0 10 -7 21 -15 25 -8
3 -15 15 -15 26 0 11 -4 20 -10 20 -5 0 -10 9 -10 20 0 13 -7 20 -20 20 -11 0
-23 7 -26 15 -4 8 -15 15 -25 15 -10 0 -19 5 -19 10 0 6 -7 10 -15 10 -8 0
-15 4 -15 9 0 5 -16 12 -35 15 -19 4 -35 11 -35 16 0 6 -8 10 -18 10 -10 0
-24 9 -32 20 -8 10 -27 22 -42 25 -28 7 -39 25 -15 25 7 0 19 9 27 20 8 11 20
20 27 20 7 0 13 4 13 9 0 5 16 12 35 15 19 4 35 11 35 16 0 6 9 10 20 10 11 0
20 5 20 10 0 6 7 10 15 10 8 0 15 4 15 10 0 5 11 12 25 16 14 3 25 10 25 15 0
5 9 9 20 9 13 0 20 7 20 20 0 11 4 20 10 20 5 0 12 16 16 35 4 21 13 37 25 40
10 4 19 15 19 26 0 10 4 19 9 19 5 0 12 16 15 35 4 19 11 35 16 35 6 0 10 9
10 20 0 11 5 20 10 20 6 0 10 7 10 15 0 19 17 19 36 1z m2422 -625 c2 -6 28
-11 58 -11 30 0 54 -4 54 -10 0 -5 14 -10 30 -10 17 0 30 -4 30 -10 0 -5 20
-10 45 -10 25 0 45 -4 45 -9 0 -5 25 -13 55 -16 30 -4 55 -11 55 -16 0 -5 11
-9 25 -9 14 0 25 -4 25 -10 0 -5 11 -10 25 -10 14 0 25 -4 25 -9 0 -5 20 -12
45 -15 25 -4 45 -11 45 -17 0 -5 7 -9 15 -9 8 0 15 -4 15 -10 0 -5 9 -10 20
-10 11 0 20 -4 20 -10 0 -5 16 -12 35 -16 19 -3 35 -10 35 -15 0 -5 7 -9 15
-9 8 0 15 -4 15 -10 0 -5 9 -10 20 -10 11 0 20 -4 20 -9 0 -5 11 -12 25 -15
14 -4 25 -11 25 -16 0 -6 9 -10 20 -10 11 0 20 -4 20 -8 0 -16 37 -52 52 -52
8 0 24 -11 34 -25 10 -14 24 -25 31 -25 15 0 193 -176 193 -191 0 -9 8 -21 38
-54 6 -7 12 -17 12 -21 0 -3 8 -14 19 -23 10 -9 21 -26 25 -38 4 -13 12 -23
17 -23 5 0 9 -9 9 -20 0 -11 5 -20 10 -20 6 0 10 -7 10 -15 0 -8 5 -15 10 -15
6 0 10 -9 10 -20 0 -11 7 -23 15 -26 8 -4 15 -15 15 -25 0 -10 5 -19 10 -19 6
0 10 -9 10 -20 0 -11 4 -20 10 -20 5 0 12 -16 16 -35 3 -19 10 -35 15 -35 5 0
9 -11 9 -25 0 -14 5 -25 10 -25 6 0 10 -7 10 -15 0 -8 4 -15 9 -15 5 0 12 -25
16 -55 3 -30 11 -55 16 -55 5 0 9 -11 9 -25 0 -14 5 -25 10 -25 6 0 10 -13 10
-30 0 -16 4 -30 9 -30 5 0 11 -18 13 -40 2 -28 0 -40 -9 -40 -7 0 -13 6 -13
13 0 7 -9 19 -20 27 -11 8 -20 20 -20 27 0 7 -22 35 -50 62 -27 27 -50 54 -50
60 0 15 -178 191 -193 191 -7 0 -19 10 -27 21 -8 12 -20 27 -27 33 -25 23 -42
36 -48 36 -3 0 -21 16 -41 35 -19 19 -40 35 -47 35 -7 0 -19 9 -27 20 -8 11
-18 20 -23 20 -5 0 -15 7 -23 15 -9 8 -24 15 -34 15 -10 0 -22 9 -25 20 -3 11
-15 20 -26 20 -10 0 -19 4 -19 10 0 5 -11 12 -25 16 -14 3 -25 10 -25 15 0 5
-9 9 -20 9 -11 0 -20 5 -20 10 0 6 -7 10 -15 10 -8 0 -15 4 -15 10 0 5 -11 12
-25 16 -14 3 -25 10 -25 15 0 5 -9 9 -20 9 -11 0 -20 5 -20 10 0 6 -7 10 -15
10 -8 0 -15 5 -15 10 0 6 -13 10 -30 10 -16 0 -30 4 -30 10 0 5 -16 12 -35 16
-19 3 -35 10 -35 15 0 5 -11 9 -25 9 -14 0 -25 5 -25 10 0 6 -7 10 -15 10 -8
0 -15 4 -15 9 0 5 -25 12 -55 16 -30 3 -55 11 -55 16 0 5 -11 9 -25 9 -14 0
-25 5 -25 10 0 6 -16 10 -35 10 -19 0 -35 4 -35 9 0 5 -31 12 -70 16 -38 4
-70 11 -70 16 0 5 -20 9 -45 9 -25 0 -45 5 -45 10 0 6 -27 10 -60 10 -33 0
-60 4 -60 10 0 6 -7 10 -15 10 -12 0 -15 17 -15 95 l0 95 -89 0 c-62 0 -91 4
-94 13 -4 9 -8 8 -16 -3 -6 -9 -11 -79 -11 -177 0 -102 -4 -163 -10 -163 -5 0
-10 -25 -10 -55 0 -30 -4 -55 -10 -55 -5 0 -10 -16 -10 -35 0 -19 -4 -35 -9
-35 -6 0 -13 -20 -17 -45 -3 -25 -10 -45 -15 -45 -5 0 -9 -7 -9 -15 0 -8 -4
-15 -10 -15 -5 0 -10 -9 -10 -20 0 -11 -4 -20 -9 -20 -5 0 -12 -11 -15 -25 -4
-14 -11 -25 -16 -25 -6 0 -10 -9 -10 -20 0 -11 -4 -20 -10 -20 -17 0 -11 -20
15 -45 13 -14 27 -25 30 -25 6 0 20 -11 50 -37 7 -7 18 -13 24 -13 6 0 11 -4
11 -10 0 -5 9 -10 20 -10 13 0 20 7 20 20 0 11 7 23 15 26 8 4 15 15 15 25 0
10 5 19 10 19 6 0 10 5 10 11 0 6 7 17 15 25 8 9 15 24 15 35 0 10 5 19 10 19
6 0 10 7 10 15 0 8 5 15 10 15 6 0 10 14 10 30 0 17 4 30 9 30 5 0 11 18 15
40 3 22 11 40 16 40 6 0 10 16 10 35 0 19 5 35 10 35 6 0 10 18 10 40 0 29 4
40 15 40 8 0 15 -4 15 -10 0 -6 28 -10 65 -10 37 0 65 -4 65 -10 0 -5 18 -10
40 -10 22 0 40 -4 40 -10 0 -5 16 -10 35 -10 19 0 35 -4 35 -9 0 -4 27 -11 60
-15 33 -4 60 -11 60 -16 0 -6 14 -10 30 -10 17 0 30 -4 30 -10 0 -5 11 -10 25
-10 14 0 25 -4 25 -9 0 -5 20 -12 45 -15 25 -4 45 -11 45 -17 0 -5 11 -9 25
-9 14 0 25 -4 25 -10 0 -5 7 -10 15 -10 8 0 15 -4 15 -9 0 -5 16 -12 35 -15
19 -4 35 -11 35 -16 0 -6 9 -10 20 -10 11 0 20 -4 20 -10 0 -5 7 -10 15 -10 8
0 15 -4 15 -10 0 -5 9 -10 19 -10 11 0 26 -7 35 -15 8 -8 19 -15 25 -15 6 0
11 -4 11 -10 0 -5 9 -10 19 -10 11 0 23 -9 26 -20 3 -11 15 -20 25 -20 10 0
25 -7 34 -15 8 -8 18 -15 23 -15 5 0 15 -9 23 -20 8 -11 20 -20 27 -20 7 0 23
-11 37 -25 14 -14 28 -25 31 -25 10 0 62 -47 93 -85 7 -8 22 -15 32 -15 11 0
20 -4 20 -9 0 -6 34 -44 75 -86 41 -41 75 -80 75 -85 0 -6 25 -35 55 -65 30
-29 55 -58 55 -64 0 -6 11 -21 25 -35 14 -14 25 -28 25 -31 0 -4 7 -13 15 -21
8 -9 15 -24 15 -34 0 -10 9 -22 20 -25 11 -3 20 -15 20 -26 0 -10 4 -19 9 -19
5 0 13 -10 17 -22 4 -13 15 -30 25 -39 11 -9 19 -24 19 -33 0 -9 4 -16 10 -16
5 0 12 -16 16 -35 3 -19 10 -35 15 -35 5 0 9 -7 9 -15 0 -8 5 -15 10 -15 6 0
10 -9 10 -19 0 -11 6 -21 13 -23 9 -4 13 -64 15 -246 2 -144 7 -242 13 -242 5
0 9 -71 9 -175 0 -96 -4 -175 -8 -175 -5 0 -12 -134 -15 -297 -4 -197 -9 -299
-16 -301 -7 -2 -11 -34 -11 -78 0 -43 -4 -74 -10 -74 -5 0 -10 -18 -10 -40 0
-22 -4 -40 -9 -40 -5 0 -13 -36 -17 -80 -3 -44 -11 -80 -15 -80 -5 0 -9 -13
-9 -30 0 -16 -4 -30 -10 -30 -5 0 -10 -11 -10 -25 0 -14 -4 -25 -10 -25 -5 0
-10 -11 -10 -25 0 -16 -6 -25 -15 -25 -8 0 -15 7 -15 15 0 8 -4 15 -10 15 -5
0 -10 9 -10 20 0 11 -4 20 -10 20 -5 0 -12 16 -16 35 -3 19 -10 35 -15 35 -5
0 -9 9 -9 19 0 11 -9 23 -20 26 -11 3 -20 15 -20 26 0 10 -7 19 -15 19 -8 0
-15 -9 -15 -20 0 -11 -4 -20 -10 -20 -5 0 -10 -7 -10 -15 0 -8 -4 -15 -10 -15
-5 0 -10 -9 -10 -19 0 -11 -7 -26 -15 -35 -8 -8 -15 -19 -15 -25 0 -6 -4 -11
-10 -11 -5 0 -10 -9 -10 -20 0 -11 -4 -20 -10 -20 -5 0 -12 -16 -16 -35 -3
-19 -10 -35 -15 -35 -5 0 -9 -7 -9 -15 0 -8 -4 -15 -10 -15 -5 0 -12 -11 -16
-25 -3 -14 -10 -25 -15 -25 -5 0 -9 -9 -9 -20 0 -11 -4 -20 -10 -20 -5 0 -10
-9 -10 -20 0 -11 -4 -20 -10 -20 -5 0 -12 -16 -16 -35 -4 -21 -13 -37 -25 -40
-10 -4 -19 -15 -19 -26 0 -10 -4 -19 -9 -19 -5 0 -12 -11 -15 -25 -4 -16 -13
-25 -26 -25 -11 0 -20 -4 -20 -10 0 -5 -7 -10 -15 -10 -8 0 -15 -4 -15 -9 0
-5 -16 -12 -35 -15 -19 -4 -35 -11 -35 -16 0 -6 -8 -10 -18 -10 -10 0 -24 -9
-32 -20 -8 -11 -20 -20 -27 -20 -7 0 -13 -4 -13 -9 0 -5 -16 -12 -35 -15 -19
-4 -35 -11 -35 -16 0 -6 -9 -10 -20 -10 -11 0 -20 -4 -20 -10 0 -5 -7 -10 -15
-10 -8 0 -15 -4 -15 -10 0 -5 -11 -12 -25 -16 -14 -3 -25 -10 -25 -15 0 -5 -9
-9 -20 -9 -11 0 -20 -4 -20 -10 0 -5 -7 -10 -15 -10 -8 0 -15 -4 -15 -9 0 -5
-14 -11 -31 -15 -39 -8 -80 -46 -48 -46 6 0 17 -7 25 -15 9 -8 24 -15 35 -15
10 0 19 -4 19 -10 0 -5 7 -10 15 -10 8 0 15 -4 15 -10 0 -5 9 -10 20 -10 11 0
20 -4 20 -10 0 -5 7 -10 15 -10 8 0 15 -4 15 -10 0 -5 9 -10 20 -10 11 0 23
-7 26 -15 4 -8 15 -15 25 -15 10 0 19 -4 19 -10 0 -5 7 -10 15 -10 8 0 15 -4
15 -9 0 -5 16 -12 35 -15 19 -4 35 -11 35 -16 0 -6 7 -10 16 -10 9 0 24 -8 33
-19 9 -10 26 -21 39 -25 12 -4 22 -14 22 -21 0 -19 -145 -165 -164 -165 -8 0
-18 -9 -21 -20 -3 -11 -10 -20 -15 -20 -8 0 -36 -27 -68 -65 -7 -8 -22 -15
-32 -15 -11 0 -20 -4 -20 -8 0 -14 -36 -52 -49 -52 -7 0 -22 -11 -35 -25 -13
-14 -30 -25 -39 -25 -9 0 -19 -9 -22 -20 -3 -11 -15 -20 -25 -20 -10 0 -25 -7
-34 -15 -8 -8 -18 -15 -23 -15 -5 0 -15 -9 -23 -20 -8 -11 -29 -23 -47 -26
-18 -3 -33 -10 -33 -15 0 -5 -5 -9 -11 -9 -7 0 -19 -8 -28 -19 -9 -10 -31 -22
-49 -25 -17 -4 -32 -12 -32 -17 0 -5 -7 -9 -15 -9 -8 0 -15 -4 -15 -10 0 -5
-9 -10 -20 -10 -11 0 -20 -4 -20 -10 0 -5 -11 -10 -25 -10 -14 0 -25 -4 -25
-9 0 -5 -16 -12 -35 -15 -19 -4 -35 -11 -35 -16 0 -6 -11 -10 -25 -10 -14 0
-25 -4 -25 -10 0 -5 -13 -10 -30 -10 -16 0 -30 -4 -30 -9 0 -5 -22 -12 -50
-16 -27 -4 -50 -11 -50 -16 0 -5 -11 -9 -25 -9 -14 0 -25 -4 -25 -10 0 -5 -13
-10 -30 -10 -16 0 -30 5 -30 10 0 6 -16 10 -35 10 -19 0 -35 4 -35 9 0 5 -22
12 -50 16 -27 4 -50 11 -50 16 0 5 -11 9 -25 9 -14 0 -25 5 -25 10 0 6 -13 10
-30 10 -16 0 -30 4 -30 10 0 5 -18 13 -40 16 -22 4 -40 10 -40 15 0 5 -9 9
-20 9 -11 0 -20 5 -20 10 0 6 -7 10 -15 10 -8 0 -15 5 -15 10 0 6 -9 10 -20
10 -11 0 -20 4 -20 9 0 5 -18 11 -40 15 -22 3 -40 11 -40 16 0 6 -8 10 -18 10
-10 0 -24 9 -32 20 -8 11 -29 23 -47 26 -18 3 -33 10 -33 15 0 5 -6 9 -13 9
-7 0 -19 9 -27 20 -8 10 -28 22 -44 26 -17 4 -38 15 -47 25 -9 11 -19 19 -23
19 -7 0 -20 10 -51 38 -7 6 -17 12 -20 12 -4 0 -20 14 -35 30 -15 17 -33 30
-39 30 -9 0 -20 10 -68 62 -18 20 -41 38 -48 38 -15 0 -145 134 -145 149 0 9
-10 20 -62 68 -20 18 -38 41 -38 48 0 3 -11 17 -25 31 -14 14 -25 30 -25 35 0
6 -14 24 -30 39 -16 15 -30 35 -30 44 0 9 -7 19 -15 22 -8 4 -15 15 -15 25 0
10 -4 19 -10 19 -5 0 -12 11 -16 25 -3 14 -10 25 -15 25 -5 0 -9 9 -9 20 0 11
-4 20 -10 20 -5 0 -10 7 -10 15 0 8 -4 15 -10 15 -5 0 -12 11 -16 25 -3 14
-10 25 -15 25 -5 0 -9 9 -9 20 0 11 -4 20 -10 20 -5 0 -10 9 -10 20 0 11 -4
20 -10 20 -5 0 -12 16 -16 35 -3 19 -10 35 -15 35 -5 0 -9 7 -9 15 0 8 -4 15
-10 15 -5 0 -10 11 -10 25 0 14 -4 25 -9 25 -6 0 -13 20 -17 45 -3 25 -10 45
-15 45 -5 0 -9 9 -9 20 0 11 -4 20 -10 20 -5 0 -10 11 -10 25 0 14 -4 25 -9
25 -5 0 -13 25 -16 55 -4 30 -11 55 -16 55 -5 0 -9 16 -9 35 0 19 -4 35 -10
35 -5 0 -10 11 -10 25 0 14 -4 25 -9 25 -5 0 -13 36 -17 80 -3 44 -11 80 -15
80 -5 0 -9 16 -9 35 0 19 -4 35 -10 35 -5 0 -10 20 -10 45 0 25 -4 45 -9 45
-5 0 -12 56 -16 125 -4 69 -11 125 -16 125 -5 0 -9 34 -9 75 0 43 -4 75 -10
75 -6 0 -10 57 -10 150 0 93 -4 150 -10 150 -6 0 -10 72 -10 195 0 123 4 195
10 195 6 0 10 47 10 120 l0 120 200 200 c109 110 202 200 205 200 6 0 20 11
50 38 7 6 18 12 24 12 6 0 11 5 11 10 0 6 7 10 15 10 8 0 15 4 15 9 0 5 16 12
35 15 19 4 35 11 35 16 0 6 14 10 30 10 17 0 30 5 30 10 0 6 11 10 24 10 13 0
26 4 28 10 2 5 54 12 116 16 61 4 112 11 112 16 0 4 38 8 85 8 50 0 85 4 85
10 0 6 25 10 55 10 30 0 55 5 55 10 0 6 18 10 40 10 22 0 40 4 40 9 0 5 25 12
55 16 30 3 55 11 55 16 0 5 7 9 15 9 8 0 15 5 15 10 0 6 9 10 20 10 11 0 20 4
20 10 0 5 16 12 35 16 19 3 35 10 35 15 0 5 5 9 10 9 6 0 22 11 36 25 14 14
30 25 35 25 15 0 69 59 69 75 0 8 -7 20 -15 29 -8 8 -15 21 -15 30 0 8 -9 18
-20 21 -11 3 -20 10 -20 14 0 16 -38 51 -55 51 -9 0 -29 -13 -44 -29 -14 -15
-36 -31 -49 -35 -12 -4 -22 -12 -22 -17 0 -5 -7 -9 -15 -9 -8 0 -15 -4 -15
-10 0 -5 -9 -10 -20 -10 -11 0 -20 -4 -20 -10 0 -5 -7 -10 -15 -10 -8 0 -15
-4 -15 -9 0 -6 -20 -13 -45 -17 -25 -3 -45 -10 -45 -15 0 -5 -11 -9 -25 -9
-14 0 -25 -4 -25 -10 0 -5 -25 -10 -55 -10 -30 0 -55 -4 -55 -9 0 -5 -74 -12
-165 -16 -91 -4 -165 -11 -165 -16 0 -5 -20 -9 -45 -9 -25 0 -45 -4 -45 -10 0
-5 -16 -10 -35 -10 -19 0 -35 -4 -35 -9 0 -5 -22 -12 -50 -16 -27 -4 -50 -11
-50 -16 0 -5 -9 -9 -20 -9 -11 0 -20 -4 -20 -10 0 -5 -7 -10 -15 -10 -8 0 -15
-4 -15 -9 0 -5 -15 -12 -33 -15 -18 -3 -39 -15 -47 -26 -8 -11 -18 -20 -23
-20 -4 0 -19 -11 -33 -25 -14 -14 -29 -25 -35 -25 -6 0 -35 -25 -64 -55 -30
-30 -59 -55 -64 -55 -16 0 -91 -78 -91 -95 0 -8 -7 -15 -15 -15 -8 0 -15 9
-15 20 0 11 4 20 9 20 5 0 12 47 16 105 4 58 11 105 16 105 5 0 9 16 9 35 0
19 5 35 10 35 6 0 10 16 10 35 0 19 4 35 9 35 5 0 12 29 16 65 3 36 11 65 16
65 5 0 9 11 9 25 0 14 5 25 10 25 6 0 10 11 10 25 0 14 4 25 9 25 6 0 13 20
17 45 3 25 10 45 15 45 5 0 9 9 9 20 0 11 5 20 10 20 6 0 10 7 10 15 0 8 4 15
9 15 5 0 12 16 15 35 4 19 11 35 16 35 6 0 10 9 10 20 0 11 5 20 10 20 6 0 10
7 10 15 0 8 5 15 10 15 6 0 10 9 10 19 0 11 7 26 15 35 8 8 15 18 15 22 0 3 8
14 19 23 10 9 21 26 25 39 4 12 12 22 17 22 5 0 9 9 9 19 0 11 9 23 20 26 11
3 20 15 20 25 0 11 18 37 40 59 22 22 40 46 40 55 0 8 9 18 20 21 11 3 20 10
20 15 0 12 49 60 61 60 5 0 25 16 45 35 19 19 39 35 45 35 6 0 24 14 39 30 15
17 33 30 39 30 6 0 11 4 11 10 0 5 11 12 25 16 14 3 25 10 25 15 0 5 8 9 18 9
10 0 24 9 32 20 8 11 29 23 47 26 18 3 33 10 33 15 0 5 7 9 15 9 8 0 15 5 15
10 0 6 11 10 25 10 14 0 25 4 25 9 0 5 16 12 35 15 19 4 35 11 35 16 0 6 14
10 30 10 17 0 30 5 30 10 0 6 11 10 25 10 14 0 25 4 25 10 0 5 27 12 60 16 33
4 60 11 60 15 0 5 16 9 35 9 19 0 35 5 35 10 0 6 20 10 45 10 25 0 45 5 45 10
0 6 18 10 40 10 22 0 40 4 40 10 0 13 143 18 450 14 173 -2 266 -7 268 -13z
m-2548 -2691 c0 -351 -5 -423 -25 -360 -3 11 -11 20 -16 20 -5 0 -9 5 -9 11 0
7 -8 19 -18 28 -11 9 -22 28 -26 44 -3 15 -11 27 -16 27 -6 0 -10 7 -10 15 0
8 -4 15 -10 15 -5 0 -10 11 -10 24 0 13 -5 26 -10 28 -6 2 -13 27 -17 56 -3
28 -10 52 -14 52 -5 0 -9 25 -9 55 0 30 -4 55 -10 55 -6 0 -10 58 -10 155 l0
155 105 0 105 0 0 -380z m4610 195 c0 -103 -4 -185 -9 -185 -5 0 -12 -31 -16
-70 -4 -38 -11 -70 -16 -70 -5 0 -9 -7 -9 -15 0 -8 -4 -15 -10 -15 -5 0 -10
-9 -10 -20 0 -11 -4 -20 -9 -20 -5 0 -13 -15 -17 -32 -3 -18 -15 -40 -25 -49
-11 -9 -19 -20 -19 -23 0 -4 -6 -13 -12 -20 -7 -8 -20 -23 -28 -35 -8 -11 -18
-21 -22 -21 -4 0 -8 171 -8 380 l0 380 105 0 105 0 0 -185z m-720 -1663 c0
-10 9 -24 20 -32 11 -8 20 -20 20 -27 0 -7 4 -13 9 -13 5 0 12 -16 15 -35 4
-19 11 -35 16 -35 6 0 10 -9 10 -19 0 -11 9 -22 19 -26 13 -4 22 -19 26 -45 4
-26 13 -41 26 -45 10 -4 19 -11 19 -16 0 -5 7 -9 15 -9 8 0 15 -4 15 -10 0 -5
9 -10 20 -10 11 0 20 -4 20 -9 0 -5 15 -13 32 -17 18 -3 40 -15 49 -25 9 -11
21 -19 28 -19 6 0 11 -4 11 -9 0 -5 14 -11 31 -15 16 -3 37 -13 45 -21 14 -13
14 -17 0 -30 -8 -8 -29 -18 -45 -21 -17 -4 -31 -10 -31 -15 0 -5 -7 -9 -15 -9
-8 0 -15 -4 -15 -10 0 -5 -8 -10 -18 -10 -10 0 -24 -9 -32 -20 -8 -11 -29 -23
-47 -26 -18 -3 -33 -10 -33 -15 0 -5 -5 -9 -10 -9 -16 0 -57 -43 -64 -68 -4
-12 -12 -22 -17 -22 -5 0 -9 -7 -9 -15 0 -8 -4 -15 -10 -15 -5 0 -10 -9 -10
-20 0 -11 -4 -20 -10 -20 -5 0 -12 -16 -16 -35 -3 -19 -10 -35 -15 -35 -5 0
-9 -9 -9 -19 0 -11 -9 -23 -20 -26 -11 -3 -20 -15 -20 -26 0 -10 -7 -19 -15
-19 -8 0 -15 9 -15 20 0 11 -4 20 -10 20 -5 0 -10 7 -10 15 0 8 -4 15 -9 15
-5 0 -12 15 -15 33 -3 18 -15 39 -26 47 -11 8 -20 22 -20 32 0 10 -4 18 -10
18 -5 0 -12 16 -16 35 -3 19 -10 35 -15 35 -5 0 -9 7 -9 15 0 8 -7 15 -15 15
-8 0 -15 5 -15 10 0 6 -9 10 -20 10 -11 0 -20 4 -20 10 0 5 -11 12 -25 16 -14
3 -25 10 -25 15 0 5 -9 9 -20 9 -11 0 -20 5 -20 10 0 6 -7 10 -15 10 -8 0 -15
5 -15 10 0 6 -9 10 -20 10 -11 0 -20 4 -20 9 0 5 -11 12 -25 15 -14 4 -25 11
-25 16 0 6 -7 10 -15 10 -35 0 -9 35 33 45 17 3 32 11 32 16 0 5 9 9 20 9 11
0 20 5 20 10 0 6 7 10 15 10 8 0 15 5 15 10 0 6 9 10 19 10 11 0 26 7 35 15 8
8 19 15 25 15 6 0 11 5 11 10 0 6 9 10 20 10 11 0 20 5 20 10 0 6 7 10 15 10
8 0 15 7 15 15 0 8 4 15 9 15 5 0 12 16 15 35 4 19 11 35 16 35 6 0 10 9 10
20 0 11 5 20 10 20 6 0 10 5 10 11 0 6 7 17 15 25 8 9 15 24 15 35 0 10 5 19
10 19 6 0 10 7 10 15 0 8 5 15 10 15 6 0 10 9 10 20 0 11 7 20 15 20 8 0 15
-8 15 -18z"/>
<path d="M2200 10600 l0 -110 105 0 105 0 0 110 0 110 -105 0 -105 0 0 -110z"/>
<path d="M2620 10600 l0 -110 105 0 105 0 0 110 0 110 -105 0 -105 0 0 -110z"/>
<path d="M2290 9640 c0 -5 -16 -10 -35 -10 -19 0 -35 -4 -35 -10 0 -5 -13 -10
-30 -10 -16 0 -30 -4 -30 -9 0 -5 -22 -12 -50 -16 -27 -4 -50 -11 -50 -16 0
-5 -5 -9 -11 -9 -7 0 -19 -8 -28 -19 -9 -10 -30 -21 -47 -25 -16 -4 -36 -16
-44 -26 -8 -11 -18 -20 -23 -20 -4 0 -19 -11 -33 -25 -14 -14 -29 -25 -34 -25
-6 0 -10 -9 -10 -20 0 -11 5 -20 10 -20 6 0 10 -5 10 -10 0 -12 34 -51 91
-104 l24 -22 22 20 c37 36 52 46 63 46 5 0 10 5 10 10 0 6 5 10 11 10 6 0 17
7 25 15 9 8 24 15 35 15 10 0 19 5 19 10 0 6 11 10 25 10 14 0 25 5 25 10 0 6
6 10 14 10 8 0 16 6 18 13 4 9 117 13 511 15 l507 3 0 110 0 109 -480 0 c-313
0 -480 -3 -480 -10z"/>
<path d="M3890 9541 l0 -110 497 -3 c386 -2 497 -6 501 -15 2 -7 15 -13 28
-13 13 0 24 -4 24 -10 0 -5 9 -10 20 -10 11 0 20 -4 20 -10 0 -5 16 -12 35
-16 19 -3 35 -10 35 -15 0 -5 6 -9 13 -9 7 0 21 -11 31 -25 10 -14 27 -25 37
-25 11 0 19 -4 19 -10 0 -28 49 6 106 72 6 7 21 20 33 28 27 18 28 50 2 50
-20 0 -35 12 -61 49 -8 11 -22 21 -31 21 -9 0 -19 7 -23 15 -3 8 -15 15 -26
15 -11 0 -20 5 -20 10 0 6 -7 10 -15 10 -8 0 -15 5 -15 10 0 6 -9 10 -20 10
-11 0 -20 4 -20 10 0 5 -18 13 -40 16 -22 4 -40 10 -40 15 0 5 -13 9 -30 9
-16 0 -30 5 -30 10 0 6 -18 10 -40 10 -22 0 -40 5 -40 10 0 7 -165 10 -475 10
l-475 0 0 -109z"/>
<path d="M2220 8841 c0 -5 -20 -13 -45 -17 -25 -3 -45 -10 -45 -15 0 -5 -9 -9
-20 -9 -11 0 -20 -4 -20 -10 0 -5 -7 -10 -15 -10 -10 0 -15 -11 -15 -35 0 -19
4 -35 9 -35 5 0 13 -10 17 -22 4 -13 15 -30 25 -39 11 -9 19 -19 19 -23 0 -4
5 -13 11 -20 41 -50 68 -76 78 -76 5 0 21 -11 35 -25 14 -14 30 -25 36 -25 5
0 10 -4 10 -9 0 -5 16 -12 35 -15 19 -4 35 -11 35 -16 0 -6 14 -10 30 -10 17
0 30 -4 30 -10 0 -5 11 -10 25 -10 14 0 25 -4 25 -10 0 -6 53 -10 140 -10 87
0 140 4 140 10 0 6 16 10 35 10 19 0 35 5 35 10 0 6 7 10 15 10 8 0 15 4 15 9
0 4 18 11 41 14 23 3 48 14 58 26 10 12 21 21 25 21 8 0 29 17 59 48 82 84 97
102 97 116 0 9 5 16 10 16 6 0 10 6 10 14 0 8 4 16 10 18 5 2 12 22 16 46 5
35 4 42 -10 42 -9 0 -16 4 -16 9 0 5 -20 12 -45 15 -25 4 -45 11 -45 17 0 5
-15 9 -34 9 -28 0 -35 -4 -40 -25 -4 -14 -11 -25 -16 -25 -6 0 -10 -9 -10 -19
0 -11 -9 -23 -20 -26 -11 -3 -20 -10 -20 -15 0 -8 -27 -37 -64 -67 -8 -7 -20
-13 -26 -13 -5 0 -10 -4 -10 -10 0 -5 -9 -10 -19 -10 -11 0 -21 -6 -23 -12 -4
-10 -45 -13 -163 -13 -118 0 -159 3 -162 13 -3 6 -11 12 -19 12 -8 0 -14 5
-14 10 0 6 -9 10 -20 10 -11 0 -20 4 -20 9 0 5 -10 13 -22 17 -26 8 -78 60
-78 78 0 6 -9 18 -20 26 -11 8 -20 18 -20 23 0 5 -7 15 -15 23 -8 9 -15 11
-15 5z"/>
<path d="M4080 8841 c0 -5 -13 -12 -30 -16 -16 -4 -30 -11 -30 -16 0 -5 -13
-9 -30 -9 -16 0 -30 -4 -30 -10 0 -5 -7 -10 -15 -10 -9 0 -15 -9 -15 -25 0
-14 5 -25 10 -25 6 0 10 -9 10 -20 0 -11 7 -23 15 -26 8 -4 15 -13 15 -21 0
-8 16 -29 35 -47 19 -19 35 -41 35 -50 0 -9 5 -16 11 -16 6 0 17 -6 24 -12 31
-28 44 -38 51 -38 4 0 14 -8 23 -19 9 -10 31 -22 49 -25 17 -4 32 -12 32 -17
0 -5 11 -9 25 -9 14 0 25 -4 25 -10 0 -5 16 -10 35 -10 19 0 35 -4 35 -10 0
-6 52 -10 135 -10 83 0 135 4 135 10 0 6 16 10 35 10 19 0 35 5 35 10 0 6 11
10 25 10 14 0 25 4 25 9 0 5 15 13 32 17 18 3 40 15 49 25 9 11 19 19 23 19 7
0 20 10 51 38 7 6 16 12 20 12 11 0 35 28 35 40 0 6 11 21 25 34 14 13 25 30
25 39 0 9 8 18 19 22 28 9 43 95 16 95 -8 0 -15 5 -15 10 0 6 -11 10 -25 10
-14 0 -25 4 -25 9 0 5 -16 12 -35 15 -19 4 -35 11 -35 16 0 6 -9 10 -20 10
-11 0 -20 -7 -20 -15 0 -8 -4 -15 -10 -15 -5 0 -10 -9 -10 -20 0 -10 -7 -25
-15 -32 -16 -13 -50 -46 -72 -70 -22 -23 -42 -38 -53 -38 -5 0 -10 -4 -10 -10
0 -5 -9 -10 -19 -10 -11 0 -21 -6 -23 -12 -4 -10 -45 -13 -163 -13 -118 0
-159 3 -162 13 -3 6 -13 12 -24 12 -10 0 -19 5 -19 10 0 6 -5 10 -10 10 -11 0
-31 15 -53 38 -22 24 -56 57 -72 70 -8 7 -15 22 -15 32 0 11 -4 20 -10 20 -5
0 -10 7 -10 15 0 8 -9 15 -20 15 -11 0 -20 -4 -20 -9z"/>
<path d="M2972 7382 c-12 -11 -22 -26 -22 -35 0 -8 -7 -17 -15 -21 -8 -3 -15
-14 -15 -23 0 -10 -9 -25 -20 -33 -25 -18 -26 -40 -1 -40 11 0 23 -9 26 -20 4
-13 18 -23 36 -27 16 -3 29 -9 29 -14 0 -5 7 -9 15 -9 8 0 15 -4 15 -10 0 -5
9 -10 20 -10 11 0 20 -4 20 -10 0 -5 6 -10 14 -10 8 0 16 -5 18 -11 2 -5 22
-13 46 -16 23 -3 42 -10 42 -14 0 -5 11 -9 25 -9 14 0 25 -4 25 -10 0 -5 15
-10 34 -10 19 0 36 -6 39 -12 3 -10 65 -13 267 -13 202 0 264 3 268 13 2 6 19
12 38 12 19 0 34 5 34 10 0 6 11 10 25 10 14 0 25 4 25 9 0 6 20 13 45 17 25
3 45 10 45 15 0 5 7 9 15 9 8 0 15 5 15 10 0 6 8 10 18 10 10 0 24 9 32 20 8
11 29 23 47 26 19 4 35 14 38 25 4 10 11 19 16 19 5 0 9 7 9 15 0 8 -4 15 -10
15 -5 0 -10 9 -10 19 0 11 -7 26 -15 35 -8 8 -15 18 -15 23 0 5 -9 15 -20 23
-11 8 -20 20 -20 27 0 18 -45 16 -64 -2 -8 -8 -19 -15 -25 -15 -6 0 -11 -4
-11 -10 0 -5 -7 -10 -15 -10 -8 0 -15 -4 -15 -9 0 -6 -20 -13 -45 -17 -25 -3
-45 -10 -45 -15 0 -5 -9 -9 -20 -9 -11 0 -20 -4 -20 -10 0 -5 -15 -10 -34 -10
-19 0 -36 -6 -39 -12 -3 -10 -63 -13 -257 -13 -194 0 -254 3 -258 13 -2 6 -19
12 -38 12 -19 0 -34 5 -34 10 0 6 -11 10 -25 10 -14 0 -25 4 -25 9 0 5 -16 12
-35 15 -19 4 -35 11 -35 16 0 6 -9 10 -19 10 -11 0 -23 9 -26 20 -3 11 -12 20
-18 20 -7 0 -21 3 -32 6 -12 3 -29 -3 -43 -14z"/>
<path d="M3440 12085 l0 -105 105 0 105 0 0 105 0 105 -105 0 -105 0 0 -105z"/>
<path d="M5993 11153 c-13 -2 -23 -9 -23 -14 0 -5 -11 -9 -25 -9 -14 0 -25 -4
-25 -10 0 -5 -9 -10 -21 -10 -11 0 -27 -6 -35 -14 -15 -16 -19 -56 -5 -56 5 0
12 -22 16 -50 4 -27 11 -50 16 -50 5 0 9 -9 9 -20 0 -13 7 -20 20 -20 11 0 20
5 20 10 0 6 16 10 35 10 19 0 35 4 35 9 0 5 19 11 41 15 l42 7 -7 62 c-4 34
-12 64 -17 65 -5 2 -9 15 -9 28 0 13 -4 24 -10 24 -5 0 -10 7 -10 15 0 15 -6
16 -47 8z"/>
<path d="M210 11025 l0 -105 -105 0 -105 0 0 -105 0 -105 105 0 105 0 0 -110
0 -110 105 0 105 0 0 110 0 110 105 0 105 0 0 105 0 105 -105 0 -105 0 0 105
0 105 -105 0 -105 0 0 -105z"/>
<path d="M6930 8285 l0 -105 105 0 105 0 0 99 c0 81 -3 100 -16 105 -9 3 -56
6 -105 6 l-89 0 0 -105z"/>
<path d="M6280 7865 l0 -105 -100 0 -100 0 0 -105 0 -105 100 0 100 0 0 -110
0 -110 105 0 105 0 0 110 0 110 105 0 105 0 0 105 0 105 -105 0 -105 0 0 105
0 105 -105 0 -105 0 0 -105z"/>
<path d="M6930 7015 l0 -105 105 0 105 0 0 91 c0 65 -4 94 -14 105 -11 10 -40
14 -105 14 l-91 0 0 -105z"/>
</g>
</svg>
