<?xml version="1.0" standalone="no"?>
<!DOCTYPE svg PUBLIC "-//W3C//DTD SVG 20010904//EN"
 "http://www.w3.org/TR/2001/REC-SVG-20010904/DTD/svg10.dtd">
<svg version="1.0" xmlns="http://www.w3.org/2000/svg"
 width="714.000000pt" height="1263.000000pt" viewBox="0 0 714.000000 1263.000000"
 preserveAspectRatio="xMidYMid meet">

<g transform="translate(0.000000,1263.000000) scale(0.100000,-0.100000)"
fill="#000000" stroke="none">
<path d="M6250 12480 c0 -5 -16 -10 -35 -10 -19 0 -35 -4 -35 -9 0 -4 -27 -11
-60 -15 -33 -4 -60 -11 -60 -16 0 -6 -16 -10 -35 -10 -19 0 -35 -4 -35 -10 0
-5 -16 -10 -35 -10 -19 0 -35 -4 -35 -10 0 -5 -16 -10 -35 -10 -19 0 -35 -4
-35 -9 0 -5 -31 -12 -70 -16 -38 -4 -70 -11 -70 -16 0 -5 -16 -9 -35 -9 -19 0
-35 -4 -35 -10 0 -5 -16 -10 -35 -10 -19 0 -35 -4 -35 -10 0 -5 -27 -12 -60
-16 -33 -4 -60 -11 -60 -15 0 -5 -16 -9 -35 -9 -19 0 -35 -4 -35 -10 0 -5 -16
-10 -35 -10 -19 0 -35 -4 -35 -9 0 -5 -31 -12 -70 -16 -38 -4 -70 -11 -70 -16
0 -5 -16 -9 -35 -9 -19 0 -35 -4 -35 -10 0 -5 -16 -10 -35 -10 -19 0 -35 -4
-35 -10 0 -5 -11 -10 -25 -10 -14 0 -25 -4 -25 -9 0 -5 -31 -12 -70 -16 -38
-4 -70 -11 -70 -16 0 -5 -16 -9 -35 -9 -19 0 -35 -4 -35 -10 0 -5 -16 -10 -35
-10 -19 0 -35 -4 -35 -9 0 -5 -31 -12 -70 -16 -38 -4 -70 -11 -70 -16 0 -5
-16 -9 -35 -9 -19 0 -35 -4 -35 -10 0 -5 -16 -10 -35 -10 -19 0 -35 -4 -35 -9
0 -5 -29 -13 -65 -16 -36 -4 -65 -11 -65 -16 0 -5 -16 -9 -35 -9 -19 0 -35 -4
-35 -10 0 -5 -16 -10 -35 -10 -19 0 -35 -4 -35 -10 0 -5 -15 -10 -34 -10 -19
0 -36 -5 -38 -11 -2 -6 -46 -13 -101 -16 -53 -3 -97 -10 -97 -14 0 -5 -31 -9
-70 -9 -38 0 -70 4 -70 8 0 5 -46 12 -102 15 -57 4 -104 11 -106 17 -2 5 -19
10 -38 10 -19 0 -34 5 -34 10 0 6 -9 10 -20 10 -11 0 -20 5 -20 10 0 6 -11 10
-25 10 -14 0 -25 4 -25 9 0 5 -16 12 -35 15 -19 4 -35 11 -35 16 0 6 -9 10
-20 10 -11 0 -20 5 -20 10 0 6 -11 10 -25 10 -14 0 -25 4 -25 9 0 5 -22 12
-50 16 -28 4 -50 11 -50 16 0 5 -16 9 -35 9 -19 0 -35 5 -35 10 0 6 -30 10
-70 10 -40 0 -70 4 -70 10 0 6 -30 10 -70 10 -40 0 -70 -4 -70 -10 0 -6 -30
-10 -70 -10 -40 0 -70 -4 -70 -10 0 -5 -20 -10 -45 -10 -25 0 -45 -4 -45 -9 0
-5 -22 -12 -50 -16 -27 -4 -50 -11 -50 -16 0 -5 -13 -9 -30 -9 -16 0 -30 -4
-30 -10 0 -5 -7 -10 -15 -10 -8 0 -15 -4 -15 -9 0 -5 -16 -12 -35 -15 -19 -4
-35 -11 -35 -16 0 -6 -9 -10 -20 -10 -11 0 -20 -4 -20 -10 0 -5 -6 -10 -13
-10 -7 0 -19 -9 -27 -20 -8 -11 -20 -20 -27 -20 -7 0 -23 -11 -37 -25 -14 -14
-28 -25 -31 -25 -7 0 -30 -19 -48 -38 -7 -7 -38 -40 -69 -72 -32 -32 -58 -62
-58 -65 0 -4 -7 -13 -15 -21 -8 -9 -15 -24 -15 -34 0 -10 -9 -22 -20 -25 -11
-3 -20 -15 -20 -26 0 -10 -4 -19 -9 -19 -5 0 -12 -16 -15 -35 -4 -19 -11 -35
-16 -35 -6 0 -10 -9 -10 -20 0 -11 -4 -20 -10 -20 -5 0 -10 -11 -10 -25 0 -14
-4 -25 -9 -25 -5 0 -13 -36 -17 -80 -3 -44 -11 -80 -15 -80 -5 0 -9 -36 -9
-80 0 -44 4 -80 9 -80 4 0 11 -37 15 -82 4 -46 11 -84 16 -86 6 -2 10 -12 10
-23 0 -10 5 -19 10 -19 6 0 10 -11 10 -25 0 -14 5 -25 10 -25 6 0 10 -9 10
-19 0 -11 7 -26 15 -35 8 -8 15 -18 15 -23 0 -5 9 -15 20 -23 11 -8 20 -20 20
-27 0 -18 155 -173 173 -173 9 0 19 -9 22 -20 3 -11 15 -20 26 -20 10 0 19 -4
19 -10 0 -5 5 -10 11 -10 6 0 17 -7 25 -15 9 -8 26 -15 40 -15 13 0 24 -4 24
-10 0 -5 9 -10 20 -10 11 0 20 -4 20 -10 0 -5 11 -10 25 -10 14 0 25 -4 25
-10 0 -5 8 -10 19 -10 15 0 19 -11 25 -77 3 -42 6 -186 6 -320 l0 -244 25 -24
c32 -33 100 -36 110 -5 3 11 11 20 16 20 5 0 9 119 9 296 0 263 2 297 17 312
12 12 18 13 21 4 5 -15 212 -17 212 -2 0 6 27 10 60 10 33 0 60 4 60 10 0 6
16 10 35 10 l35 0 0 -90 c0 -49 4 -90 9 -90 5 0 11 -10 13 -22 3 -21 8 -23 63
-23 55 0 60 2 63 23 2 12 8 22 13 22 5 0 9 54 9 124 l0 124 35 6 c19 4 35 11
35 16 0 6 9 10 19 10 11 0 23 9 26 20 3 11 15 20 26 20 10 0 19 5 19 10 0 6 7
10 15 10 8 0 25 11 39 25 14 14 28 25 31 25 7 0 29 18 58 47 12 13 32 33 44
45 12 13 27 28 32 33 33 32 61 65 61 70 0 4 6 13 13 20 26 30 37 44 37 50 0 3
11 17 25 31 14 14 25 29 25 35 0 10 115 129 125 129 7 0 24 14 60 48 13 12 28
22 32 22 5 0 15 9 23 20 8 11 29 23 47 26 18 3 33 10 33 15 0 5 7 9 15 9 8 0
15 5 15 10 0 6 9 10 20 10 11 0 20 4 20 10 0 5 18 13 40 16 22 4 40 10 40 15
0 5 14 9 30 9 17 0 30 5 30 10 0 6 16 10 35 10 19 0 35 4 35 9 0 4 27 11 60
15 33 4 60 11 60 16 0 6 16 10 35 10 19 0 35 5 35 10 0 6 16 10 35 10 19 0 35
5 35 10 0 6 16 10 35 10 19 0 35 4 35 9 0 5 32 12 70 16 39 4 70 11 70 16 0 5
16 9 35 9 19 0 35 5 35 10 0 6 16 10 35 10 19 0 35 4 35 10 0 5 27 12 60 16
33 4 60 11 60 15 0 5 16 9 35 9 19 0 35 5 35 10 0 6 16 10 35 10 19 0 35 4 35
9 0 5 32 12 70 16 39 4 70 11 70 16 0 5 16 9 35 9 19 0 35 5 35 10 0 6 16 10
35 10 19 0 35 5 35 10 0 6 11 10 25 10 14 0 25 4 25 9 0 5 32 12 70 16 39 4
70 11 70 16 0 5 16 9 35 9 19 0 35 5 35 10 0 6 16 10 35 10 19 0 35 4 35 9 0
5 32 12 70 16 39 4 70 11 70 16 0 5 16 9 35 9 19 0 35 5 35 10 0 6 16 10 35
10 19 0 35 4 35 10 0 5 27 12 60 16 33 4 60 11 60 15 0 5 16 9 35 9 19 0 35 5
35 10 0 6 16 10 35 10 19 0 35 5 35 10 0 6 16 10 35 10 19 0 35 4 35 9 0 4 24
11 52 14 29 4 54 11 56 17 2 5 8 10 13 10 21 0 130 121 135 150 4 16 10 30 15
30 5 0 9 11 9 25 0 14 5 25 10 25 6 0 10 28 10 65 0 37 -4 65 -10 65 -5 0 -10
16 -10 35 0 19 -4 35 -10 35 -5 0 -12 16 -16 35 -3 19 -10 35 -15 35 -9 0 -47
38 -68 68 -8 11 -29 23 -48 27 -18 3 -33 10 -33 15 0 6 -11 10 -25 10 -14 0
-25 5 -25 10 0 6 -33 10 -80 10 -47 0 -80 -4 -80 -10z m192 -212 l43 -42 0
-81 c0 -75 -2 -83 -27 -108 -15 -15 -31 -27 -37 -27 -5 0 -11 -5 -13 -10 -2
-6 -27 -13 -56 -17 -28 -3 -52 -10 -52 -14 0 -5 -16 -9 -35 -9 -19 0 -35 -4
-35 -10 0 -5 -11 -10 -25 -10 -14 0 -25 -4 -25 -10 0 -5 -16 -10 -35 -10 -19
0 -35 -4 -35 -9 0 -5 -31 -12 -70 -16 -38 -4 -70 -11 -70 -16 0 -5 -16 -9 -35
-9 -19 0 -35 -4 -35 -10 0 -5 -16 -10 -35 -10 -19 0 -35 -4 -35 -9 0 -5 -31
-12 -70 -16 -38 -4 -70 -11 -70 -16 0 -5 -11 -9 -25 -9 -14 0 -25 -4 -25 -10
0 -5 -16 -10 -35 -10 -19 0 -35 -4 -35 -10 0 -5 -16 -10 -35 -10 -19 0 -35 -4
-35 -9 0 -5 -31 -12 -70 -16 -38 -4 -70 -11 -70 -16 0 -5 -16 -9 -35 -9 -19 0
-35 -4 -35 -10 0 -5 -16 -10 -35 -10 -19 0 -35 -4 -35 -9 0 -4 -27 -11 -60
-15 -33 -4 -60 -11 -60 -16 0 -6 -16 -10 -35 -10 -19 0 -35 -4 -35 -10 0 -5
-16 -10 -35 -10 -19 0 -35 -4 -35 -9 0 -5 -31 -12 -70 -16 -38 -4 -70 -11 -70
-16 0 -5 -16 -9 -35 -9 -19 0 -35 -4 -35 -10 0 -5 -16 -10 -35 -10 -19 0 -35
-4 -35 -10 0 -5 -16 -10 -35 -10 -19 0 -35 -4 -35 -10 0 -5 -27 -12 -60 -16
-33 -4 -60 -11 -60 -15 0 -5 -16 -9 -35 -9 -19 0 -35 -4 -35 -10 0 -5 -16 -10
-35 -10 -19 0 -35 -4 -35 -9 0 -5 -31 -12 -70 -16 -38 -4 -70 -11 -70 -16 0
-5 -13 -9 -30 -9 -16 0 -30 -4 -30 -10 0 -5 -16 -10 -35 -10 -19 0 -35 -4 -35
-9 0 -5 -13 -12 -30 -16 -16 -4 -30 -11 -30 -16 0 -5 -13 -9 -30 -9 -16 0 -30
-4 -30 -10 0 -5 -7 -10 -15 -10 -8 0 -15 -4 -15 -10 0 -5 -9 -10 -19 -10 -10
0 -21 -7 -25 -15 -3 -8 -14 -15 -23 -15 -10 0 -25 -9 -33 -20 -8 -11 -20 -20
-27 -20 -7 0 -13 -4 -13 -9 0 -5 -10 -13 -22 -17 -24 -7 -238 -219 -238 -236
0 -5 -13 -23 -30 -38 -16 -15 -30 -33 -30 -39 0 -6 -16 -26 -35 -45 -19 -20
-35 -40 -35 -45 0 -13 -48 -61 -61 -61 -5 0 -25 -16 -45 -35 -19 -19 -40 -35
-47 -35 -7 0 -19 -9 -27 -20 -8 -11 -20 -20 -27 -20 -7 0 -13 -4 -13 -10 0 -5
-9 -10 -20 -10 -17 0 -20 7 -20 51 0 53 11 72 48 83 12 4 22 12 22 17 0 5 9 9
19 9 11 0 23 9 26 20 3 11 10 20 15 20 10 0 48 37 70 69 8 11 22 24 32 27 10
3 18 14 18 24 0 10 7 25 15 34 8 8 15 19 15 25 0 6 5 11 10 11 6 0 10 9 10 20
0 11 4 20 10 20 5 0 12 16 16 35 3 19 10 35 15 35 5 0 9 20 9 45 0 25 5 45 10
45 6 0 10 35 10 85 0 50 -4 85 -10 85 -5 0 -10 16 -10 35 0 19 -4 35 -9 35 -5
0 -12 16 -15 35 -4 19 -11 35 -16 35 -6 0 -10 8 -10 18 0 10 -9 24 -20 32 -11
8 -20 20 -20 27 0 15 -66 83 -81 83 -6 0 -24 14 -39 30 -16 17 -42 33 -59 36
-17 4 -31 10 -31 15 0 5 -7 9 -15 9 -8 0 -15 5 -15 10 0 6 -11 10 -25 10 -14
0 -25 5 -25 10 0 6 -11 10 -24 10 -13 0 -26 6 -29 13 -3 9 -55 12 -217 12
-162 0 -214 -3 -218 -12 -2 -7 -15 -13 -28 -13 -13 0 -24 -4 -24 -10 0 -5 -13
-10 -30 -10 -16 0 -30 -4 -30 -10 0 -5 -11 -10 -25 -10 -14 0 -25 -4 -25 -10
0 -5 -16 -12 -35 -16 -19 -3 -35 -10 -35 -15 0 -5 -6 -9 -13 -9 -7 0 -19 -9
-27 -20 -8 -11 -23 -20 -33 -20 -9 0 -20 -7 -23 -15 -4 -8 -13 -15 -20 -15
-18 0 -144 -128 -144 -146 0 -4 -8 -14 -19 -23 -10 -9 -21 -26 -25 -38 -4 -13
-12 -23 -17 -23 -5 0 -9 -9 -9 -20 0 -11 -4 -20 -9 -20 -5 0 -12 -22 -16 -50
-4 -27 -11 -50 -16 -50 -5 0 -9 -56 -9 -125 0 -70 4 -125 9 -125 5 0 13 -25
16 -55 4 -30 11 -55 16 -55 5 0 9 -5 9 -10 0 -10 8 -22 38 -55 6 -7 12 -16 12
-20 0 -3 10 -17 22 -30 13 -13 29 -31 36 -40 7 -8 21 -15 32 -15 10 0 22 -9
25 -20 3 -11 15 -20 26 -20 10 0 19 -4 19 -10 0 -5 11 -12 25 -16 14 -3 25
-10 25 -15 0 -5 9 -9 20 -9 18 0 20 -7 20 -55 0 -48 -2 -55 -20 -55 -11 0 -20
5 -20 10 0 6 -7 10 -15 10 -8 0 -15 4 -15 9 0 5 -15 12 -33 15 -18 3 -39 15
-47 26 -8 11 -22 20 -32 20 -9 0 -20 9 -23 20 -4 13 -18 23 -36 27 -16 3 -29
9 -29 14 0 4 -11 19 -25 33 -14 14 -25 30 -25 35 0 6 -11 21 -25 35 -14 14
-25 30 -25 36 0 5 -4 10 -9 10 -5 0 -12 16 -15 35 -4 19 -11 35 -16 35 -6 0
-10 14 -10 30 0 17 -4 30 -10 30 -5 0 -10 11 -10 25 0 14 -4 25 -10 25 -6 0
-10 48 -10 125 0 77 4 125 10 125 6 0 10 16 10 35 0 19 5 35 10 35 6 0 10 7
10 15 0 8 4 15 9 15 4 0 11 19 14 42 3 24 11 44 16 46 6 2 11 12 11 22 0 10 9
22 20 25 11 3 20 15 20 26 0 10 14 32 30 47 17 16 30 35 30 42 0 14 38 50 52
50 5 0 24 16 44 35 19 19 40 35 47 35 7 0 19 9 27 20 8 11 19 20 24 20 5 0 16
8 25 19 9 10 31 22 49 25 17 4 32 12 32 17 0 5 9 9 20 9 11 0 20 5 20 10 0 6
11 10 25 10 14 0 25 4 25 10 0 5 27 12 60 16 33 4 60 11 60 15 0 5 20 9 45 9
25 0 45 5 45 10 0 6 50 10 130 10 80 0 130 -4 130 -10 0 -5 20 -10 45 -10 25
0 45 -4 45 -9 0 -4 27 -11 60 -15 33 -4 60 -11 60 -16 0 -6 7 -10 15 -10 8 0
15 -4 15 -10 0 -5 9 -10 20 -10 11 0 20 -4 20 -9 0 -5 20 -12 45 -15 25 -4 45
-11 45 -17 0 -5 7 -9 15 -9 8 0 15 -4 15 -10 0 -5 11 -10 25 -10 14 0 25 -4
25 -10 0 -5 13 -10 29 -10 16 0 31 -4 33 -10 1 -5 40 -12 86 -16 45 -4 82 -11
82 -15 0 -5 79 -9 175 -9 96 0 175 4 175 9 0 5 38 12 85 16 47 4 85 11 85 16
0 5 16 9 35 9 19 0 35 5 35 10 0 6 14 10 30 10 17 0 30 5 30 10 0 6 16 10 35
10 19 0 35 4 35 9 0 5 32 12 70 16 39 4 70 11 70 16 0 5 16 9 35 9 19 0 35 5
35 10 0 6 16 10 35 10 19 0 35 4 35 9 0 5 32 12 70 16 39 4 70 11 70 16 0 5
11 9 25 9 14 0 25 5 25 10 0 6 16 10 35 10 19 0 35 5 35 10 0 6 16 10 35 10
19 0 35 4 35 9 0 5 32 12 70 16 39 4 70 11 70 16 0 5 16 9 35 9 19 0 35 5 35
10 0 6 16 10 35 10 19 0 35 4 35 9 0 4 27 11 60 15 33 4 60 11 60 16 0 6 16
10 35 10 19 0 35 5 35 10 0 6 16 10 35 10 19 0 35 4 35 9 0 5 32 12 70 16 39
4 70 11 70 16 0 5 16 9 35 9 19 0 35 5 35 10 0 6 16 10 35 10 19 0 35 5 35 10
0 6 16 10 35 10 19 0 35 4 35 10 0 5 27 12 60 16 33 4 60 11 60 15 0 5 16 9
35 9 19 0 35 5 35 10 0 6 16 10 35 10 19 0 35 4 35 9 0 5 32 12 70 16 39 4 70
11 70 16 0 5 34 9 75 9 74 0 74 0 117 -42z m-3452 -618 c0 -5 16 -10 35 -10
19 0 35 -4 35 -10 0 -5 7 -10 15 -10 8 0 15 -4 15 -10 0 -5 11 -10 24 -10 14
0 31 -7 40 -15 8 -8 17 -15 20 -15 14 0 106 -100 106 -114 0 -8 9 -17 19 -21
16 -5 21 -19 27 -72 8 -82 -1 -226 -15 -231 -6 -2 -11 -12 -11 -23 0 -10 -4
-19 -10 -19 -5 0 -10 -7 -10 -15 0 -9 -11 -26 -25 -39 -14 -13 -25 -30 -25
-39 0 -9 -9 -18 -19 -22 -11 -3 -23 -15 -26 -26 -4 -10 -15 -19 -26 -19 -17 0
-19 7 -19 60 0 33 -4 60 -9 60 -5 0 -13 9 -16 20 -3 11 -15 20 -26 20 -10 0
-19 5 -19 10 0 6 -7 10 -15 10 -8 0 -15 -4 -15 -10 0 -5 -9 -10 -19 -10 -11 0
-23 -9 -26 -20 -3 -11 -11 -20 -16 -20 -5 0 -9 -52 -9 -120 0 -113 -1 -120
-20 -120 -11 0 -20 -4 -20 -10 0 -5 -11 -10 -25 -10 -14 0 -25 -4 -25 -10 0
-5 -20 -10 -45 -10 -25 0 -45 -4 -45 -10 0 -17 -229 -13 -246 4 -10 11 -14 41
-14 110 0 53 -4 96 -9 96 -5 0 -12 11 -15 25 -6 23 -11 25 -58 25 -71 0 -88
-21 -88 -112 0 -59 -2 -68 -18 -68 -10 0 -24 10 -32 21 -8 12 -21 27 -28 33
-43 37 -62 59 -62 71 0 8 -4 15 -10 15 -5 0 -10 9 -10 20 0 11 -4 20 -10 20
-5 0 -10 16 -10 35 0 19 -4 35 -10 35 -5 0 -10 25 -10 55 0 30 5 55 10 55 6 0
10 16 10 35 0 19 5 35 10 35 6 0 10 7 10 15 0 8 4 15 9 15 5 0 11 14 15 30 3
17 21 46 41 65 19 20 35 42 35 50 0 8 7 15 16 15 8 0 30 16 48 35 19 19 40 35
49 35 9 0 19 9 22 20 3 11 15 20 25 20 10 0 20 5 22 11 2 5 22 13 46 16 23 3
42 10 42 14 0 5 11 9 25 9 14 0 25 5 25 10 0 6 16 10 35 10 19 0 35 5 35 10 0
6 57 10 150 10 93 0 150 -4 150 -10z m-20 -1075 l0 -54 -60 -7 c-33 -4 -60
-11 -60 -15 0 -5 -72 -9 -160 -9 l-160 0 0 48 0 47 162 1 c111 1 163 5 166 13
2 6 19 11 38 11 19 0 34 5 34 10 0 6 9 10 20 10 18 0 20 -7 20 -55z"/>
<path d="M5240 10870 c0 -5 -7 -10 -16 -10 -36 0 -54 -39 -54 -117 0 -42 -4
-73 -10 -73 -5 0 -10 -9 -10 -20 0 -11 -4 -20 -10 -20 -5 0 -10 -11 -10 -24 0
-13 -6 -26 -12 -29 -10 -3 -13 -41 -13 -147 0 -106 3 -144 13 -148 6 -2 12
-12 12 -23 0 -10 5 -19 10 -19 6 0 10 -9 10 -19 0 -10 7 -21 15 -25 8 -3 15
-14 15 -23 0 -10 9 -25 20 -33 11 -8 20 -25 20 -37 0 -13 5 -23 10 -23 6 0 10
-37 10 -90 0 -53 -4 -90 -10 -90 -5 0 -10 -11 -10 -25 0 -14 -4 -25 -10 -25
-5 0 -10 -6 -10 -14 0 -8 -5 -16 -11 -18 -7 -2 -12 -43 -12 -109 -2 -86 1
-108 15 -122 9 -9 24 -17 32 -17 9 0 16 -4 16 -10 0 -21 42 -9 70 20 27 28 30
37 30 95 0 37 4 65 10 65 6 0 10 14 10 30 0 17 4 30 9 30 5 0 12 23 16 50 4
28 11 50 16 50 5 0 9 41 9 90 0 50 -4 90 -9 90 -5 0 -13 25 -16 55 -4 30 -11
55 -16 55 -5 0 -9 6 -9 13 0 7 -9 19 -20 27 -11 8 -20 23 -20 33 0 9 -7 20
-15 23 -9 4 -15 19 -15 35 0 16 -4 29 -10 29 -6 0 -10 35 -10 85 0 50 4 85 10
85 6 0 10 9 10 20 0 11 4 20 9 20 5 0 13 25 16 55 4 30 11 55 16 55 5 0 9 32
9 70 0 39 -4 70 -9 70 -5 0 -12 11 -15 25 -4 16 -13 25 -26 25 -11 0 -20 5
-20 10 0 6 -7 10 -15 10 -8 0 -15 -4 -15 -10z"/>
<path d="M1330 10530 c0 -5 -9 -10 -20 -10 -11 0 -20 -7 -20 -15 0 -8 -4 -15
-9 -15 -4 0 -11 -44 -14 -97 -3 -55 -10 -99 -16 -101 -6 -2 -11 -10 -11 -18 0
-8 -4 -14 -10 -14 -5 0 -10 -16 -10 -35 0 -19 -4 -35 -10 -35 -6 0 -10 -40
-10 -100 0 -60 4 -100 10 -100 6 0 10 -16 10 -35 0 -19 5 -35 10 -35 6 0 10
-7 10 -15 0 -8 5 -15 10 -15 6 0 10 -9 10 -19 0 -11 7 -26 15 -35 8 -8 15 -19
15 -25 0 -6 5 -11 10 -11 6 0 10 -9 10 -19 0 -11 6 -21 13 -23 9 -4 12 -38 12
-128 0 -90 -3 -124 -12 -127 -7 -3 -13 -13 -13 -24 0 -10 -4 -19 -10 -19 -5 0
-10 -16 -10 -35 0 -19 -4 -35 -10 -35 -6 0 -10 -30 -10 -70 0 -40 4 -70 10
-70 6 0 10 -9 10 -20 0 -13 9 -22 25 -26 14 -3 25 -10 25 -15 0 -5 9 -9 20 -9
11 0 20 5 20 10 0 6 6 10 13 10 8 0 24 8 35 19 19 16 22 29 22 95 0 42 4 76 9
76 5 0 12 20 15 45 4 25 11 45 17 45 5 0 9 16 9 35 0 19 5 35 10 35 6 0 10 33
10 80 0 47 -4 80 -10 80 -5 0 -10 16 -10 35 0 19 -4 35 -9 35 -5 0 -12 19 -15
43 -4 26 -15 49 -26 57 -11 8 -20 20 -20 27 0 7 -4 13 -9 13 -5 0 -12 16 -15
35 -4 19 -11 35 -16 35 -6 0 -10 16 -10 35 0 19 -4 35 -10 35 -5 0 -10 14 -10
30 0 17 5 30 10 30 6 0 10 16 10 35 0 19 4 35 9 35 5 0 12 20 15 45 4 25 11
45 17 45 5 0 9 18 9 40 0 22 5 40 10 40 6 0 10 20 10 45 0 25 -4 45 -10 45 -5
0 -10 11 -10 25 0 14 -9 34 -20 45 -21 21 -80 28 -80 10z"/>
<path d="M4760 10310 c-8 -11 -22 -22 -31 -25 -13 -4 -17 -24 -21 -102 -3 -59
-10 -99 -17 -101 -6 -2 -11 -10 -11 -18 0 -8 -4 -14 -10 -14 -5 0 -10 -13 -10
-30 0 -16 -4 -30 -10 -30 -6 0 -10 -42 -10 -105 0 -63 4 -105 10 -105 6 0 10
-11 10 -25 0 -14 5 -25 10 -25 6 0 10 -13 10 -29 0 -16 6 -31 15 -35 8 -3 15
-14 15 -23 0 -10 9 -25 20 -33 11 -8 20 -20 20 -26 0 -7 6 -14 13 -16 9 -4 12
-37 12 -123 0 -86 -3 -119 -12 -122 -7 -3 -13 -16 -13 -29 0 -13 -4 -24 -10
-24 -5 0 -10 -13 -10 -30 0 -16 -4 -30 -10 -30 -6 0 -10 -33 -10 -80 0 -44 4
-80 10 -80 5 0 20 -11 34 -25 32 -31 82 -34 91 -5 3 11 11 20 16 20 5 0 9 7 9
15 0 8 5 15 10 15 6 0 10 30 10 70 0 39 4 70 9 70 4 0 11 19 14 42 3 24 11 44
16 46 6 2 11 19 11 38 0 19 5 34 10 34 6 0 10 30 10 70 0 40 -4 70 -10 70 -5
0 -10 18 -10 40 0 22 -4 40 -10 40 -5 0 -12 16 -16 35 -3 19 -10 35 -15 35 -5
0 -9 7 -9 15 0 8 -4 15 -10 15 -5 0 -10 9 -10 19 0 10 -7 21 -15 25 -8 3 -15
15 -15 26 0 11 -4 20 -10 20 -5 0 -10 20 -10 45 0 25 -4 45 -10 45 -5 0 -10 7
-10 15 0 8 5 15 10 15 6 0 10 20 10 45 0 25 4 45 9 45 5 0 12 16 15 35 4 19
11 35 16 35 6 0 10 20 10 45 0 25 5 45 10 45 6 0 10 25 10 55 0 30 -4 55 -10
55 -5 0 -10 5 -10 11 0 14 -25 39 -39 39 -6 0 -11 5 -11 10 0 18 -45 10 -60
-10z"/>
<path d="M2760 10250 c0 -5 -9 -10 -19 -10 -11 0 -23 -9 -26 -20 -3 -11 -11
-20 -16 -20 -5 0 -9 -116 -9 -286 l0 -286 29 -29 c28 -27 71 -40 71 -20 0 5
13 11 29 14 26 5 30 12 36 49 4 24 5 160 3 304 -3 228 -5 263 -20 277 -9 9
-24 17 -32 17 -9 0 -16 5 -16 10 0 6 -7 10 -15 10 -8 0 -15 -4 -15 -10z"/>
<path d="M3008 10045 c-7 -9 -19 -22 -25 -30 -15 -16 -18 -235 -4 -235 5 0 12
-8 16 -19 6 -21 46 -32 88 -24 21 4 29 13 34 34 3 16 9 29 14 29 14 0 11 199
-3 216 -33 39 -42 44 -73 44 -19 0 -40 -7 -47 -15z"/>
<path d="M846 9963 c-36 -9 -43 -28 -48 -128 -3 -60 -10 -101 -17 -103 -6 -2
-11 -12 -11 -23 0 -10 -4 -19 -10 -19 -5 0 -10 -16 -10 -35 0 -19 -4 -35 -10
-35 -6 0 -10 -42 -10 -105 0 -63 4 -105 10 -105 6 0 10 -11 10 -25 0 -14 5
-25 10 -25 6 0 10 -9 10 -20 0 -11 5 -20 10 -20 6 0 10 -9 10 -20 0 -11 7 -23
15 -26 8 -4 15 -15 15 -25 0 -10 5 -19 10 -19 6 0 10 -6 10 -14 0 -8 6 -16 13
-19 9 -3 12 -38 12 -132 0 -94 -3 -129 -12 -133 -7 -2 -13 -12 -13 -23 0 -10
-4 -19 -10 -19 -5 0 -10 -16 -10 -35 0 -19 -4 -35 -10 -35 -6 0 -10 -30 -10
-70 0 -40 4 -70 10 -70 6 0 10 -5 10 -11 0 -14 25 -39 39 -39 6 0 11 -4 11
-10 0 -5 9 -10 20 -10 11 0 20 5 20 10 0 6 5 10 11 10 14 0 39 25 39 39 0 6 5
11 10 11 6 0 10 30 10 70 0 39 4 70 9 70 5 0 12 25 16 55 3 30 11 55 16 55 5
0 9 16 9 35 0 19 5 35 10 35 6 0 10 30 10 70 0 40 -4 70 -10 70 -5 0 -10 16
-10 35 0 19 -4 35 -9 35 -4 0 -11 18 -14 41 -3 23 -14 48 -26 58 -12 10 -21
25 -21 34 0 8 -7 17 -15 21 -8 3 -15 15 -15 26 0 11 -4 20 -10 20 -5 0 -10 20
-10 45 0 25 -4 45 -10 45 -5 0 -10 16 -10 35 0 19 5 35 10 35 6 0 10 11 10 25
0 14 4 25 9 25 5 0 13 25 16 55 4 30 11 55 16 55 5 0 9 20 9 45 0 25 5 45 10
45 6 0 10 16 10 35 0 19 -4 35 -10 35 -5 0 -10 9 -10 20 0 47 -48 70 -114 53z"/>
<path d="M3000 9310 c0 -5 -11 -10 -25 -10 -14 0 -25 -4 -25 -10 0 -5 -7 -10
-15 -10 -8 0 -25 -11 -39 -25 -24 -24 -30 -25 -151 -25 -69 0 -125 -4 -125 -9
0 -5 -89 -10 -197 -13 -142 -3 -198 -7 -201 -16 -2 -7 -16 -12 -32 -12 -20 0
-31 -6 -35 -20 -3 -11 -10 -20 -15 -20 -15 0 -80 -73 -80 -89 0 -5 -4 -11 -10
-13 -5 -1 -12 -36 -16 -75 -4 -40 -11 -73 -15 -73 -5 0 -9 -18 -9 -40 0 -22
-4 -40 -10 -40 -5 0 -10 -20 -10 -45 0 -25 -4 -45 -10 -45 -5 0 -10 -13 -10
-30 0 -28 -2 -30 -40 -30 -22 0 -40 5 -40 10 0 6 -16 10 -35 10 -19 0 -35 -4
-35 -9 0 -4 -28 -11 -62 -14 -34 -3 -64 -10 -66 -16 -2 -6 -10 -11 -18 -11 -8
0 -14 -4 -14 -10 0 -5 -7 -10 -15 -10 -8 0 -51 -37 -95 -82 -97 -100 -92 -94
-124 -125 -14 -13 -26 -28 -26 -33 0 -6 -9 -10 -20 -10 -10 0 -25 -7 -32 -15
-7 -9 -24 -26 -37 -39 -36 -37 -33 -33 -166 -168 -69 -71 -128 -128 -131 -128
-3 0 -16 -11 -30 -25 -14 -14 -29 -25 -34 -25 -5 0 -12 -9 -15 -20 -6 -18 -15
-20 -111 -20 -57 0 -104 -4 -104 -9 0 -4 -24 -11 -52 -14 -29 -4 -54 -11 -56
-17 -2 -5 -8 -10 -13 -10 -6 0 -21 -11 -35 -25 -14 -14 -29 -25 -34 -25 -4 0
-11 -18 -15 -40 -4 -22 -11 -40 -16 -40 -5 0 -9 -7 -9 -15 0 -8 -4 -15 -10
-15 -6 0 -10 -43 -10 -110 0 -107 1 -112 27 -138 44 -44 133 -30 133 22 0 9 5
16 10 16 6 0 10 38 10 95 0 88 2 96 25 120 l26 25 294 0 295 0 0 -725 0 -725
-320 0 -320 0 0 260 c0 167 -4 260 -10 260 -5 0 -10 5 -10 11 0 22 -30 39 -70
39 -40 0 -70 -17 -70 -39 0 -6 -4 -11 -10 -11 -6 0 -10 -120 -10 -340 0 -220
4 -340 10 -340 6 0 10 -20 10 -45 0 -25 4 -45 9 -45 4 0 11 -21 14 -47 3 -26
10 -49 16 -51 6 -2 11 -12 11 -23 0 -10 5 -19 10 -19 6 0 10 -7 10 -15 0 -8 4
-15 9 -15 5 0 11 -13 14 -29 4 -18 14 -32 27 -36 11 -3 20 -13 20 -21 0 -15
72 -94 85 -94 4 0 13 -6 20 -12 33 -30 45 -38 55 -38 5 0 10 -4 10 -10 0 -5 9
-10 20 -10 11 0 20 -4 20 -10 0 -5 7 -10 15 -10 8 0 15 -4 15 -9 0 -6 20 -13
45 -17 25 -3 45 -10 45 -15 0 -5 20 -9 45 -9 25 0 45 -4 45 -10 0 -7 695 -10
2065 -10 1370 0 2065 3 2065 10 0 6 20 10 45 10 25 0 45 4 45 9 0 5 20 12 45
15 25 4 45 11 45 17 0 5 7 9 15 9 8 0 15 5 15 10 0 6 9 10 20 10 11 0 20 5 20
10 0 6 5 10 10 10 11 0 25 10 65 48 13 12 29 22 35 22 5 0 10 4 10 9 0 5 8 12
19 16 10 3 21 18 24 34 4 18 15 32 27 36 11 3 20 15 20 26 0 10 4 19 10 19 5
0 12 11 16 25 3 14 10 25 15 25 5 0 9 9 9 20 0 11 5 20 10 20 6 0 10 11 10 24
0 13 5 26 10 28 6 2 13 33 17 71 3 37 10 67 14 67 5 0 9 351 9 780 0 447 -4
780 -9 780 -5 0 -12 20 -15 45 -4 25 -11 45 -17 45 -5 0 -9 9 -9 19 0 11 -9
22 -19 26 -11 3 -23 15 -26 26 -4 10 -15 19 -26 19 -10 0 -19 5 -19 10 0 6 -7
10 -15 10 -13 0 -15 25 -9 198 4 108 11 199 16 200 11 5 10 42 -1 42 -5 0 -12
20 -16 45 -6 40 -10 46 -36 52 -16 3 -29 9 -29 14 0 5 -7 9 -15 9 -8 0 -15 5
-15 10 0 6 -25 10 -55 10 -30 0 -55 -4 -55 -10 0 -5 -18 -10 -40 -10 -22 0
-40 -4 -40 -9 0 -5 -45 -12 -100 -16 -55 -3 -100 -11 -100 -16 0 -5 -13 -9
-30 -9 -25 0 -30 4 -30 25 0 14 -4 25 -10 25 -5 0 -10 9 -10 20 0 11 -4 20
-10 20 -5 0 -10 11 -10 25 0 14 -4 25 -9 25 -5 0 -12 16 -15 35 -4 19 -11 35
-16 35 -6 0 -10 11 -10 25 0 14 -4 25 -10 25 -5 0 -10 9 -10 20 0 11 -4 20 -9
20 -5 0 -11 14 -15 30 -6 34 -42 74 -74 84 -12 4 -22 12 -22 17 0 5 -16 9 -35
9 -19 0 -35 5 -35 10 0 6 -16 10 -35 10 -19 0 -35 -4 -35 -10 0 -5 -16 -10
-35 -10 -19 0 -35 -4 -35 -9 0 -5 -31 -12 -70 -16 -38 -4 -70 -11 -70 -16 0
-5 -16 -9 -35 -9 -19 0 -35 -4 -35 -10 0 -5 -16 -10 -35 -10 -19 0 -35 -4 -35
-10 0 -5 -16 -10 -35 -10 -19 0 -35 5 -35 10 0 6 4 10 9 10 5 0 12 20 15 45 4
25 11 45 17 45 5 0 9 11 9 25 0 14 5 25 10 25 6 0 10 37 10 90 0 53 -4 90 -10
90 -5 0 -10 7 -10 15 0 23 -77 95 -110 101 -16 4 -30 10 -30 15 0 5 -34 9 -75
9 -43 0 -75 4 -75 10 0 6 -40 10 -99 10 -55 0 -101 4 -103 9 -1 5 -87 13 -190
17 -104 4 -188 11 -188 15 0 5 -40 9 -90 9 -53 0 -90 4 -90 10 0 6 -50 10
-130 10 -80 0 -130 -4 -130 -10z m140 -159 c0 -5 88 -12 195 -16 107 -4 195
-11 195 -16 0 -5 38 -9 85 -9 50 0 85 -4 85 -10 0 -6 38 -10 95 -10 57 0 95
-4 95 -10 0 -6 38 -10 95 -10 57 0 95 -4 95 -10 0 -5 16 -10 35 -10 24 0 35
-5 35 -15 0 -8 5 -15 10 -15 6 0 10 -11 10 -25 0 -14 -4 -25 -9 -25 -6 0 -13
-20 -17 -45 -3 -25 -10 -45 -15 -45 -5 0 -9 -9 -9 -20 0 -11 -4 -20 -10 -20
-5 0 -10 -11 -10 -25 0 -14 -4 -25 -9 -25 -5 0 -12 -19 -16 -42 -9 -52 -25
-68 -64 -68 -17 0 -31 -4 -31 -9 0 -5 -31 -12 -70 -16 -38 -4 -70 -11 -70 -16
0 -5 -16 -9 -35 -9 -19 0 -35 -4 -35 -10 0 -5 -16 -10 -35 -10 -19 0 -35 -4
-35 -9 0 -5 -31 -12 -70 -16 -38 -4 -70 -11 -70 -16 0 -5 -16 -9 -35 -9 -19 0
-35 -4 -35 -10 0 -5 -11 -10 -25 -10 -14 0 -25 -4 -25 -10 0 -5 -11 -12 -25
-16 -14 -3 -25 -13 -25 -23 0 -9 -9 -23 -20 -31 -11 -8 -20 -20 -20 -26 0 -7
-6 -14 -12 -16 -10 -4 -14 -65 -16 -251 l-4 -247 -264 0 -265 0 -25 25 c-14
14 -29 25 -34 25 -5 0 -12 9 -15 20 -3 11 -13 20 -21 20 -7 0 -70 56 -138 125
-69 69 -130 125 -136 125 -5 0 -10 4 -10 9 0 5 -9 13 -20 16 -11 3 -23 18 -26
32 -5 19 -1 30 20 48 14 12 26 28 26 34 0 6 16 27 35 45 19 19 35 39 35 45 0
6 20 31 45 55 25 25 45 49 45 55 0 13 48 61 60 61 5 0 13 12 16 28 4 15 17 35
28 44 12 10 27 22 34 28 6 6 12 20 12 30 0 11 4 20 10 20 12 0 80 72 80 85 0
3 10 17 23 30 34 36 47 54 47 60 0 4 20 26 45 51 25 24 45 48 45 54 0 19 27
40 59 46 17 4 31 10 31 15 0 5 18 9 40 9 22 0 40 -4 40 -9z m-430 -113 c0 -7
-16 -26 -35 -43 -19 -16 -35 -36 -35 -43 0 -7 -20 -33 -45 -56 -25 -24 -45
-51 -45 -59 0 -9 -9 -18 -19 -22 -11 -3 -23 -15 -26 -26 -4 -10 -11 -19 -16
-19 -5 0 -9 -5 -9 -10 0 -6 -10 -22 -22 -35 -60 -65 -68 -75 -68 -85 0 -5 -4
-10 -9 -10 -5 0 -12 -9 -16 -19 -3 -11 -15 -23 -26 -26 -10 -4 -19 -13 -19
-21 0 -9 -22 -37 -48 -63 l-48 -48 -25 28 c-13 15 -34 30 -46 34 -21 5 -23 11
-23 70 0 36 4 65 9 65 5 0 12 38 16 85 4 47 11 85 16 85 5 0 9 25 9 55 0 30 5
55 10 55 6 0 10 11 10 25 0 14 4 25 9 25 5 0 13 9 16 20 3 11 15 20 26 20 10
0 19 4 19 10 0 9 76 13 328 18 84 1 112 -1 112 -10z m2050 -375 c11 -10 20
-30 20 -45 0 -16 5 -28 10 -28 6 0 10 -7 10 -15 0 -8 5 -15 10 -15 6 0 10 -9
10 -20 0 -11 4 -20 9 -20 5 0 12 -20 15 -45 4 -25 11 -45 17 -45 5 0 9 -11 9
-25 0 -14 5 -25 10 -25 6 0 10 -7 10 -15 0 -8 4 -15 9 -15 4 0 11 -19 14 -42
3 -24 11 -44 16 -46 6 -2 11 -12 11 -23 0 -10 5 -19 10 -19 6 0 10 -11 10 -25
0 -14 4 -25 9 -25 5 0 12 -16 15 -35 4 -19 11 -35 16 -35 6 0 10 -11 10 -25 0
-14 5 -25 10 -25 6 0 10 -9 10 -19 0 -11 4 -21 9 -23 5 -1 12 -22 16 -45 l7
-43 -786 0 -786 0 0 216 c0 173 3 218 14 230 8 8 19 14 25 14 6 0 11 5 11 10
0 6 16 10 35 10 19 0 35 4 35 9 0 5 32 12 70 16 39 4 70 11 70 16 0 5 16 9 35
9 19 0 35 5 35 10 0 6 16 10 35 10 19 0 35 5 35 10 0 6 16 10 35 10 19 0 35 4
35 9 0 5 32 12 70 16 39 4 70 11 70 16 0 5 16 9 35 9 19 0 35 5 35 10 0 6 16
10 35 10 19 0 35 4 35 9 0 5 32 12 70 16 39 4 70 11 70 16 0 5 16 9 35 9 19 0
35 5 35 10 0 6 16 10 35 10 19 0 35 4 35 9 0 5 32 12 70 16 39 4 70 11 70 16
0 16 79 10 100 -8z m-2860 -163 c0 -5 9 -10 20 -10 11 0 20 -4 20 -10 0 -5 5
-10 10 -10 14 0 37 -21 150 -137 39 -40 76 -73 83 -73 7 0 19 -10 27 -21 8
-12 21 -27 28 -33 7 -6 24 -22 38 -36 13 -14 29 -29 35 -35 5 -5 20 -20 32
-32 12 -12 27 -27 32 -32 6 -6 22 -22 38 -36 15 -14 27 -30 27 -35 0 -6 7 -10
16 -10 14 0 74 -51 74 -64 0 -3 -306 -6 -680 -6 -374 0 -680 3 -680 6 0 3 23
28 50 55 28 27 50 54 50 59 0 6 9 10 20 10 10 0 25 7 32 15 7 9 24 26 37 39
13 13 28 28 33 34 6 5 21 21 35 35 14 14 29 29 34 33 5 5 49 51 99 102 49 50
95 92 100 92 6 0 30 20 54 45 25 25 50 45 55 45 6 0 11 5 11 10 0 6 27 10 60
10 33 0 60 -4 60 -10z m3550 -260 c0 -27 -4 -50 -10 -50 -6 0 -10 -52 -10
-135 l0 -135 -90 0 c-87 0 -90 1 -96 25 -3 14 -10 25 -15 25 -5 0 -9 14 -9 30
0 17 -4 30 -10 30 -5 0 -10 7 -10 15 0 8 -4 15 -9 15 -6 0 -13 20 -17 45 -3
25 -10 45 -15 45 -5 0 -9 9 -9 20 0 11 -4 20 -10 20 -5 0 -10 11 -10 25 0 20
5 25 25 25 14 0 25 5 25 10 0 6 25 10 55 10 30 0 55 4 55 9 0 10 39 16 118 19
l42 2 0 -50z m-3300 -1225 l0 -725 -340 0 -340 0 0 725 0 725 340 0 340 0 0
-725z m850 0 l0 -725 -340 0 -340 0 0 725 0 725 340 0 340 0 0 -725z m860 0
l0 -725 -340 0 -340 0 0 725 0 725 340 0 340 0 0 -725z m870 0 l0 -725 -350 0
-350 0 0 725 0 725 350 0 350 0 0 -725z m829 696 l31 -29 0 -696 0 -696 -340
0 -340 0 0 725 0 725 309 0 309 0 31 -29z m31 -1601 c0 -5 -4 -10 -10 -10 -5
0 -10 -13 -10 -30 0 -16 -4 -30 -10 -30 -5 0 -10 -7 -10 -15 0 -8 -4 -15 -9
-15 -5 0 -12 -16 -15 -35 -4 -19 -11 -35 -16 -35 -6 0 -10 -9 -10 -19 0 -11
-9 -23 -20 -26 -11 -3 -20 -10 -20 -15 0 -14 -69 -80 -83 -80 -7 0 -19 -9 -27
-20 -8 -11 -20 -20 -26 -20 -7 0 -14 -5 -16 -10 -2 -6 -27 -13 -56 -17 -28 -3
-52 -10 -52 -14 0 -5 -931 -9 -2095 -9 -1185 0 -2095 4 -2095 9 0 5 -18 11
-40 15 -22 3 -40 11 -40 16 0 6 -8 10 -18 10 -10 0 -24 9 -32 20 -8 11 -20 20
-27 20 -13 0 -49 34 -73 69 -8 11 -22 24 -32 27 -10 3 -18 14 -18 24 0 10 -7
25 -15 34 -8 8 -15 19 -15 25 0 6 -4 11 -10 11 -5 0 -10 11 -10 24 0 13 -4 26
-8 28 -5 2 -12 20 -15 41 l-6 37 2470 0 c1639 0 2469 -3 2469 -10z"/>
<path d="M1640 5981 c0 -5 -11 -12 -25 -15 -23 -6 -25 -11 -25 -57 0 -49 15
-79 39 -79 6 0 11 -4 11 -10 0 -7 173 -10 500 -10 l501 0 34 35 c33 32 47 75
25 75 -5 0 -10 9 -10 20 0 13 -9 22 -25 26 -14 3 -25 10 -25 15 0 5 -214 9
-500 9 -286 0 -500 -4 -500 -9z"/>
<path d="M2900 5981 c0 -5 -10 -11 -22 -13 -20 -3 -23 -10 -26 -58 -2 -44 1
-61 16 -78 18 -20 28 -22 141 -22 114 0 123 2 145 23 46 46 43 124 -5 134 -16
3 -29 9 -29 14 0 5 -49 9 -110 9 -61 0 -110 -4 -110 -9z"/>
</g>
</svg>
